<?xml version="1.0" encoding="UTF-8" standalone="yes"?>
<!DOCTYPE svg PUBLIC "-//W3C//DTD SVG 1.1//EN" "http://www.w3.org/Graphics/SVG/1.1/DTD/svg11.dtd">

<svg width="542" height="198" viewBox="0 0 542 198" xmlns="http://www.w3.org/2000/svg" xmlns:xlink="http://www.w3.org/1999/xlink" version="1.1" baseProfile="full">
    <g transform="scale(2.000000,-2.000000) translate(0,-99)">
        <path d="M 34.837891 44.886719 Q 36.625000 46.380859 36.625000 49.164063 Q 36.625000 52.972656 33.783203 54.349609 Q 32.142578 55.140625 28.568359 55.287109 L 28.568359 63.402344 Q 33.988281 63.197266 37.328125 61.439453 Q 43.685547 58.099609 43.685547 49.574219 Q 43.685547 42.835938 39.950195 38.851563 Q 36.214844 34.867188 30.062500 34.867188 Q 25.345703 34.867188 21.683594 37.679688 Q 19.251953 39.525391 16.263672 43.744141 L 13.890625 47.083984 Q 11.664062 50.218750 10.667969 51.375977 Q 9.671875 52.533203 8.353516 53.324219 L 8.353516 34.779297 L 1.000000 34.779297 L 1.000000 63.871094 Q 5.570312 63.753906 9.349609 61.908203 Q 13.597656 60.121094 18.343750 53.470703 Q 22.474609 47.699219 24.261719 46.000000 Q 27.044922 43.392578 30.355469 43.392578 Q 33.050781 43.392578 34.837891 44.886719 Z M 16.673828 1.000000 L 10.140625 1.000000 L 10.140625 5.804688 L 1.000000 5.804688 L 1.000000 13.978516 L 10.140625 13.978516 L 10.140625 30.794922 L 17.435547 30.794922 L 43.216797 15.179688 L 43.216797 5.804688 L 16.673828 5.804688 Z M 16.673828 24.613281 L 16.673828 13.978516 L 35.013672 13.978516 Z" transform="scale(1.000000,1.000000) translate(209.960897,32.043064)" fill="#000000" opacity="1.000000"></path>
        <path d="M 34.837891 44.886719 Q 36.625000 46.380859 36.625000 49.164063 Q 36.625000 52.972656 33.783203 54.349609 Q 32.142578 55.140625 28.568359 55.287109 L 28.568359 63.402344 Q 33.988281 63.197266 37.328125 61.439453 Q 43.685547 58.099609 43.685547 49.574219 Q 43.685547 42.835938 39.950195 38.851563 Q 36.214844 34.867188 30.062500 34.867188 Q 25.345703 34.867188 21.683594 37.679688 Q 19.251953 39.525391 16.263672 43.744141 L 13.890625 47.083984 Q 11.664062 50.218750 10.667969 51.375977 Q 9.671875 52.533203 8.353516 53.324219 L 8.353516 34.779297 L 1.000000 34.779297 L 1.000000 63.871094 Q 5.570312 63.753906 9.349609 61.908203 Q 13.597656 60.121094 18.343750 53.470703 Q 22.474609 47.699219 24.261719 46.000000 Q 27.044922 43.392578 30.355469 43.392578 Q 33.050781 43.392578 34.837891 44.886719 Z M 16.673828 1.000000 L 10.140625 1.000000 L 10.140625 5.804688 L 1.000000 5.804688 L 1.000000 13.978516 L 10.140625 13.978516 L 10.140625 30.794922 L 17.435547 30.794922 L 43.216797 15.179688 L 43.216797 5.804688 L 16.673828 5.804688 Z M 16.673828 24.613281 L 16.673828 13.978516 L 35.013672 13.978516 Z" transform="scale(1.000000,1.000000) translate(213.314935,33.720082)" fill="#ffffff" opacity="1.000000"></path>
        <path d="M 1.000000 48.700000 L 1.000000 2.170000 L 13.780000 2.170000 L 13.780000 23.140000 Q 13.780000 26.290000 14.410000 28.990000 Q 15.040000 31.690000 16.525000 33.715000 Q 18.010000 35.740000 20.440000 36.910000 Q 22.870000 38.080000 26.380000 38.080000 Q 27.550000 38.080000 28.810000 37.945000 Q 30.070000 37.810000 30.970000 37.630000 L 30.970000 49.510000 Q 29.440000 49.960000 28.180000 49.960000 Q 25.750000 49.960000 23.500000 49.240000 Q 21.250000 48.520000 19.270000 47.215000 Q 17.290000 45.910000 15.760000 44.065000 Q 14.230000 42.220000 13.330000 40.060000 L 13.150000 40.060000 L 13.150000 48.700000 Z M 47.350000 25.390000 Q 47.350000 28.180000 47.890000 30.880000 Q 48.430000 33.580000 49.735000 35.650000 Q 51.040000 37.720000 53.200000 39.025000 Q 55.360000 40.330000 58.600000 40.330000 Q 61.840000 40.330000 64.045000 39.025000 Q 66.250000 37.720000 67.555000 35.650000 Q 68.860000 33.580000 69.400000 30.880000 Q 69.940000 28.180000 69.940000 25.390000 Q 69.940000 22.600000 69.400000 19.945000 Q 68.860000 17.290000 67.555000 15.175000 Q 66.250000 13.060000 64.045000 11.800000 Q 61.840000 10.540000 58.600000 10.540000 Q 55.360000 10.540000 53.200000 11.800000 Q 51.040000 13.060000 49.735000 15.175000 Q 48.430000 17.290000 47.890000 19.945000 Q 47.350000 22.600000 47.350000 25.390000 Z M 34.570000 25.390000 Q 34.570000 19.810000 36.280000 15.310000 Q 37.990000 10.810000 41.140000 7.615000 Q 44.290000 4.420000 48.700000 2.710000 Q 53.110000 1.000000 58.600000 1.000000 Q 64.090000 1.000000 68.545000 2.710000 Q 73.000000 4.420000 76.150000 7.615000 Q 79.300000 10.810000 81.010000 15.310000 Q 82.720000 19.810000 82.720000 25.390000 Q 82.720000 30.970000 81.010000 35.515000 Q 79.300000 40.060000 76.150000 43.255000 Q 73.000000 46.450000 68.545000 48.205000 Q 64.090000 49.960000 58.600000 49.960000 Q 53.110000 49.960000 48.700000 48.205000 Q 44.290000 46.450000 41.140000 43.255000 Q 37.990000 40.060000 36.280000 35.515000 Q 34.570000 30.970000 34.570000 25.390000 Z M 102.340000 25.390000 Q 102.340000 28.180000 102.880000 30.880000 Q 103.420000 33.580000 104.725000 35.650000 Q 106.030000 37.720000 108.190000 39.025000 Q 110.350000 40.330000 113.590000 40.330000 Q 116.830000 40.330000 119.035000 39.025000 Q 121.240000 37.720000 122.545000 35.650000 Q 123.850000 33.580000 124.390000 30.880000 Q 124.930000 28.180000 124.930000 25.390000 Q 124.930000 22.600000 124.390000 19.945000 Q 123.850000 17.290000 122.545000 15.175000 Q 121.240000 13.060000 119.035000 11.800000 Q 116.830000 10.540000 113.590000 10.540000 Q 110.350000 10.540000 108.190000 11.800000 Q 106.030000 13.060000 104.725000 15.175000 Q 103.420000 17.290000 102.880000 19.945000 Q 102.340000 22.600000 102.340000 25.390000 Z M 89.560000 25.390000 Q 89.560000 19.810000 91.270000 15.310000 Q 92.980000 10.810000 96.130000 7.615000 Q 99.280000 4.420000 103.690000 2.710000 Q 108.100000 1.000000 113.590000 1.000000 Q 119.080000 1.000000 123.535000 2.710000 Q 127.990000 4.420000 131.140000 7.615000 Q 134.290000 10.810000 136.000000 15.310000 Q 137.710000 19.810000 137.710000 25.390000 Q 137.710000 30.970000 136.000000 35.515000 Q 134.290000 40.060000 131.140000 43.255000 Q 127.990000 46.450000 123.535000 48.205000 Q 119.080000 49.960000 113.590000 49.960000 Q 108.100000 49.960000 103.690000 48.205000 Q 99.280000 46.450000 96.130000 43.255000 Q 92.980000 40.060000 91.270000 35.515000 Q 89.560000 30.970000 89.560000 25.390000 Z M 162.190000 48.700000 L 162.190000 62.650000 L 149.410000 62.650000 L 149.410000 48.700000 L 141.670000 48.700000 L 141.670000 40.150000 L 149.410000 40.150000 L 149.410000 12.700000 Q 149.410000 9.190000 150.580000 7.030000 Q 151.750000 4.870000 153.775000 3.700000 Q 155.800000 2.530000 158.455000 2.125000 Q 161.110000 1.720000 164.080000 1.720000 Q 165.970000 1.720000 167.950000 1.810000 Q 169.930000 1.900000 171.550000 2.170000 L 171.550000 12.070000 Q 170.650000 11.890000 169.660000 11.800000 Q 168.670000 11.710000 167.590000 11.710000 Q 164.350000 11.710000 163.270000 12.790000 Q 162.190000 13.870000 162.190000 17.110000 L 162.190000 40.150000 L 171.550000 40.150000 L 171.550000 48.700000 Z" transform="scale(1.000000,1.000000) translate(21.556879,32.042980)" fill="#000000" opacity="1.000000"></path>
        <path d="M 1.000000 48.700000 L 1.000000 2.170000 L 13.780000 2.170000 L 13.780000 23.140000 Q 13.780000 26.290000 14.410000 28.990000 Q 15.040000 31.690000 16.525000 33.715000 Q 18.010000 35.740000 20.440000 36.910000 Q 22.870000 38.080000 26.380000 38.080000 Q 27.550000 38.080000 28.810000 37.945000 Q 30.070000 37.810000 30.970000 37.630000 L 30.970000 49.510000 Q 29.440000 49.960000 28.180000 49.960000 Q 25.750000 49.960000 23.500000 49.240000 Q 21.250000 48.520000 19.270000 47.215000 Q 17.290000 45.910000 15.760000 44.065000 Q 14.230000 42.220000 13.330000 40.060000 L 13.150000 40.060000 L 13.150000 48.700000 Z M 47.350000 25.390000 Q 47.350000 28.180000 47.890000 30.880000 Q 48.430000 33.580000 49.735000 35.650000 Q 51.040000 37.720000 53.200000 39.025000 Q 55.360000 40.330000 58.600000 40.330000 Q 61.840000 40.330000 64.045000 39.025000 Q 66.250000 37.720000 67.555000 35.650000 Q 68.860000 33.580000 69.400000 30.880000 Q 69.940000 28.180000 69.940000 25.390000 Q 69.940000 22.600000 69.400000 19.945000 Q 68.860000 17.290000 67.555000 15.175000 Q 66.250000 13.060000 64.045000 11.800000 Q 61.840000 10.540000 58.600000 10.540000 Q 55.360000 10.540000 53.200000 11.800000 Q 51.040000 13.060000 49.735000 15.175000 Q 48.430000 17.290000 47.890000 19.945000 Q 47.350000 22.600000 47.350000 25.390000 Z M 34.570000 25.390000 Q 34.570000 19.810000 36.280000 15.310000 Q 37.990000 10.810000 41.140000 7.615000 Q 44.290000 4.420000 48.700000 2.710000 Q 53.110000 1.000000 58.600000 1.000000 Q 64.090000 1.000000 68.545000 2.710000 Q 73.000000 4.420000 76.150000 7.615000 Q 79.300000 10.810000 81.010000 15.310000 Q 82.720000 19.810000 82.720000 25.390000 Q 82.720000 30.970000 81.010000 35.515000 Q 79.300000 40.060000 76.150000 43.255000 Q 73.000000 46.450000 68.545000 48.205000 Q 64.090000 49.960000 58.600000 49.960000 Q 53.110000 49.960000 48.700000 48.205000 Q 44.290000 46.450000 41.140000 43.255000 Q 37.990000 40.060000 36.280000 35.515000 Q 34.570000 30.970000 34.570000 25.390000 Z M 102.340000 25.390000 Q 102.340000 28.180000 102.880000 30.880000 Q 103.420000 33.580000 104.725000 35.650000 Q 106.030000 37.720000 108.190000 39.025000 Q 110.350000 40.330000 113.590000 40.330000 Q 116.830000 40.330000 119.035000 39.025000 Q 121.240000 37.720000 122.545000 35.650000 Q 123.850000 33.580000 124.390000 30.880000 Q 124.930000 28.180000 124.930000 25.390000 Q 124.930000 22.600000 124.390000 19.945000 Q 123.850000 17.290000 122.545000 15.175000 Q 121.240000 13.060000 119.035000 11.800000 Q 116.830000 10.540000 113.590000 10.540000 Q 110.350000 10.540000 108.190000 11.800000 Q 106.030000 13.060000 104.725000 15.175000 Q 103.420000 17.290000 102.880000 19.945000 Q 102.340000 22.600000 102.340000 25.390000 Z M 89.560000 25.390000 Q 89.560000 19.810000 91.270000 15.310000 Q 92.980000 10.810000 96.130000 7.615000 Q 99.280000 4.420000 103.690000 2.710000 Q 108.100000 1.000000 113.590000 1.000000 Q 119.080000 1.000000 123.535000 2.710000 Q 127.990000 4.420000 131.140000 7.615000 Q 134.290000 10.810000 136.000000 15.310000 Q 137.710000 19.810000 137.710000 25.390000 Q 137.710000 30.970000 136.000000 35.515000 Q 134.290000 40.060000 131.140000 43.255000 Q 127.990000 46.450000 123.535000 48.205000 Q 119.080000 49.960000 113.590000 49.960000 Q 108.100000 49.960000 103.690000 48.205000 Q 99.280000 46.450000 96.130000 43.255000 Q 92.980000 40.060000 91.270000 35.515000 Q 89.560000 30.970000 89.560000 25.390000 Z M 162.190000 48.700000 L 162.190000 62.650000 L 149.410000 62.650000 L 149.410000 48.700000 L 141.670000 48.700000 L 141.670000 40.150000 L 149.410000 40.150000 L 149.410000 12.700000 Q 149.410000 9.190000 150.580000 7.030000 Q 151.750000 4.870000 153.775000 3.700000 Q 155.800000 2.530000 158.455000 2.125000 Q 161.110000 1.720000 164.080000 1.720000 Q 165.970000 1.720000 167.950000 1.810000 Q 169.930000 1.900000 171.550000 2.170000 L 171.550000 12.070000 Q 170.650000 11.890000 169.660000 11.800000 Q 168.670000 11.710000 167.590000 11.710000 Q 164.350000 11.710000 163.270000 12.790000 Q 162.190000 13.870000 162.190000 17.110000 L 162.190000 40.150000 L 171.550000 40.150000 L 171.550000 48.700000 Z" transform="scale(1.000000,1.000000) translate(17.643836,33.719998)" fill="#ffffff" opacity="1.000000"></path>
    </g>
</svg>