<?xml version="1.0" encoding="utf-8"?>
<svg width="256" height="128" version="1.1" viewBox="0 0 256 128" xmlns="http://www.w3.org/2000/svg" xmlns:bx="https://boxy-svg.com">
  <defs>
    <bx:grid x="0" y="0" width="251.946" height="111.485"/>
  </defs>
  <g transform="matrix(0.314031, 0, 0, -0.314031, 8.445797, 106.002281)" style="">
    <path d="M 9.000000 1.000000 L 297.590307 1.000000 C 302.008585 1.000000 305.590307 4.581722 305.590307 9.000000 L 305.590307 280.720000 C 305.590307 285.138278 302.008585 288.720000 297.590307 288.720000 L 9.000000 288.720000 C 4.581722 288.720000 1.000000 285.138278 1.000000 280.720000 L 1.000000 9.000000 C 1.000000 4.581722 4.581722 1.000000 9.000000 1.000000 Z" transform="scale(1.000000,1.000000) translate(-0.700000,-0.740000)" fill="#000000" opacity="1.000000"/>
    <path d="M 11.500000 6.000000 L 295.090307 6.000000 C 298.127873 6.000000 300.590307 8.462434 300.590307 11.500000 L 300.590307 278.220000 C 300.590307 281.257566 298.127873 283.720000 295.090307 283.720000 L 11.500000 283.720000 C 8.462434 283.720000 6.000000 281.257566 6.000000 278.220000 L 6.000000 11.500000 C 6.000000 8.462434 8.462434 6.000000 11.500000 6.000000 Z M 11.500000 1.000000 C 5.701010 1.000000 1.000000 5.701010 1.000000 11.500000 L 1.000000 278.220000 C 1.000000 284.018990 5.701010 288.720000 11.500000 288.720000 L 295.090307 288.720000 C 300.889297 288.720000 305.590307 284.018990 305.590307 278.220000 L 305.590307 11.500000 C 305.590307 5.701010 300.889297 1.000000 295.090307 1.000000 L 11.500000 1.000000 Z" transform="scale(1.000000,1.000000) translate(-0.700000,-0.740000)" fill="#ffffff" opacity="1.000000"/>
    <path d="M 96.309135 235.181842 L 96.309135 205.107498 Q 102.500912 205.107498 108.803256 203.891256 Q 115.105600 202.675014 120.302270 199.800260 Q 125.498940 196.925507 128.705395 192.171107 Q 131.911851 187.416707 131.911851 180.561526 Q 131.911851 170.389321 125.609507 163.865842 Q 119.307163 157.342363 108.029284 157.342363 Q 100.952967 157.342363 95.424595 160.548819 Q 89.896223 163.755274 85.473526 168.509674 Q 81.050828 173.264074 77.402102 179.013581 Q 73.753377 184.763088 70.215219 189.849191 Q 63.360037 199.800260 56.725991 208.756223 Q 50.091944 217.712186 42.241656 224.346233 Q 34.391367 230.980279 24.440298 234.850140 Q 14.489228 238.720000 1.000000 238.720000 L 1.000000 125.056670 L 27.978456 125.056670 L 27.978456 198.252316 Q 35.939312 192.502809 41.909953 184.984223 Q 47.880595 177.465637 53.077265 169.504781 Q 58.273935 161.543926 63.581172 153.693637 Q 68.888409 145.843349 75.411888 139.651572 Q 81.935367 133.459795 90.338493 129.700502 Q 98.741619 125.941209 110.461767 125.941209 Q 121.739647 125.941209 130.806177 130.253340 Q 139.872707 134.565470 146.064484 141.862921 Q 152.256260 149.160372 155.573284 158.779740 Q 158.890307 168.399107 158.890307 179.013581 Q 158.890307 192.945079 154.135907 203.670121 Q 149.381507 214.395163 140.867814 221.471479 Q 132.354121 228.547795 120.965674 232.085953 Q 109.577228 235.624112 96.309135 235.181842 Z M 116.432409 51.418753 L 62.696633 51.418753 L 62.696633 92.107572 L 116.432409 52.082158 Z M 36.823851 51.418753 L 1.000000 51.418753 L 1.000000 21.565544 L 36.823851 21.565544 L 36.823851 1.000000 L 62.696633 1.000000 L 62.696633 21.565544 L 155.794419 21.565544 L 155.794419 49.649674 L 65.571386 116.874679 L 36.823851 116.874679 Z" transform="scale(1.000000,1.000000) translate(121.000000,24.260000)" fill="#ffffff" opacity="1.000000"/>
    <path d="M 1.000000 1.000000 L 1.000000 29.080000 Q 1.000000 40.600000 4.600000 48.220000 Q 8.200000 55.840000 14.200000 60.400000 Q 20.200000 64.960000 27.880000 66.820000 Q 35.560000 68.680000 43.720000 68.680000 Q 52.840000 68.680000 60.700000 66.340000 Q 68.560000 64.000000 74.320000 59.080000 Q 80.080000 54.160000 83.380000 46.660000 Q 86.680000 39.160000 86.680000 28.840000 L 86.680000 1.000000 Z M 82.120000 29.320000 Q 82.120000 35.320000 80.260000 41.380000 Q 78.400000 47.440000 74.020000 52.360000 Q 69.640000 57.280000 62.260000 60.340000 Q 54.880000 63.400000 43.720000 63.400000 Q 34.960000 63.400000 28.720000 61.660000 Q 22.480000 59.920000 18.220000 57.100000 Q 13.960000 54.280000 11.500000 50.620000 Q 9.040000 46.960000 7.720000 43.060000 Q 6.400000 39.160000 5.980000 35.260000 Q 5.560000 31.360000 5.560000 28.240000 L 5.560000 6.280000 L 82.120000 6.280000 Z M 38.680000 84.760000 L 38.680000 85.120000 Q 35.680000 85.960000 33.040000 88.180000 Q 30.400000 90.400000 28.480000 93.580000 Q 26.560000 96.760000 25.540000 100.660000 Q 24.520000 104.560000 24.640000 108.760000 L 29.200000 108.760000 Q 28.720000 105.160000 29.920000 100.540000 Q 31.120000 95.920000 35.200000 91.720000 Q 37.000000 90.040000 38.680000 88.780000 Q 40.360000 87.520000 42.400000 86.680000 Q 44.440000 85.840000 46.960000 85.360000 Q 49.480000 84.880000 52.960000 84.760000 L 86.680000 84.760000 L 86.680000 80.200000 L 25.000000 80.200000 L 25.000000 84.760000 Z M 13.360000 114.640000 L 1.000000 114.640000 L 1.000000 119.200000 L 13.360000 119.200000 Z M 86.680000 114.640000 L 25.000000 114.640000 L 25.000000 119.200000 L 86.680000 119.200000 Z M 86.680000 157.240000 L 86.680000 151.600000 L 25.000000 126.760000 L 25.000000 132.040000 L 81.400000 154.360000 L 81.400000 154.600000 L 25.000000 175.480000 L 25.000000 180.520000 Z M 56.440000 188.800000 L 57.160000 188.800000 Q 62.560000 188.800000 67.480000 190.240000 Q 72.400000 191.680000 76.120000 194.500000 Q 79.840000 197.320000 82.000000 201.580000 Q 84.160000 205.840000 84.160000 211.480000 Q 84.160000 220.720000 79.300000 226.120000 Q 74.440000 231.520000 65.800000 233.560000 L 65.800000 238.120000 Q 76.600000 236.080000 82.360000 229.300000 Q 88.120000 222.520000 88.120000 211.360000 Q 88.120000 204.520000 85.660000 199.420000 Q 83.200000 194.320000 78.940000 190.900000 Q 74.680000 187.480000 68.860000 185.800000 Q 63.040000 184.120000 56.320000 184.120000 Q 49.840000 184.120000 43.900000 185.860000 Q 37.960000 187.600000 33.460000 191.080000 Q 28.960000 194.560000 26.260000 199.780000 Q 23.560000 205.000000 23.560000 212.080000 Q 23.560000 218.560000 25.960000 223.540000 Q 28.360000 228.520000 32.500000 231.880000 Q 36.640000 235.240000 42.100000 236.980000 Q 47.560000 238.720000 53.800000 238.720000 Q 54.400000 238.720000 55.180000 238.660000 Q 55.960000 238.600000 56.440000 238.600000 Z M 52.480000 234.040000 Q 47.440000 233.800000 42.940000 232.360000 Q 38.440000 230.920000 35.020000 228.100000 Q 31.600000 225.280000 29.560000 221.260000 Q 27.520000 217.240000 27.520000 212.080000 Q 27.520000 206.560000 29.620000 202.360000 Q 31.720000 198.160000 35.140000 195.280000 Q 38.560000 192.400000 43.120000 190.840000 Q 47.680000 189.280000 52.480000 188.920000 Z" transform="scale(1.000000,1.000000) translate(24.300000,24.260000)" fill="#ffffff" opacity="1.000000"/>
  </g>
  <text style="fill: rgb(255, 255, 255); font-family: &quot;Telugu MN&quot;; font-size: 5.8px; font-weight: 700; white-space: pre;" x="45.521" y="103.964">iSTORAGE SERVER</text>
  <rect x="138.163" y="143.403" width="136.492" height="12.741" style="fill: rgb(255, 255, 255);" transform="matrix(0.999988, 0.004893, 0, 1.000012, -26.685005, -51.909359)"/>
  <g transform="matrix(0.504677, 0, 0, -0.504677, 111.476318, 106.773972)" style="">
    <path d="M 270.45 32.365 L 0 32.365 L 0 2.365 L 270.45 2.365 L 270.45 32.365 Z M 9.599 10.722 L 9.119 10.753 L 8.654 10.815 L 8.201 10.907 L 7.98 10.965 L 7.764 11.03 L 7.351 11.185 L 6.965 11.372 L 6.606 11.591 L 6.437 11.712 L 6.275 11.841 L 5.977 12.127 L 5.714 12.447 L 5.487 12.802 L 5.386 12.992 L 5.295 13.192 L 5.151 13.618 L 5.054 14.079 L 5.006 14.577 L 5 14.839 L 6.478 14.839 L 6.482 14.658 L 6.518 14.314 L 6.59 13.996 L 6.698 13.704 L 6.765 13.567 L 6.92 13.312 L 7.297 12.873 L 7.52 12.689 L 7.764 12.528 L 8.31 12.273 L 8.612 12.18 L 8.926 12.108 L 9.566 12.026 L 9.892 12.016 L 10.156 12.022 L 10.685 12.071 L 10.951 12.114 L 11.212 12.172 L 11.692 12.34 L 11.912 12.451 L 12.115 12.58 L 12.46 12.905 L 12.601 13.099 L 12.716 13.319 L 12.848 13.844 L 12.864 14.15 L 12.844 14.439 L 12.684 14.932 L 12.544 15.135 L 12.371 15.315 L 11.944 15.623 L 11.69 15.751 L 11.415 15.864 L 10.811 16.057 L 10.484 16.136 L 9.804 16.286 L 9.113 16.44 L 8.765 16.521 L 8.08 16.702 L 7.742 16.801 L 7.414 16.912 L 6.811 17.183 L 6.535 17.343 L 6.282 17.524 L 5.855 17.959 L 5.681 18.213 L 5.606 18.351 L 5.486 18.652 L 5.406 18.986 L 5.366 19.354 L 5.361 19.551 L 5.367 19.769 L 5.412 20.183 L 5.502 20.566 L 5.638 20.92 L 5.722 21.086 L 5.816 21.245 L 6.027 21.54 L 6.267 21.807 L 6.537 22.045 L 6.683 22.153 L 6.993 22.349 L 7.674 22.661 L 8.045 22.777 L 8.43 22.867 L 9.214 22.97 L 9.613 22.983 L 10.057 22.969 L 10.894 22.863 L 11.288 22.769 L 11.478 22.712 L 11.84 22.574 L 12.179 22.406 L 12.494 22.207 L 12.642 22.096 L 12.784 21.977 L 13.045 21.718 L 13.275 21.428 L 13.474 21.109 L 13.562 20.939 L 13.641 20.76 L 13.772 20.377 L 13.864 19.961 L 13.918 19.51 L 13.931 19.272 L 12.454 19.272 L 12.411 19.577 L 12.264 20.122 L 12.036 20.58 L 11.727 20.95 L 11.542 21.103 L 11.341 21.236 L 10.896 21.448 L 10.398 21.59 L 9.845 21.66 L 9.548 21.669 L 9.302 21.663 L 8.818 21.614 L 8.579 21.571 L 8.348 21.513 L 7.925 21.349 L 7.734 21.242 L 7.558 21.118 L 7.263 20.81 L 7.143 20.627 L 7.046 20.422 L 6.935 19.942 L 6.921 19.666 L 6.941 19.408 L 7.101 18.969 L 7.241 18.788 L 7.414 18.627 L 7.841 18.352 L 8.095 18.238 L 8.37 18.136 L 8.974 17.959 L 9.301 17.885 L 9.981 17.739 L 10.672 17.581 L 11.02 17.495 L 11.705 17.303 L 12.043 17.195 L 12.371 17.075 L 12.974 16.775 L 13.25 16.596 L 13.503 16.395 L 13.93 15.919 L 14.104 15.644 L 14.179 15.496 L 14.299 15.171 L 14.379 14.81 L 14.419 14.412 L 14.424 14.199 L 14.417 13.969 L 14.365 13.535 L 14.26 13.135 L 14.103 12.769 L 14.005 12.598 L 13.897 12.436 L 13.658 12.134 L 13.389 11.863 L 13.09 11.623 L 12.93 11.515 L 12.763 11.414 L 12.415 11.233 L 12.048 11.081 L 11.661 10.958 L 11.46 10.907 L 11.055 10.825 L 10.246 10.73 L 9.843 10.719 L 9.599 10.722 Z M 261.214 13.838 L 261.214 14.61 L 261.242 14.942 L 261.37 15.528 L 261.469 15.783 L 261.586 16.019 L 261.857 16.45 L 262.01 16.645 L 262.173 16.831 L 262.509 17.179 L 262.684 17.343 L 262.857 17.505 L 263.185 17.842 L 263.34 18.016 L 263.484 18.197 L 263.727 18.587 L 263.825 18.796 L 263.902 19.021 L 263.975 19.538 L 263.972 19.83 L 263.949 20.05 L 263.86 20.452 L 263.714 20.805 L 263.512 21.109 L 263.39 21.242 L 263.255 21.362 L 262.95 21.552 L 262.599 21.68 L 262.202 21.743 L 261.986 21.751 L 261.701 21.738 L 261.192 21.631 L 260.968 21.538 L 260.763 21.422 L 260.406 21.135 L 260.254 20.963 L 260.12 20.774 L 259.911 20.348 L 259.835 20.109 L 259.778 19.858 L 259.712 19.325 L 259.704 19.042 L 258.308 19.042 L 258.308 19.25 L 258.334 19.654 L 258.394 20.044 L 258.487 20.42 L 258.546 20.602 L 258.613 20.78 L 258.768 21.117 L 258.951 21.431 L 259.161 21.722 L 259.277 21.858 L 259.399 21.988 L 259.664 22.225 L 259.955 22.432 L 260.274 22.609 L 260.443 22.687 L 260.618 22.756 L 260.983 22.867 L 261.369 22.941 L 261.775 22.978 L 261.986 22.983 L 262.363 22.969 L 263.065 22.858 L 263.39 22.761 L 263.695 22.638 L 264.241 22.318 L 264.481 22.121 L 264.698 21.9 L 265.055 21.386 L 265.196 21.095 L 265.255 20.94 L 265.351 20.614 L 265.414 20.265 L 265.446 19.893 L 265.45 19.699 L 265.442 19.451 L 265.381 18.996 L 265.327 18.788 L 265.261 18.591 L 265.101 18.226 L 265.007 18.057 L 264.905 17.896 L 264.679 17.592 L 264.555 17.45 L 264.299 17.175 L 264.038 16.908 L 263.777 16.66 L 263.521 16.407 L 263.279 16.145 L 263.061 15.866 L 262.964 15.719 L 262.8 15.407 L 262.733 15.242 L 262.679 15.068 L 262.617 14.686 L 262.61 14.478 L 262.61 13.838 L 261.214 13.838 Z M 147.243 20.996 L 147.243 22.703 L 148.638 22.703 L 148.638 20.996 L 147.243 20.996 Z M 28.104 10.806 L 27.643 10.851 L 27.214 10.942 L 26.817 11.077 L 26.63 11.162 L 26.451 11.256 L 26.117 11.467 L 25.813 11.71 L 25.54 11.982 L 25.415 12.131 L 25.298 12.285 L 25.086 12.614 L 24.903 12.967 L 24.75 13.344 L 24.685 13.542 L 24.627 13.745 L 24.535 14.16 L 24.473 14.586 L 24.442 15.026 L 24.439 15.25 L 24.442 15.474 L 24.472 15.913 L 24.532 16.34 L 24.621 16.755 L 24.677 16.957 L 24.74 17.155 L 24.89 17.532 L 25.07 17.883 L 25.282 18.208 L 25.399 18.361 L 25.524 18.507 L 25.797 18.776 L 26.101 19.014 L 26.435 19.221 L 26.614 19.313 L 26.8 19.396 L 27.195 19.528 L 27.62 19.617 L 28.075 19.661 L 28.313 19.666 L 28.654 19.65 L 29.019 19.601 L 29.208 19.562 L 29.585 19.451 L 29.774 19.379 L 29.961 19.295 L 30.318 19.09 L 30.488 18.968 L 30.65 18.834 L 30.933 18.517 L 31.055 18.336 L 31.088 18.336 L 31.088 22.703 L 32.483 22.703 L 32.483 10.981 L 31.088 10.981 L 31.088 12.131 L 31.055 12.131 L 30.963 11.96 L 30.741 11.656 L 30.47 11.402 L 30.15 11.197 L 29.971 11.113 L 29.784 11.039 L 29.396 10.923 L 28.99 10.845 L 28.565 10.806 L 28.346 10.801 L 28.104 10.806 Z M 125.046 20.996 L 125.046 22.703 L 126.442 22.703 L 126.442 20.996 L 125.046 20.996 Z M 118.434 10.806 L 117.973 10.851 L 117.544 10.942 L 117.147 11.077 L 116.96 11.162 L 116.782 11.256 L 116.447 11.467 L 116.143 11.71 L 115.87 11.982 L 115.745 12.131 L 115.628 12.285 L 115.416 12.614 L 115.233 12.967 L 115.08 13.344 L 115.015 13.542 L 114.957 13.745 L 114.865 14.16 L 114.803 14.586 L 114.772 15.026 L 114.769 15.25 L 114.772 15.474 L 114.802 15.913 L 114.862 16.34 L 114.951 16.755 L 115.007 16.957 L 115.07 17.155 L 115.22 17.532 L 115.4 17.883 L 115.612 18.208 L 115.729 18.361 L 115.854 18.507 L 116.127 18.776 L 116.431 19.014 L 116.765 19.221 L 116.944 19.313 L 117.13 19.396 L 117.525 19.528 L 117.95 19.617 L 118.405 19.661 L 118.643 19.666 L 118.984 19.65 L 119.349 19.601 L 119.538 19.562 L 119.916 19.451 L 120.104 19.379 L 120.291 19.295 L 120.648 19.09 L 120.818 18.968 L 120.98 18.834 L 121.263 18.517 L 121.385 18.336 L 121.418 18.336 L 121.418 22.703 L 122.813 22.703 L 122.813 10.981 L 121.418 10.981 L 121.418 12.131 L 121.385 12.131 L 121.293 11.96 L 121.071 11.656 L 120.8 11.402 L 120.48 11.197 L 120.301 11.113 L 120.114 11.039 L 119.726 10.923 L 119.32 10.845 L 118.895 10.806 L 118.676 10.801 L 118.434 10.806 Z M 234.901 10.806 L 234.44 10.851 L 234.011 10.942 L 233.614 11.077 L 233.427 11.162 L 233.249 11.256 L 232.914 11.467 L 232.61 11.71 L 232.337 11.982 L 232.212 12.131 L 232.095 12.285 L 231.883 12.614 L 231.7 12.967 L 231.547 13.344 L 231.482 13.542 L 231.424 13.745 L 231.332 14.16 L 231.27 14.586 L 231.239 15.026 L 231.236 15.25 L 231.239 15.474 L 231.269 15.913 L 231.329 16.34 L 231.418 16.755 L 231.474 16.957 L 231.537 17.155 L 231.687 17.532 L 231.867 17.883 L 232.079 18.208 L 232.196 18.361 L 232.321 18.507 L 232.594 18.776 L 232.898 19.014 L 233.232 19.221 L 233.411 19.313 L 233.597 19.396 L 233.992 19.528 L 234.417 19.617 L 234.872 19.661 L 235.11 19.666 L 235.451 19.65 L 235.816 19.601 L 236.005 19.562 L 236.383 19.451 L 236.571 19.379 L 236.758 19.295 L 237.115 19.09 L 237.285 18.968 L 237.447 18.834 L 237.73 18.517 L 237.852 18.336 L 237.885 18.336 L 237.885 22.703 L 239.28 22.703 L 239.28 10.981 L 237.885 10.981 L 237.885 12.131 L 237.852 12.131 L 237.76 11.96 L 237.538 11.656 L 237.267 11.402 L 236.947 11.197 L 236.768 11.113 L 236.581 11.039 L 236.193 10.923 L 235.787 10.845 L 235.362 10.806 L 235.143 10.801 L 234.901 10.806 Z M 58.144 20.996 L 58.144 22.703 L 59.54 22.703 L 59.54 20.996 L 58.144 20.996 Z M 103.194 10.981 L 102.933 10.986 L 102.469 11.023 L 102.267 11.055 L 102.083 11.1 L 101.771 11.235 L 101.643 11.326 L 101.531 11.435 L 101.355 11.714 L 101.29 11.884 L 101.239 12.079 L 101.182 12.555 L 101.175 12.836 L 101.175 18.238 L 99.73 18.238 L 99.73 19.469 L 101.175 19.469 L 101.175 22.014 L 102.57 22.014 L 102.57 19.469 L 104.261 19.469 L 104.261 18.238 L 102.57 18.238 L 102.57 12.968 L 102.581 12.746 L 102.611 12.574 L 102.671 12.442 L 102.767 12.344 L 102.905 12.276 L 103.087 12.237 L 103.323 12.219 L 103.621 12.213 L 104.261 12.213 L 104.261 10.981 L 103.194 10.981 Z M 219.661 10.981 L 219.4 10.986 L 218.936 11.023 L 218.734 11.055 L 218.55 11.1 L 218.238 11.235 L 218.11 11.326 L 217.998 11.435 L 217.822 11.714 L 217.757 11.884 L 217.706 12.079 L 217.649 12.555 L 217.642 12.836 L 217.642 18.238 L 216.197 18.238 L 216.197 19.469 L 217.642 19.469 L 217.642 22.014 L 219.037 22.014 L 219.037 19.469 L 220.728 19.469 L 220.728 18.238 L 219.037 18.238 L 219.037 12.968 L 219.047 12.746 L 219.078 12.574 L 219.138 12.442 L 219.234 12.344 L 219.372 12.276 L 219.554 12.237 L 219.79 12.219 L 220.088 12.213 L 220.728 12.213 L 220.728 10.981 L 219.661 10.981 Z M 139.986 10.981 L 139.725 10.986 L 139.261 11.023 L 139.059 11.055 L 138.875 11.1 L 138.563 11.235 L 138.435 11.326 L 138.323 11.435 L 138.147 11.714 L 138.082 11.884 L 138.031 12.079 L 137.974 12.555 L 137.967 12.836 L 137.967 18.238 L 136.522 18.238 L 136.522 19.469 L 137.967 19.469 L 137.967 22.014 L 139.362 22.014 L 139.362 19.469 L 141.053 19.469 L 141.053 18.238 L 139.362 18.238 L 139.362 12.968 L 139.373 12.746 L 139.403 12.574 L 139.463 12.442 L 139.559 12.344 L 139.697 12.276 L 139.879 12.237 L 140.115 12.219 L 140.413 12.213 L 141.053 12.213 L 141.053 10.981 L 139.986 10.981 Z M 131.97 10.806 L 131.495 10.847 L 131.054 10.929 L 130.647 11.052 L 130.456 11.129 L 130.273 11.215 L 129.929 11.412 L 129.615 11.642 L 129.331 11.905 L 129.2 12.048 L 129.076 12.2 L 128.854 12.524 L 128.663 12.877 L 128.504 13.259 L 128.436 13.46 L 128.376 13.668 L 128.277 14.097 L 128.205 14.544 L 128.161 15.01 L 128.149 15.25 L 128.154 15.489 L 128.191 15.953 L 128.264 16.397 L 128.375 16.819 L 128.445 17.023 L 128.522 17.221 L 128.7 17.596 L 128.907 17.945 L 129.144 18.267 L 129.274 18.418 L 129.41 18.562 L 129.701 18.825 L 130.018 19.055 L 130.358 19.252 L 130.538 19.338 L 130.723 19.415 L 131.105 19.538 L 131.506 19.62 L 131.923 19.661 L 132.138 19.666 L 132.416 19.659 L 132.934 19.6 L 133.404 19.483 L 133.826 19.308 L 134.018 19.198 L 134.2 19.077 L 134.537 18.812 L 134.837 18.514 L 135.099 18.185 L 135.217 18.008 L 135.325 17.825 L 135.516 17.448 L 135.672 17.054 L 135.793 16.643 L 135.841 16.432 L 135.914 16.01 L 135.984 15.198 L 135.98 14.807 L 129.627 14.807 L 129.629 14.531 L 129.694 14.002 L 129.758 13.748 L 129.843 13.504 L 130.081 13.061 L 130.234 12.861 L 130.409 12.678 L 130.828 12.37 L 131.071 12.245 L 131.337 12.145 L 131.936 12.03 L 132.27 12.016 L 132.486 12.022 L 132.89 12.073 L 133.253 12.176 L 133.576 12.33 L 133.723 12.426 L 133.858 12.535 L 134.093 12.794 L 134.28 13.106 L 134.419 13.471 L 134.47 13.674 L 135.849 13.674 L 135.769 13.328 L 135.545 12.702 L 135.237 12.164 L 134.845 11.715 L 134.618 11.523 L 134.372 11.354 L 133.834 11.083 L 133.235 10.902 L 132.574 10.812 L 132.221 10.801 L 131.97 10.806 Z M 252.952 10.81 L 252.279 10.884 L 251.955 10.948 L 251.644 11.034 L 251.077 11.276 L 250.822 11.433 L 250.588 11.614 L 250.194 12.058 L 250.034 12.319 L 249.964 12.461 L 249.849 12.765 L 249.767 13.1 L 249.718 13.464 L 249.705 13.657 L 251.101 13.657 L 251.12 13.436 L 251.227 13.046 L 251.314 12.878 L 251.421 12.726 L 251.679 12.471 L 251.832 12.369 L 251.997 12.281 L 252.358 12.145 L 252.554 12.098 L 252.757 12.062 L 253.171 12.021 L 253.383 12.016 L 253.72 12.028 L 254.073 12.065 L 254.25 12.095 L 254.582 12.185 L 254.737 12.245 L 254.883 12.319 L 255.133 12.512 L 255.238 12.631 L 255.324 12.767 L 255.423 13.091 L 255.435 13.28 L 255.429 13.411 L 255.378 13.649 L 255.275 13.854 L 255.121 14.027 L 255.025 14.101 L 254.807 14.234 L 254.294 14.459 L 253.999 14.552 L 253.684 14.636 L 253.015 14.792 L 252.661 14.864 L 252.306 14.941 L 251.637 15.138 L 251.323 15.258 L 251.028 15.398 L 250.515 15.755 L 250.296 15.972 L 250.2 16.093 L 250.046 16.368 L 249.944 16.688 L 249.892 17.053 L 249.886 17.253 L 249.904 17.562 L 250.048 18.112 L 250.173 18.353 L 250.327 18.572 L 250.697 18.945 L 250.912 19.1 L 251.145 19.234 L 251.654 19.448 L 251.93 19.527 L 252.213 19.588 L 252.775 19.657 L 253.055 19.666 L 253.409 19.659 L 254.074 19.597 L 254.384 19.543 L 254.679 19.47 L 255.217 19.257 L 255.46 19.116 L 255.682 18.951 L 256.056 18.541 L 256.207 18.295 L 256.332 18.021 L 256.496 17.376 L 256.535 17.007 L 255.14 17.007 L 255.114 17.203 L 255.007 17.544 L 254.926 17.688 L 254.83 17.817 L 254.6 18.034 L 254.467 18.123 L 254.323 18.199 L 254.016 18.318 L 253.851 18.361 L 253.682 18.393 L 253.341 18.43 L 253.17 18.435 L 252.856 18.423 L 252.538 18.386 L 252.381 18.356 L 252.09 18.27 L 251.955 18.213 L 251.829 18.147 L 251.616 17.982 L 251.528 17.885 L 251.456 17.775 L 251.374 17.508 L 251.364 17.351 L 251.38 17.178 L 251.507 16.879 L 251.618 16.752 L 251.754 16.638 L 252.078 16.441 L 252.267 16.358 L 252.47 16.283 L 252.913 16.152 L 253.153 16.095 L 253.646 15.987 L 254.138 15.874 L 254.399 15.813 L 254.912 15.674 L 255.164 15.595 L 255.408 15.506 L 255.851 15.288 L 256.051 15.16 L 256.235 15.015 L 256.546 14.675 L 256.675 14.478 L 256.779 14.261 L 256.898 13.752 L 256.913 13.46 L 256.908 13.272 L 256.868 12.919 L 256.788 12.598 L 256.668 12.311 L 256.593 12.18 L 256.42 11.938 L 256.002 11.527 L 255.755 11.359 L 255.489 11.215 L 254.906 10.997 L 254.59 10.924 L 254.266 10.87 L 253.622 10.808 L 253.301 10.801 L 252.952 10.81 Z M 194.221 10.806 L 193.765 10.845 L 193.336 10.923 L 192.935 11.039 L 192.744 11.113 L 192.561 11.195 L 192.219 11.383 L 191.907 11.605 L 191.626 11.86 L 191.497 11.999 L 191.375 12.146 L 191.156 12.461 L 190.967 12.804 L 190.809 13.174 L 190.741 13.37 L 190.682 13.572 L 190.586 13.989 L 190.523 14.426 L 190.491 14.883 L 190.487 15.119 L 190.491 15.355 L 190.522 15.815 L 190.583 16.261 L 190.675 16.691 L 190.733 16.9 L 190.799 17.104 L 190.954 17.492 L 191.14 17.853 L 191.359 18.187 L 191.48 18.345 L 191.609 18.494 L 191.892 18.769 L 192.205 19.012 L 192.551 19.221 L 192.736 19.313 L 192.929 19.396 L 193.337 19.528 L 193.776 19.617 L 194.246 19.661 L 194.493 19.666 L 194.848 19.655 L 195.526 19.569 L 195.847 19.494 L 196.154 19.396 L 196.712 19.129 L 196.964 18.96 L 197.195 18.768 L 197.593 18.312 L 197.76 18.049 L 197.902 17.761 L 198.099 17.109 L 198.154 16.744 L 196.709 16.744 L 196.663 16.939 L 196.535 17.296 L 196.363 17.608 L 196.145 17.875 L 196.02 17.992 L 195.883 18.096 L 195.575 18.262 L 195.222 18.373 L 194.824 18.428 L 194.608 18.435 L 194.423 18.431 L 194.076 18.396 L 193.76 18.326 L 193.475 18.221 L 193.344 18.156 L 193.102 18.005 L 192.696 17.636 L 192.531 17.417 L 192.39 17.178 L 192.172 16.649 L 192.096 16.358 L 192.038 16.056 L 191.973 15.436 L 191.964 15.119 L 191.973 14.825 L 192.043 14.25 L 192.104 13.969 L 192.184 13.698 L 192.401 13.201 L 192.539 12.976 L 192.698 12.769 L 193.084 12.42 L 193.311 12.278 L 193.56 12.163 L 194.126 12.032 L 194.444 12.016 L 194.695 12.024 L 195.156 12.092 L 195.56 12.227 L 195.908 12.43 L 196.061 12.557 L 196.199 12.7 L 196.434 13.026 L 196.613 13.408 L 196.735 13.845 L 196.775 14.084 L 198.203 14.084 L 198.135 13.701 L 197.93 13.004 L 197.637 12.396 L 197.254 11.879 L 197.029 11.654 L 196.783 11.454 L 196.226 11.134 L 195.583 10.921 L 194.856 10.814 L 194.46 10.801 L 194.221 10.806 Z M 244.793 10.806 L 244.318 10.847 L 243.876 10.929 L 243.469 11.052 L 243.278 11.129 L 243.095 11.215 L 242.751 11.412 L 242.437 11.642 L 242.153 11.905 L 242.022 12.048 L 241.899 12.2 L 241.676 12.524 L 241.485 12.877 L 241.326 13.259 L 241.259 13.46 L 241.198 13.668 L 241.099 14.097 L 241.027 14.544 L 240.983 15.01 L 240.971 15.25 L 240.976 15.489 L 241.013 15.953 L 241.087 16.397 L 241.198 16.819 L 241.267 17.023 L 241.344 17.221 L 241.522 17.596 L 241.729 17.945 L 241.966 18.267 L 242.096 18.418 L 242.232 18.562 L 242.524 18.825 L 242.84 19.055 L 243.18 19.252 L 243.36 19.338 L 243.545 19.415 L 243.928 19.538 L 244.328 19.62 L 244.745 19.661 L 244.961 19.666 L 245.238 19.659 L 245.756 19.6 L 246.226 19.483 L 246.648 19.308 L 246.841 19.198 L 247.023 19.077 L 247.359 18.812 L 247.659 18.514 L 247.922 18.185 L 248.039 18.008 L 248.148 17.825 L 248.338 17.448 L 248.494 17.054 L 248.615 16.643 L 248.663 16.432 L 248.736 16.01 L 248.806 15.198 L 248.802 14.807 L 242.449 14.807 L 242.451 14.531 L 242.517 14.002 L 242.58 13.748 L 242.665 13.504 L 242.903 13.061 L 243.056 12.861 L 243.232 12.678 L 243.65 12.37 L 243.894 12.245 L 244.159 12.145 L 244.759 12.03 L 245.092 12.016 L 245.309 12.022 L 245.712 12.073 L 246.075 12.176 L 246.398 12.33 L 246.545 12.426 L 246.681 12.535 L 246.916 12.794 L 247.102 13.106 L 247.241 13.471 L 247.292 13.674 L 248.671 13.674 L 248.591 13.328 L 248.367 12.702 L 248.059 12.164 L 247.667 11.715 L 247.44 11.523 L 247.194 11.354 L 246.656 11.083 L 246.057 10.902 L 245.396 10.812 L 245.043 10.801 L 244.793 10.806 Z M 45.387 7.747 L 45.387 12.131 L 45.355 12.131 L 45.262 11.96 L 45.041 11.656 L 44.77 11.402 L 44.45 11.197 L 44.271 11.113 L 44.084 11.039 L 43.696 10.923 L 43.29 10.845 L 42.865 10.806 L 42.646 10.801 L 42.403 10.806 L 41.943 10.851 L 41.514 10.942 L 41.117 11.077 L 40.93 11.162 L 40.751 11.256 L 40.417 11.467 L 40.113 11.71 L 39.84 11.982 L 39.715 12.131 L 39.598 12.285 L 39.385 12.614 L 39.203 12.967 L 39.05 13.344 L 38.985 13.542 L 38.927 13.745 L 38.835 14.16 L 38.773 14.586 L 38.742 15.026 L 38.738 15.25 L 38.742 15.474 L 38.772 15.913 L 38.831 16.34 L 38.921 16.755 L 38.976 16.957 L 39.04 17.155 L 39.19 17.532 L 39.37 17.883 L 39.582 18.208 L 39.699 18.361 L 39.824 18.507 L 40.097 18.776 L 40.4 19.014 L 40.735 19.221 L 40.914 19.313 L 41.1 19.396 L 41.495 19.528 L 41.92 19.617 L 42.374 19.661 L 42.613 19.666 L 42.954 19.65 L 43.319 19.601 L 43.508 19.562 L 43.885 19.451 L 44.074 19.379 L 44.26 19.295 L 44.617 19.09 L 44.788 18.968 L 44.95 18.834 L 45.233 18.517 L 45.355 18.336 L 45.387 18.336 L 45.387 19.469 L 46.783 19.469 L 46.783 7.747 L 45.387 7.747 Z M 180.878 10.81 L 180.205 10.884 L 179.881 10.948 L 179.57 11.034 L 179.004 11.276 L 178.748 11.433 L 178.514 11.614 L 178.12 12.058 L 177.96 12.319 L 177.89 12.461 L 177.776 12.765 L 177.693 13.1 L 177.644 13.464 L 177.632 13.657 L 179.027 13.657 L 179.047 13.436 L 179.154 13.046 L 179.241 12.878 L 179.347 12.726 L 179.606 12.471 L 179.758 12.369 L 179.923 12.281 L 180.284 12.145 L 180.48 12.098 L 180.683 12.062 L 181.098 12.021 L 181.309 12.016 L 181.646 12.028 L 181.999 12.065 L 182.176 12.095 L 182.508 12.185 L 182.664 12.245 L 182.809 12.319 L 183.059 12.512 L 183.165 12.631 L 183.251 12.767 L 183.349 13.091 L 183.362 13.28 L 183.355 13.411 L 183.304 13.649 L 183.201 13.854 L 183.047 14.027 L 182.951 14.101 L 182.733 14.234 L 182.22 14.459 L 181.925 14.552 L 181.611 14.636 L 180.942 14.792 L 180.587 14.864 L 180.233 14.941 L 179.564 15.138 L 179.249 15.258 L 178.954 15.398 L 178.441 15.755 L 178.223 15.972 L 178.127 16.093 L 177.973 16.368 L 177.87 16.688 L 177.819 17.053 L 177.812 17.253 L 177.83 17.562 L 177.974 18.112 L 178.1 18.353 L 178.254 18.572 L 178.623 18.945 L 178.839 19.1 L 179.071 19.234 L 179.58 19.448 L 179.856 19.527 L 180.139 19.588 L 180.701 19.657 L 180.981 19.666 L 181.335 19.659 L 182 19.597 L 182.311 19.543 L 182.606 19.47 L 183.144 19.257 L 183.386 19.116 L 183.608 18.951 L 183.982 18.541 L 184.133 18.295 L 184.258 18.021 L 184.423 17.376 L 184.462 17.007 L 183.066 17.007 L 183.04 17.203 L 182.934 17.544 L 182.853 17.688 L 182.756 17.817 L 182.526 18.034 L 182.393 18.123 L 182.25 18.199 L 181.942 18.318 L 181.777 18.361 L 181.609 18.393 L 181.268 18.43 L 181.096 18.435 L 180.782 18.423 L 180.464 18.386 L 180.307 18.356 L 180.016 18.27 L 179.881 18.213 L 179.756 18.147 L 179.542 17.982 L 179.454 17.885 L 179.382 17.775 L 179.3 17.508 L 179.29 17.351 L 179.306 17.178 L 179.433 16.879 L 179.545 16.752 L 179.68 16.638 L 180.005 16.441 L 180.193 16.358 L 180.396 16.283 L 180.839 16.152 L 181.08 16.095 L 181.572 15.987 L 182.065 15.874 L 182.326 15.813 L 182.839 15.674 L 183.091 15.595 L 183.334 15.506 L 183.777 15.288 L 183.977 15.16 L 184.161 15.015 L 184.473 14.675 L 184.601 14.478 L 184.705 14.261 L 184.824 13.752 L 184.839 13.46 L 184.834 13.272 L 184.794 12.919 L 184.714 12.598 L 184.594 12.311 L 184.519 12.18 L 184.347 11.938 L 183.928 11.527 L 183.682 11.359 L 183.415 11.215 L 182.832 10.997 L 182.516 10.924 L 182.192 10.87 L 181.548 10.808 L 181.227 10.801 L 180.878 10.81 Z M 172.164 10.806 L 171.692 10.848 L 171.249 10.932 L 170.834 11.058 L 170.638 11.137 L 170.449 11.225 L 170.094 11.427 L 169.77 11.661 L 169.476 11.927 L 169.341 12.073 L 169.214 12.226 L 168.984 12.551 L 168.787 12.902 L 168.623 13.279 L 168.553 13.477 L 168.491 13.68 L 168.393 14.099 L 168.327 14.534 L 168.294 14.985 L 168.29 15.217 L 168.294 15.449 L 168.327 15.902 L 168.393 16.339 L 168.491 16.76 L 168.553 16.966 L 168.623 17.165 L 168.787 17.545 L 168.984 17.898 L 169.214 18.224 L 169.341 18.377 L 169.476 18.523 L 169.77 18.791 L 170.094 19.027 L 170.449 19.231 L 170.638 19.321 L 170.834 19.402 L 171.249 19.532 L 171.692 19.618 L 172.164 19.661 L 172.411 19.666 L 172.662 19.661 L 173.139 19.618 L 173.584 19.532 L 173.998 19.402 L 174.192 19.321 L 174.379 19.231 L 174.731 19.027 L 175.054 18.791 L 175.346 18.523 L 175.481 18.377 L 175.608 18.224 L 175.838 17.898 L 176.035 17.545 L 176.199 17.165 L 176.269 16.966 L 176.331 16.76 L 176.429 16.339 L 176.495 15.902 L 176.528 15.449 L 176.532 15.217 L 176.528 14.985 L 176.495 14.534 L 176.429 14.099 L 176.331 13.68 L 176.269 13.477 L 176.199 13.279 L 176.035 12.902 L 175.838 12.551 L 175.608 12.226 L 175.481 12.073 L 175.346 11.927 L 175.054 11.661 L 174.731 11.427 L 174.379 11.225 L 174.192 11.137 L 173.998 11.058 L 173.584 10.932 L 173.139 10.848 L 172.662 10.806 L 172.411 10.801 L 172.164 10.806 Z M 163.246 10.81 L 162.573 10.884 L 162.248 10.948 L 161.938 11.034 L 161.371 11.276 L 161.116 11.433 L 160.882 11.614 L 160.488 12.058 L 160.328 12.319 L 160.258 12.461 L 160.143 12.765 L 160.061 13.1 L 160.012 13.464 L 159.999 13.657 L 161.395 13.657 L 161.414 13.436 L 161.521 13.046 L 161.608 12.878 L 161.714 12.726 L 161.973 12.471 L 162.125 12.369 L 162.291 12.281 L 162.652 12.145 L 162.848 12.098 L 163.05 12.062 L 163.465 12.021 L 163.677 12.016 L 164.013 12.028 L 164.366 12.065 L 164.543 12.095 L 164.876 12.185 L 165.031 12.245 L 165.176 12.319 L 165.427 12.512 L 165.532 12.631 L 165.618 12.767 L 165.717 13.091 L 165.729 13.28 L 165.723 13.411 L 165.671 13.649 L 165.569 13.854 L 165.415 14.027 L 165.319 14.101 L 165.101 14.234 L 164.588 14.459 L 164.292 14.552 L 163.978 14.636 L 163.309 14.792 L 162.954 14.864 L 162.6 14.941 L 161.931 15.138 L 161.616 15.258 L 161.321 15.398 L 160.808 15.755 L 160.59 15.972 L 160.494 16.093 L 160.34 16.368 L 160.238 16.688 L 160.186 17.053 L 160.18 17.253 L 160.198 17.562 L 160.341 18.112 L 160.467 18.353 L 160.621 18.572 L 160.99 18.945 L 161.206 19.1 L 161.439 19.234 L 161.948 19.448 L 162.224 19.527 L 162.507 19.588 L 163.069 19.657 L 163.348 19.666 L 163.702 19.659 L 164.367 19.597 L 164.678 19.543 L 164.973 19.47 L 165.511 19.257 L 165.754 19.116 L 165.976 18.951 L 166.349 18.541 L 166.501 18.295 L 166.626 18.021 L 166.79 17.376 L 166.829 17.007 L 165.434 17.007 L 165.408 17.203 L 165.301 17.544 L 165.22 17.688 L 165.124 17.817 L 164.894 18.034 L 164.76 18.123 L 164.617 18.199 L 164.309 18.318 L 164.145 18.361 L 163.976 18.393 L 163.635 18.43 L 163.463 18.435 L 163.149 18.423 L 162.831 18.386 L 162.675 18.356 L 162.383 18.27 L 162.248 18.213 L 162.123 18.147 L 161.91 17.982 L 161.822 17.885 L 161.75 17.775 L 161.668 17.508 L 161.657 17.351 L 161.673 17.178 L 161.801 16.879 L 161.912 16.752 L 162.048 16.638 L 162.372 16.441 L 162.56 16.358 L 162.764 16.283 L 163.207 16.152 L 163.447 16.095 L 163.94 15.987 L 164.432 15.874 L 164.693 15.813 L 165.206 15.674 L 165.458 15.595 L 165.701 15.506 L 166.145 15.288 L 166.345 15.16 L 166.528 15.015 L 166.84 14.675 L 166.969 14.478 L 167.073 14.261 L 167.192 13.752 L 167.207 13.46 L 167.202 13.272 L 167.162 12.919 L 167.082 12.598 L 166.962 12.311 L 166.886 12.18 L 166.714 11.938 L 166.295 11.527 L 166.049 11.359 L 165.782 11.215 L 165.2 10.997 L 164.884 10.924 L 164.56 10.87 L 163.915 10.808 L 163.595 10.801 L 163.246 10.81 Z M 64.411 10.81 L 63.738 10.884 L 63.414 10.948 L 63.103 11.034 L 62.537 11.276 L 62.281 11.433 L 62.047 11.614 L 61.653 12.058 L 61.493 12.319 L 61.423 12.461 L 61.309 12.765 L 61.226 13.1 L 61.177 13.464 L 61.165 13.657 L 62.56 13.657 L 62.58 13.436 L 62.687 13.046 L 62.774 12.878 L 62.88 12.726 L 63.139 12.471 L 63.291 12.369 L 63.456 12.281 L 63.817 12.145 L 64.013 12.098 L 64.216 12.062 L 64.631 12.021 L 64.842 12.016 L 65.179 12.028 L 65.532 12.065 L 65.709 12.095 L 66.041 12.185 L 66.197 12.245 L 66.342 12.319 L 66.592 12.512 L 66.698 12.631 L 66.784 12.767 L 66.882 13.091 L 66.895 13.28 L 66.888 13.411 L 66.837 13.649 L 66.734 13.854 L 66.58 14.027 L 66.484 14.101 L 66.266 14.234 L 65.753 14.459 L 65.458 14.552 L 65.144 14.636 L 64.475 14.792 L 64.12 14.864 L 63.766 14.941 L 63.097 15.138 L 62.782 15.258 L 62.487 15.398 L 61.974 15.755 L 61.756 15.972 L 61.66 16.093 L 61.506 16.368 L 61.403 16.688 L 61.352 17.053 L 61.345 17.253 L 61.363 17.562 L 61.507 18.112 L 61.633 18.353 L 61.787 18.572 L 62.156 18.945 L 62.372 19.1 L 62.605 19.234 L 63.113 19.448 L 63.389 19.527 L 63.672 19.588 L 64.234 19.657 L 64.514 19.666 L 64.868 19.659 L 65.533 19.597 L 65.844 19.543 L 66.139 19.47 L 66.677 19.257 L 66.919 19.116 L 67.141 18.951 L 67.515 18.541 L 67.666 18.295 L 67.791 18.021 L 67.956 17.376 L 67.995 17.007 L 66.599 17.007 L 66.573 17.203 L 66.467 17.544 L 66.386 17.688 L 66.289 17.817 L 66.059 18.034 L 65.926 18.123 L 65.783 18.199 L 65.475 18.318 L 65.31 18.361 L 65.142 18.393 L 64.801 18.43 L 64.629 18.435 L 64.315 18.423 L 63.997 18.386 L 63.84 18.356 L 63.549 18.27 L 63.414 18.213 L 63.289 18.147 L 63.075 17.982 L 62.987 17.885 L 62.915 17.775 L 62.833 17.508 L 62.823 17.351 L 62.839 17.178 L 62.966 16.879 L 63.078 16.752 L 63.213 16.638 L 63.538 16.441 L 63.726 16.358 L 63.929 16.283 L 64.372 16.152 L 64.613 16.095 L 65.105 15.987 L 65.598 15.874 L 65.859 15.813 L 66.372 15.674 L 66.624 15.595 L 66.867 15.506 L 67.31 15.288 L 67.51 15.16 L 67.694 15.015 L 68.006 14.675 L 68.134 14.478 L 68.238 14.261 L 68.357 13.752 L 68.372 13.46 L 68.367 13.272 L 68.327 12.919 L 68.247 12.598 L 68.127 12.311 L 68.052 12.18 L 67.88 11.938 L 67.461 11.527 L 67.215 11.359 L 66.948 11.215 L 66.365 10.997 L 66.049 10.924 L 65.725 10.87 L 65.081 10.808 L 64.76 10.801 L 64.411 10.81 Z M 77.754 10.806 L 77.298 10.845 L 76.869 10.923 L 76.468 11.039 L 76.277 11.113 L 76.094 11.195 L 75.752 11.383 L 75.44 11.605 L 75.159 11.86 L 75.03 11.999 L 74.908 12.146 L 74.689 12.461 L 74.5 12.804 L 74.342 13.174 L 74.274 13.37 L 74.215 13.572 L 74.119 13.989 L 74.056 14.426 L 74.024 14.883 L 74.02 15.119 L 74.024 15.355 L 74.055 15.815 L 74.116 16.261 L 74.208 16.691 L 74.266 16.9 L 74.332 17.104 L 74.487 17.492 L 74.673 17.853 L 74.892 18.187 L 75.013 18.345 L 75.142 18.494 L 75.425 18.769 L 75.739 19.012 L 76.084 19.221 L 76.269 19.313 L 76.462 19.396 L 76.87 19.528 L 77.309 19.617 L 77.779 19.661 L 78.026 19.666 L 78.381 19.655 L 79.059 19.569 L 79.38 19.494 L 79.687 19.396 L 80.245 19.129 L 80.497 18.96 L 80.728 18.768 L 81.126 18.312 L 81.293 18.049 L 81.435 17.761 L 81.632 17.109 L 81.687 16.744 L 80.242 16.744 L 80.196 16.939 L 80.068 17.296 L 79.896 17.608 L 79.678 17.875 L 79.553 17.992 L 79.416 18.096 L 79.108 18.262 L 78.755 18.373 L 78.357 18.428 L 78.141 18.435 L 77.956 18.431 L 77.609 18.396 L 77.293 18.326 L 77.008 18.221 L 76.877 18.156 L 76.635 18.005 L 76.229 17.636 L 76.064 17.417 L 75.923 17.178 L 75.705 16.649 L 75.629 16.358 L 75.571 16.056 L 75.506 15.436 L 75.498 15.119 L 75.506 14.825 L 75.576 14.25 L 75.637 13.969 L 75.717 13.698 L 75.934 13.201 L 76.072 12.976 L 76.231 12.769 L 76.617 12.42 L 76.844 12.278 L 77.093 12.163 L 77.66 12.032 L 77.977 12.016 L 78.228 12.024 L 78.689 12.092 L 79.093 12.227 L 79.441 12.43 L 79.594 12.557 L 79.732 12.7 L 79.967 13.026 L 80.146 13.408 L 80.268 13.845 L 80.308 14.084 L 81.736 14.084 L 81.668 13.701 L 81.463 13.004 L 81.17 12.396 L 80.787 11.879 L 80.562 11.654 L 80.316 11.454 L 79.759 11.134 L 79.116 10.921 L 78.389 10.814 L 77.993 10.801 L 77.754 10.806 Z M 211.596 10.81 L 210.923 10.884 L 210.599 10.948 L 210.288 11.034 L 209.721 11.276 L 209.466 11.433 L 209.232 11.614 L 208.838 12.058 L 208.678 12.319 L 208.608 12.461 L 208.493 12.765 L 208.411 13.1 L 208.362 13.464 L 208.349 13.657 L 209.745 13.657 L 209.764 13.436 L 209.871 13.046 L 209.958 12.878 L 210.064 12.726 L 210.323 12.471 L 210.475 12.369 L 210.641 12.281 L 211.002 12.145 L 211.198 12.098 L 211.4 12.062 L 211.815 12.021 L 212.027 12.016 L 212.363 12.028 L 212.716 12.065 L 212.893 12.095 L 213.226 12.185 L 213.381 12.245 L 213.527 12.319 L 213.777 12.512 L 213.882 12.631 L 213.968 12.767 L 214.067 13.091 L 214.079 13.28 L 214.073 13.411 L 214.021 13.649 L 213.919 13.854 L 213.765 14.027 L 213.669 14.101 L 213.451 14.234 L 212.938 14.459 L 212.643 14.552 L 212.328 14.636 L 211.659 14.792 L 211.305 14.864 L 210.95 14.941 L 210.281 15.138 L 209.966 15.258 L 209.671 15.398 L 209.158 15.755 L 208.94 15.972 L 208.844 16.093 L 208.69 16.368 L 208.588 16.688 L 208.536 17.053 L 208.53 17.253 L 208.548 17.562 L 208.692 18.112 L 208.817 18.353 L 208.971 18.572 L 209.341 18.945 L 209.556 19.1 L 209.789 19.234 L 210.298 19.448 L 210.574 19.527 L 210.857 19.588 L 211.419 19.657 L 211.699 19.666 L 212.053 19.659 L 212.717 19.597 L 213.028 19.543 L 213.323 19.47 L 213.861 19.257 L 214.104 19.116 L 214.326 18.951 L 214.699 18.541 L 214.851 18.295 L 214.976 18.021 L 215.14 17.376 L 215.179 17.007 L 213.784 17.007 L 213.758 17.203 L 213.651 17.544 L 213.57 17.688 L 213.474 17.817 L 213.244 18.034 L 213.11 18.123 L 212.967 18.199 L 212.659 18.318 L 212.495 18.361 L 212.326 18.393 L 211.985 18.43 L 211.813 18.435 L 211.499 18.423 L 211.181 18.386 L 211.025 18.356 L 210.733 18.27 L 210.599 18.213 L 210.473 18.147 L 210.26 17.982 L 210.172 17.885 L 210.1 17.775 L 210.018 17.508 L 210.008 17.351 L 210.023 17.178 L 210.151 16.879 L 210.262 16.752 L 210.398 16.638 L 210.722 16.441 L 210.91 16.358 L 211.114 16.283 L 211.557 16.152 L 211.797 16.095 L 212.29 15.987 L 212.782 15.874 L 213.043 15.813 L 213.556 15.674 L 213.808 15.595 L 214.051 15.506 L 214.495 15.288 L 214.695 15.16 L 214.878 15.015 L 215.19 14.675 L 215.319 14.478 L 215.423 14.261 L 215.542 13.752 L 215.557 13.46 L 215.552 13.272 L 215.512 12.919 L 215.432 12.598 L 215.312 12.311 L 215.237 12.18 L 215.064 11.938 L 214.646 11.527 L 214.399 11.359 L 214.132 11.215 L 213.55 10.997 L 213.234 10.924 L 212.91 10.87 L 212.265 10.808 L 211.945 10.801 L 211.596 10.81 Z M 150.855 7.747 L 150.855 19.469 L 152.25 19.469 L 152.25 18.32 L 152.283 18.32 L 152.375 18.49 L 152.597 18.795 L 152.868 19.052 L 153.188 19.26 L 153.367 19.346 L 153.554 19.421 L 153.941 19.541 L 154.348 19.621 L 154.773 19.661 L 154.992 19.666 L 155.234 19.661 L 155.695 19.615 L 156.124 19.525 L 156.521 19.39 L 156.708 19.305 L 156.886 19.211 L 157.221 18.998 L 157.525 18.754 L 157.798 18.478 L 157.922 18.328 L 158.04 18.171 L 158.252 17.84 L 158.435 17.485 L 158.588 17.106 L 158.653 16.908 L 158.711 16.705 L 158.803 16.291 L 158.865 15.864 L 158.895 15.425 L 158.899 15.201 L 158.896 14.976 L 158.866 14.537 L 158.806 14.11 L 158.717 13.696 L 158.661 13.493 L 158.598 13.295 L 158.448 12.919 L 158.267 12.568 L 158.056 12.242 L 157.939 12.089 L 157.814 11.944 L 157.541 11.676 L 157.237 11.44 L 156.903 11.236 L 156.724 11.145 L 156.538 11.065 L 156.143 10.935 L 155.718 10.849 L 155.263 10.806 L 155.025 10.801 L 154.694 10.817 L 154.327 10.866 L 154.135 10.904 L 153.753 11.011 L 153.564 11.08 L 153.377 11.16 L 153.02 11.361 L 152.849 11.482 L 152.688 11.617 L 152.405 11.933 L 152.283 12.114 L 152.25 12.114 L 152.25 7.747 L 150.855 7.747 Z M 19.444 10.806 L 18.969 10.847 L 18.527 10.929 L 18.12 11.052 L 17.929 11.129 L 17.746 11.215 L 17.402 11.412 L 17.088 11.642 L 16.804 11.905 L 16.673 12.048 L 16.55 12.2 L 16.327 12.524 L 16.136 12.877 L 15.977 13.259 L 15.91 13.46 L 15.849 13.668 L 15.75 14.097 L 15.678 14.544 L 15.634 15.01 L 15.622 15.25 L 15.627 15.489 L 15.664 15.953 L 15.738 16.397 L 15.849 16.819 L 15.918 17.023 L 15.995 17.221 L 16.173 17.596 L 16.38 17.945 L 16.617 18.267 L 16.747 18.418 L 16.883 18.562 L 17.175 18.825 L 17.491 19.055 L 17.831 19.252 L 18.011 19.338 L 18.196 19.415 L 18.579 19.538 L 18.979 19.62 L 19.396 19.661 L 19.612 19.666 L 19.889 19.659 L 20.407 19.6 L 20.877 19.483 L 21.299 19.308 L 21.492 19.198 L 21.674 19.077 L 22.01 18.812 L 22.31 18.514 L 22.573 18.185 L 22.69 18.008 L 22.799 17.825 L 22.989 17.448 L 23.145 17.054 L 23.266 16.643 L 23.314 16.432 L 23.387 16.01 L 23.457 15.198 L 23.453 14.807 L 17.1 14.807 L 17.102 14.531 L 17.168 14.002 L 17.231 13.748 L 17.316 13.504 L 17.554 13.061 L 17.707 12.861 L 17.883 12.678 L 18.301 12.37 L 18.545 12.245 L 18.81 12.145 L 19.41 12.03 L 19.743 12.016 L 19.96 12.022 L 20.363 12.073 L 20.726 12.176 L 21.049 12.33 L 21.196 12.426 L 21.332 12.535 L 21.567 12.794 L 21.753 13.106 L 21.892 13.471 L 21.943 13.674 L 23.322 13.674 L 23.242 13.328 L 23.018 12.702 L 22.71 12.164 L 22.318 11.715 L 22.091 11.523 L 21.845 11.354 L 21.307 11.083 L 20.708 10.902 L 20.047 10.812 L 19.694 10.801 L 19.444 10.806 Z M 225.686 10.806 L 225.214 10.848 L 224.771 10.932 L 224.356 11.058 L 224.16 11.137 L 223.97 11.225 L 223.615 11.427 L 223.291 11.661 L 222.998 11.927 L 222.863 12.073 L 222.735 12.226 L 222.505 12.551 L 222.308 12.902 L 222.144 13.279 L 222.075 13.477 L 222.013 13.68 L 221.914 14.099 L 221.849 14.534 L 221.816 14.985 L 221.812 15.217 L 221.816 15.449 L 221.849 15.902 L 221.914 16.339 L 222.013 16.76 L 222.075 16.966 L 222.144 17.165 L 222.308 17.545 L 222.505 17.898 L 222.735 18.224 L 222.863 18.377 L 222.998 18.523 L 223.291 18.791 L 223.615 19.027 L 223.97 19.231 L 224.16 19.321 L 224.356 19.402 L 224.771 19.532 L 225.214 19.618 L 225.686 19.661 L 225.933 19.666 L 226.183 19.661 L 226.66 19.618 L 227.106 19.532 L 227.519 19.402 L 227.714 19.321 L 227.901 19.231 L 228.253 19.027 L 228.575 18.791 L 228.868 18.523 L 229.003 18.377 L 229.13 18.224 L 229.36 17.898 L 229.557 17.545 L 229.721 17.165 L 229.791 16.966 L 229.852 16.76 L 229.951 16.339 L 230.017 15.902 L 230.049 15.449 L 230.053 15.217 L 230.049 14.985 L 230.017 14.534 L 229.951 14.099 L 229.852 13.68 L 229.791 13.477 L 229.721 13.279 L 229.557 12.902 L 229.36 12.551 L 229.13 12.226 L 229.003 12.073 L 228.868 11.927 L 228.575 11.661 L 228.253 11.427 L 227.901 11.225 L 227.714 11.137 L 227.519 11.058 L 227.106 10.932 L 226.66 10.848 L 226.183 10.806 L 225.933 10.801 L 225.686 10.806 Z M 95.129 10.81 L 94.456 10.884 L 94.132 10.948 L 93.821 11.034 L 93.254 11.276 L 92.999 11.433 L 92.765 11.614 L 92.371 12.058 L 92.211 12.319 L 92.141 12.461 L 92.026 12.765 L 91.944 13.1 L 91.895 13.464 L 91.882 13.657 L 93.278 13.657 L 93.297 13.436 L 93.404 13.046 L 93.491 12.878 L 93.597 12.726 L 93.856 12.471 L 94.008 12.369 L 94.174 12.281 L 94.535 12.145 L 94.731 12.098 L 94.933 12.062 L 95.348 12.021 L 95.56 12.016 L 95.896 12.028 L 96.249 12.065 L 96.426 12.095 L 96.759 12.185 L 96.914 12.245 L 97.06 12.319 L 97.31 12.512 L 97.415 12.631 L 97.501 12.767 L 97.6 13.091 L 97.612 13.28 L 97.606 13.411 L 97.554 13.649 L 97.452 13.854 L 97.298 14.027 L 97.202 14.101 L 96.984 14.234 L 96.471 14.459 L 96.176 14.552 L 95.861 14.636 L 95.192 14.792 L 94.838 14.864 L 94.483 14.941 L 93.814 15.138 L 93.499 15.258 L 93.204 15.398 L 92.691 15.755 L 92.473 15.972 L 92.377 16.093 L 92.223 16.368 L 92.121 16.688 L 92.069 17.053 L 92.063 17.253 L 92.081 17.562 L 92.225 18.112 L 92.35 18.353 L 92.504 18.572 L 92.874 18.945 L 93.089 19.1 L 93.322 19.234 L 93.831 19.448 L 94.107 19.527 L 94.39 19.588 L 94.952 19.657 L 95.232 19.666 L 95.586 19.659 L 96.25 19.597 L 96.561 19.543 L 96.856 19.47 L 97.394 19.257 L 97.637 19.116 L 97.859 18.951 L 98.232 18.541 L 98.384 18.295 L 98.509 18.021 L 98.673 17.376 L 98.712 17.007 L 97.317 17.007 L 97.291 17.203 L 97.184 17.544 L 97.103 17.688 L 97.007 17.817 L 96.777 18.034 L 96.643 18.123 L 96.5 18.199 L 96.192 18.318 L 96.028 18.361 L 95.859 18.393 L 95.518 18.43 L 95.346 18.435 L 95.032 18.423 L 94.714 18.386 L 94.558 18.356 L 94.266 18.27 L 94.132 18.213 L 94.006 18.147 L 93.793 17.982 L 93.705 17.885 L 93.633 17.775 L 93.551 17.508 L 93.541 17.351 L 93.556 17.178 L 93.684 16.879 L 93.795 16.752 L 93.931 16.638 L 94.255 16.441 L 94.444 16.358 L 94.647 16.283 L 95.09 16.152 L 95.33 16.095 L 95.823 15.987 L 96.315 15.874 L 96.576 15.813 L 97.089 15.674 L 97.341 15.595 L 97.584 15.506 L 98.028 15.288 L 98.228 15.16 L 98.411 15.015 L 98.723 14.675 L 98.852 14.478 L 98.956 14.261 L 99.075 13.752 L 99.09 13.46 L 99.085 13.272 L 99.045 12.919 L 98.965 12.598 L 98.845 12.311 L 98.77 12.18 L 98.597 11.938 L 98.179 11.527 L 97.932 11.359 L 97.665 11.215 L 97.083 10.997 L 96.767 10.924 L 96.443 10.87 L 95.798 10.808 L 95.478 10.801 L 95.129 10.81 Z M 109.219 10.806 L 108.747 10.848 L 108.304 10.932 L 107.889 11.058 L 107.693 11.137 L 107.504 11.225 L 107.148 11.427 L 106.824 11.661 L 106.531 11.927 L 106.396 12.073 L 106.268 12.226 L 106.038 12.551 L 105.841 12.902 L 105.677 13.279 L 105.608 13.477 L 105.546 13.68 L 105.447 14.099 L 105.382 14.534 L 105.349 14.985 L 105.345 15.217 L 105.349 15.449 L 105.382 15.902 L 105.447 16.339 L 105.546 16.76 L 105.608 16.966 L 105.677 17.165 L 105.841 17.545 L 106.038 17.898 L 106.268 18.224 L 106.396 18.377 L 106.531 18.523 L 106.824 18.791 L 107.148 19.027 L 107.504 19.231 L 107.693 19.321 L 107.889 19.402 L 108.304 19.532 L 108.747 19.618 L 109.219 19.661 L 109.466 19.666 L 109.716 19.661 L 110.193 19.618 L 110.639 19.532 L 111.052 19.402 L 111.247 19.321 L 111.434 19.231 L 111.786 19.027 L 112.108 18.791 L 112.401 18.523 L 112.536 18.377 L 112.663 18.224 L 112.893 17.898 L 113.09 17.545 L 113.254 17.165 L 113.324 16.966 L 113.385 16.76 L 113.484 16.339 L 113.55 15.902 L 113.582 15.449 L 113.587 15.217 L 113.582 14.985 L 113.55 14.534 L 113.484 14.099 L 113.385 13.68 L 113.324 13.477 L 113.254 13.279 L 113.09 12.902 L 112.893 12.551 L 112.663 12.226 L 112.536 12.073 L 112.401 11.927 L 112.108 11.661 L 111.786 11.427 L 111.434 11.225 L 111.247 11.137 L 111.052 11.058 L 110.639 10.932 L 110.193 10.848 L 109.716 10.806 L 109.466 10.801 L 109.219 10.806 Z M 51.455 10.815 L 50.757 10.925 L 50.461 11.022 L 50.195 11.145 L 49.743 11.461 L 49.558 11.654 L 49.398 11.869 L 49.156 12.358 L 49.073 12.631 L 49.012 12.922 L 48.942 13.55 L 48.934 13.887 L 48.934 19.469 L 50.329 19.469 L 50.329 13.723 L 50.336 13.531 L 50.394 13.178 L 50.509 12.866 L 50.681 12.595 L 50.789 12.475 L 50.909 12.368 L 51.182 12.195 L 51.498 12.08 L 51.857 12.023 L 52.053 12.016 L 52.362 12.028 L 52.917 12.126 L 53.161 12.213 L 53.385 12.321 L 53.775 12.6 L 53.941 12.771 L 54.087 12.959 L 54.321 13.382 L 54.409 13.616 L 54.477 13.864 L 54.555 14.394 L 54.565 14.675 L 54.565 19.469 L 55.96 19.469 L 55.96 10.981 L 54.647 10.981 L 54.647 12.328 L 54.614 12.328 L 54.5 12.137 L 54.247 11.795 L 53.964 11.506 L 53.65 11.269 L 53.481 11.17 L 53.305 11.083 L 52.93 10.945 L 52.523 10.853 L 52.086 10.806 L 51.856 10.801 L 51.455 10.815 Z M 125.046 10.981 L 125.046 19.469 L 126.442 19.469 L 126.442 10.981 L 125.046 10.981 Z M 85.817 10.815 L 85.119 10.925 L 84.823 11.022 L 84.557 11.145 L 84.105 11.461 L 83.92 11.654 L 83.76 11.869 L 83.518 12.358 L 83.435 12.631 L 83.374 12.922 L 83.305 13.55 L 83.296 13.887 L 83.296 19.469 L 84.691 19.469 L 84.691 13.723 L 84.699 13.531 L 84.756 13.178 L 84.871 12.866 L 85.043 12.595 L 85.151 12.475 L 85.271 12.368 L 85.544 12.195 L 85.86 12.08 L 86.22 12.023 L 86.415 12.016 L 86.725 12.028 L 87.279 12.126 L 87.523 12.213 L 87.748 12.321 L 88.138 12.6 L 88.303 12.771 L 88.45 12.959 L 88.683 13.382 L 88.771 13.616 L 88.839 13.864 L 88.917 14.394 L 88.927 14.675 L 88.927 19.469 L 90.323 19.469 L 90.323 10.981 L 89.009 10.981 L 89.009 12.328 L 88.976 12.328 L 88.862 12.137 L 88.609 11.795 L 88.326 11.506 L 88.012 11.269 L 87.844 11.17 L 87.667 11.083 L 87.292 10.945 L 86.885 10.853 L 86.448 10.806 L 86.218 10.801 L 85.817 10.815 Z M 147.243 10.981 L 147.243 19.469 L 148.638 19.469 L 148.638 10.981 L 147.243 10.981 Z M 58.144 10.981 L 58.144 19.469 L 59.54 19.469 L 59.54 10.981 L 58.144 10.981 Z M 202.284 10.815 L 201.586 10.925 L 201.29 11.022 L 201.024 11.145 L 200.572 11.461 L 200.387 11.654 L 200.227 11.869 L 199.985 12.358 L 199.902 12.631 L 199.841 12.922 L 199.772 13.55 L 199.763 13.887 L 199.763 19.469 L 201.158 19.469 L 201.158 13.723 L 201.166 13.531 L 201.223 13.178 L 201.338 12.866 L 201.51 12.595 L 201.618 12.475 L 201.738 12.368 L 202.011 12.195 L 202.327 12.08 L 202.687 12.023 L 202.882 12.016 L 203.192 12.028 L 203.746 12.126 L 203.99 12.213 L 204.215 12.321 L 204.605 12.6 L 204.77 12.771 L 204.916 12.959 L 205.15 13.382 L 205.238 13.616 L 205.306 13.864 L 205.384 14.394 L 205.394 14.675 L 205.394 19.469 L 206.79 19.469 L 206.79 10.981 L 205.476 10.981 L 205.476 12.328 L 205.443 12.328 L 205.329 12.137 L 205.076 11.795 L 204.793 11.506 L 204.479 11.269 L 204.311 11.17 L 204.134 11.083 L 203.759 10.945 L 203.352 10.853 L 202.915 10.806 L 202.685 10.801 L 202.284 10.815 Z M 119.213 12.033 L 119.812 12.173 L 120.071 12.295 L 120.306 12.445 L 120.709 12.81 L 120.876 13.025 L 121.021 13.259 L 121.247 13.772 L 121.327 14.051 L 121.388 14.34 L 121.458 14.923 L 121.467 15.217 L 121.458 15.526 L 121.384 16.13 L 121.319 16.424 L 121.235 16.706 L 121.001 17.219 L 120.851 17.45 L 120.679 17.661 L 120.265 18.018 L 120.022 18.164 L 119.754 18.283 L 119.139 18.418 L 118.791 18.435 L 118.451 18.417 L 117.852 18.278 L 117.592 18.156 L 117.358 18.005 L 116.964 17.636 L 116.804 17.417 L 116.667 17.179 L 116.453 16.654 L 116.378 16.366 L 116.32 16.069 L 116.254 15.461 L 116.246 15.151 L 116.256 14.857 L 116.334 14.279 L 116.402 13.994 L 116.49 13.718 L 116.728 13.214 L 116.878 12.984 L 117.05 12.774 L 117.46 12.421 L 117.699 12.278 L 117.96 12.163 L 118.547 12.032 L 118.873 12.016 L 119.213 12.033 Z M 43.182 12.033 L 43.782 12.173 L 44.041 12.295 L 44.276 12.445 L 44.678 12.81 L 44.846 13.025 L 44.991 13.259 L 45.217 13.772 L 45.297 14.051 L 45.358 14.34 L 45.428 14.923 L 45.437 15.217 L 45.428 15.526 L 45.354 16.13 L 45.289 16.424 L 45.204 16.706 L 44.97 17.219 L 44.821 17.45 L 44.649 17.661 L 44.235 18.018 L 43.992 18.164 L 43.724 18.283 L 43.109 18.418 L 42.761 18.435 L 42.421 18.417 L 41.822 18.278 L 41.562 18.156 L 41.328 18.005 L 40.934 17.636 L 40.774 17.417 L 40.637 17.179 L 40.423 16.654 L 40.347 16.366 L 40.29 16.069 L 40.224 15.461 L 40.216 15.151 L 40.226 14.857 L 40.304 14.279 L 40.372 13.994 L 40.46 13.718 L 40.698 13.214 L 40.848 12.984 L 41.019 12.774 L 41.43 12.421 L 41.669 12.278 L 41.93 12.163 L 42.517 12.032 L 42.843 12.016 L 43.182 12.033 Z M 235.68 12.033 L 236.279 12.173 L 236.538 12.295 L 236.773 12.445 L 237.176 12.81 L 237.343 13.025 L 237.488 13.259 L 237.714 13.772 L 237.794 14.051 L 237.855 14.34 L 237.925 14.923 L 237.934 15.217 L 237.925 15.526 L 237.851 16.13 L 237.786 16.424 L 237.702 16.706 L 237.468 17.219 L 237.318 17.45 L 237.146 17.661 L 236.732 18.018 L 236.489 18.164 L 236.221 18.283 L 235.606 18.418 L 235.258 18.435 L 234.918 18.417 L 234.319 18.278 L 234.059 18.156 L 233.825 18.005 L 233.431 17.636 L 233.271 17.417 L 233.134 17.179 L 232.92 16.654 L 232.845 16.366 L 232.787 16.069 L 232.721 15.461 L 232.713 15.151 L 232.723 14.857 L 232.801 14.279 L 232.869 13.994 L 232.957 13.718 L 233.195 13.214 L 233.345 12.984 L 233.517 12.774 L 233.927 12.421 L 234.166 12.278 L 234.427 12.163 L 235.014 12.032 L 235.34 12.016 L 235.68 12.033 Z M 109.733 12.029 L 110.246 12.136 L 110.492 12.229 L 110.726 12.348 L 111.149 12.655 L 111.337 12.845 L 111.508 13.058 L 111.791 13.559 L 111.904 13.846 L 111.993 14.157 L 112.096 14.842 L 112.109 15.217 L 112.096 15.592 L 111.993 16.278 L 111.904 16.588 L 111.791 16.876 L 111.508 17.381 L 111.337 17.598 L 111.149 17.79 L 110.726 18.102 L 110.492 18.221 L 110.246 18.315 L 109.733 18.422 L 109.466 18.435 L 109.198 18.422 L 108.685 18.315 L 108.44 18.221 L 108.205 18.102 L 107.782 17.79 L 107.594 17.598 L 107.423 17.381 L 107.14 16.876 L 107.028 16.588 L 106.938 16.278 L 106.835 15.592 L 106.822 15.217 L 106.835 14.842 L 106.938 14.157 L 107.028 13.846 L 107.14 13.559 L 107.423 13.058 L 107.594 12.845 L 107.782 12.655 L 108.205 12.348 L 108.44 12.229 L 108.685 12.136 L 109.198 12.029 L 109.466 12.016 L 109.733 12.029 Z M 134.476 16.281 L 134.366 16.749 L 134.281 16.974 L 134.178 17.188 L 133.924 17.569 L 133.772 17.737 L 133.605 17.889 L 133.227 18.143 L 133.017 18.246 L 132.794 18.329 L 132.313 18.423 L 132.056 18.435 L 131.792 18.423 L 131.304 18.329 L 131.08 18.246 L 130.87 18.143 L 130.496 17.884 L 130.333 17.729 L 130.185 17.558 L 129.939 17.176 L 129.84 16.966 L 129.759 16.744 L 129.652 16.281 L 129.627 16.038 L 134.503 16.038 L 134.476 16.281 Z M 226.2 12.029 L 226.713 12.136 L 226.959 12.229 L 227.193 12.348 L 227.616 12.655 L 227.804 12.845 L 227.975 13.058 L 228.258 13.559 L 228.371 13.846 L 228.46 14.157 L 228.563 14.842 L 228.576 15.217 L 228.563 15.592 L 228.46 16.278 L 228.371 16.588 L 228.258 16.876 L 227.975 17.381 L 227.804 17.598 L 227.616 17.79 L 227.193 18.102 L 226.959 18.221 L 226.713 18.315 L 226.2 18.422 L 225.933 18.435 L 225.665 18.422 L 225.152 18.315 L 224.907 18.221 L 224.672 18.102 L 224.249 17.79 L 224.061 17.598 L 223.89 17.381 L 223.607 16.876 L 223.495 16.588 L 223.405 16.278 L 223.302 15.592 L 223.289 15.217 L 223.302 14.842 L 223.405 14.157 L 223.495 13.846 L 223.607 13.559 L 223.89 13.058 L 224.061 12.845 L 224.249 12.655 L 224.672 12.348 L 224.907 12.229 L 225.152 12.136 L 225.665 12.029 L 225.933 12.016 L 226.2 12.029 Z M 28.883 12.033 L 29.482 12.173 L 29.741 12.295 L 29.976 12.445 L 30.379 12.81 L 30.546 13.025 L 30.691 13.259 L 30.917 13.772 L 30.997 14.051 L 31.058 14.34 L 31.128 14.923 L 31.137 15.217 L 31.128 15.526 L 31.054 16.13 L 30.989 16.424 L 30.905 16.706 L 30.671 17.219 L 30.521 17.45 L 30.349 17.661 L 29.935 18.018 L 29.692 18.164 L 29.424 18.283 L 28.809 18.418 L 28.461 18.435 L 28.121 18.417 L 27.522 18.278 L 27.262 18.156 L 27.028 18.005 L 26.634 17.636 L 26.474 17.417 L 26.337 17.179 L 26.123 16.654 L 26.047 16.366 L 25.99 16.069 L 25.924 15.461 L 25.916 15.151 L 25.926 14.857 L 26.004 14.279 L 26.072 13.994 L 26.16 13.718 L 26.398 13.214 L 26.548 12.984 L 26.72 12.774 L 27.13 12.421 L 27.369 12.278 L 27.63 12.163 L 28.217 12.032 L 28.543 12.016 L 28.883 12.033 Z M 21.95 16.281 L 21.839 16.749 L 21.754 16.974 L 21.652 17.188 L 21.397 17.569 L 21.245 17.737 L 21.078 17.889 L 20.7 18.143 L 20.49 18.246 L 20.267 18.329 L 19.787 18.423 L 19.53 18.435 L 19.265 18.423 L 18.777 18.329 L 18.553 18.246 L 18.343 18.143 L 17.969 17.884 L 17.806 17.729 L 17.658 17.558 L 17.412 17.176 L 17.313 16.966 L 17.232 16.744 L 17.125 16.281 L 17.1 16.038 L 21.976 16.038 L 21.95 16.281 Z M 155.054 12.02 L 155.385 12.055 L 155.687 12.125 L 155.959 12.229 L 156.084 12.295 L 156.314 12.446 L 156.704 12.815 L 156.864 13.033 L 157.001 13.272 L 157.214 13.797 L 157.29 14.084 L 157.348 14.382 L 157.413 14.989 L 157.422 15.299 L 157.412 15.593 L 157.334 16.172 L 157.266 16.457 L 157.177 16.732 L 156.939 17.237 L 156.79 17.466 L 156.618 17.677 L 156.208 18.03 L 155.969 18.172 L 155.708 18.287 L 155.121 18.418 L 154.795 18.435 L 154.455 18.417 L 153.856 18.278 L 153.596 18.156 L 153.361 18.005 L 152.959 17.64 L 152.792 17.425 L 152.647 17.192 L 152.421 16.679 L 152.34 16.399 L 152.279 16.111 L 152.21 15.528 L 152.201 15.233 L 152.21 14.924 L 152.284 14.321 L 152.349 14.027 L 152.433 13.744 L 152.667 13.231 L 152.817 13.001 L 152.988 12.79 L 153.403 12.433 L 153.646 12.286 L 153.913 12.168 L 154.529 12.033 L 154.877 12.016 L 155.054 12.02 Z M 172.678 12.029 L 173.191 12.136 L 173.437 12.229 L 173.672 12.348 L 174.094 12.655 L 174.283 12.845 L 174.454 13.058 L 174.737 13.559 L 174.849 13.846 L 174.939 14.157 L 175.041 14.842 L 175.054 15.217 L 175.041 15.592 L 174.939 16.278 L 174.849 16.588 L 174.737 16.876 L 174.454 17.381 L 174.283 17.598 L 174.094 17.79 L 173.672 18.102 L 173.437 18.221 L 173.191 18.315 L 172.678 18.422 L 172.411 18.435 L 172.144 18.422 L 171.631 18.315 L 171.385 18.221 L 171.15 18.102 L 170.728 17.79 L 170.539 17.598 L 170.369 17.381 L 170.085 16.876 L 169.973 16.588 L 169.883 16.278 L 169.781 15.592 L 169.768 15.217 L 169.781 14.842 L 169.883 14.157 L 169.973 13.846 L 170.085 13.559 L 170.369 13.058 L 170.539 12.845 L 170.728 12.655 L 171.15 12.348 L 171.385 12.229 L 171.631 12.136 L 172.144 12.029 L 172.411 12.016 L 172.678 12.029 Z M 247.299 16.281 L 247.188 16.749 L 247.103 16.974 L 247.001 17.188 L 246.746 17.569 L 246.594 17.737 L 246.427 17.889 L 246.049 18.143 L 245.839 18.246 L 245.616 18.329 L 245.136 18.423 L 244.879 18.435 L 244.614 18.423 L 244.126 18.329 L 243.902 18.246 L 243.692 18.143 L 243.318 17.884 L 243.155 17.729 L 243.007 17.558 L 242.761 17.176 L 242.662 16.966 L 242.581 16.744 L 242.474 16.281 L 242.449 16.038 L 247.325 16.038 L 247.299 16.281 Z M 260.984 10.981 L 260.984 12.804 L 262.807 12.804 L 262.807 10.981 L 260.984 10.981 Z" fill="#181d00" opacity="1.000000"/>
  </g>
  <g transform="matrix(0.565444, 0, 0, -0.565444, 102.199196, 108.014992)" style="">
    <path d="M 34.837891 44.886719 Q 36.625000 46.380859 36.625000 49.164063 Q 36.625000 52.972656 33.783203 54.349609 Q 32.142578 55.140625 28.568359 55.287109 L 28.568359 63.402344 Q 33.988281 63.197266 37.328125 61.439453 Q 43.685547 58.099609 43.685547 49.574219 Q 43.685547 42.835938 39.950195 38.851563 Q 36.214844 34.867188 30.062500 34.867188 Q 25.345703 34.867188 21.683594 37.679688 Q 19.251953 39.525391 16.263672 43.744141 L 13.890625 47.083984 Q 11.664062 50.218750 10.667969 51.375977 Q 9.671875 52.533203 8.353516 53.324219 L 8.353516 34.779297 L 1.000000 34.779297 L 1.000000 63.871094 Q 5.570312 63.753906 9.349609 61.908203 Q 13.597656 60.121094 18.343750 53.470703 Q 22.474609 47.699219 24.261719 46.000000 Q 27.044922 43.392578 30.355469 43.392578 Q 33.050781 43.392578 34.837891 44.886719 Z M 16.673828 1.000000 L 10.140625 1.000000 L 10.140625 5.804688 L 1.000000 5.804688 L 1.000000 13.978516 L 10.140625 13.978516 L 10.140625 30.794922 L 17.435547 30.794922 L 43.216797 15.179688 L 43.216797 5.804688 L 16.673828 5.804688 Z M 16.673828 24.613281 L 16.673828 13.978516 L 35.013672 13.978516 Z" transform="scale(1.000000,1.000000) translate(209.960897,32.043064)" fill="#000000" opacity="1.000000"/>
    <path d="M 248.153 76.837 C 249.344 77.833 249.94 79.259 249.94 81.115 C 249.94 83.654 248.993 85.382 247.098 86.3 C 246.004 86.828 244.266 87.14 241.883 87.238 L 241.883 95.353 C 245.497 95.216 248.417 94.562 250.643 93.39 C 254.881 91.163 257 87.208 257 81.525 C 257 77.033 255.755 73.458 253.265 70.802 C 250.775 68.146 247.479 66.818 243.377 66.818 C 240.233 66.818 237.44 67.755 234.999 69.63 C 233.377 70.861 231.571 72.882 229.579 75.695 L 227.206 79.035 C 225.721 81.124 224.647 82.555 223.983 83.327 C 223.319 84.098 222.547 84.747 221.668 85.275 L 221.668 66.73 L 214.315 66.73 L 214.315 95.822 C 217.362 95.744 220.145 95.089 222.665 93.859 C 225.497 92.667 228.495 89.855 231.659 85.421 C 234.413 81.574 236.385 79.083 237.577 77.951 C 239.432 76.212 241.463 75.343 243.67 75.343 C 245.467 75.343 246.961 75.841 248.153 76.837 Z M 229.989 32.951 L 223.456 32.951 L 223.456 37.755 L 214.315 37.755 L 214.315 45.929 L 223.456 45.929 L 223.456 62.746 L 230.75 62.746 L 256.532 47.13 L 256.532 37.755 L 229.989 37.755 Z M 229.989 56.564 L 229.989 45.929 L 248.329 45.929 Z" fill="#ffffff" opacity="1.000000"/>
    <path d="M 1.000000 48.700000 L 1.000000 2.170000 L 13.780000 2.170000 L 13.780000 23.140000 Q 13.780000 26.290000 14.410000 28.990000 Q 15.040000 31.690000 16.525000 33.715000 Q 18.010000 35.740000 20.440000 36.910000 Q 22.870000 38.080000 26.380000 38.080000 Q 27.550000 38.080000 28.810000 37.945000 Q 30.070000 37.810000 30.970000 37.630000 L 30.970000 49.510000 Q 29.440000 49.960000 28.180000 49.960000 Q 25.750000 49.960000 23.500000 49.240000 Q 21.250000 48.520000 19.270000 47.215000 Q 17.290000 45.910000 15.760000 44.065000 Q 14.230000 42.220000 13.330000 40.060000 L 13.150000 40.060000 L 13.150000 48.700000 Z M 47.350000 25.390000 Q 47.350000 28.180000 47.890000 30.880000 Q 48.430000 33.580000 49.735000 35.650000 Q 51.040000 37.720000 53.200000 39.025000 Q 55.360000 40.330000 58.600000 40.330000 Q 61.840000 40.330000 64.045000 39.025000 Q 66.250000 37.720000 67.555000 35.650000 Q 68.860000 33.580000 69.400000 30.880000 Q 69.940000 28.180000 69.940000 25.390000 Q 69.940000 22.600000 69.400000 19.945000 Q 68.860000 17.290000 67.555000 15.175000 Q 66.250000 13.060000 64.045000 11.800000 Q 61.840000 10.540000 58.600000 10.540000 Q 55.360000 10.540000 53.200000 11.800000 Q 51.040000 13.060000 49.735000 15.175000 Q 48.430000 17.290000 47.890000 19.945000 Q 47.350000 22.600000 47.350000 25.390000 Z M 34.570000 25.390000 Q 34.570000 19.810000 36.280000 15.310000 Q 37.990000 10.810000 41.140000 7.615000 Q 44.290000 4.420000 48.700000 2.710000 Q 53.110000 1.000000 58.600000 1.000000 Q 64.090000 1.000000 68.545000 2.710000 Q 73.000000 4.420000 76.150000 7.615000 Q 79.300000 10.810000 81.010000 15.310000 Q 82.720000 19.810000 82.720000 25.390000 Q 82.720000 30.970000 81.010000 35.515000 Q 79.300000 40.060000 76.150000 43.255000 Q 73.000000 46.450000 68.545000 48.205000 Q 64.090000 49.960000 58.600000 49.960000 Q 53.110000 49.960000 48.700000 48.205000 Q 44.290000 46.450000 41.140000 43.255000 Q 37.990000 40.060000 36.280000 35.515000 Q 34.570000 30.970000 34.570000 25.390000 Z M 102.340000 25.390000 Q 102.340000 28.180000 102.880000 30.880000 Q 103.420000 33.580000 104.725000 35.650000 Q 106.030000 37.720000 108.190000 39.025000 Q 110.350000 40.330000 113.590000 40.330000 Q 116.830000 40.330000 119.035000 39.025000 Q 121.240000 37.720000 122.545000 35.650000 Q 123.850000 33.580000 124.390000 30.880000 Q 124.930000 28.180000 124.930000 25.390000 Q 124.930000 22.600000 124.390000 19.945000 Q 123.850000 17.290000 122.545000 15.175000 Q 121.240000 13.060000 119.035000 11.800000 Q 116.830000 10.540000 113.590000 10.540000 Q 110.350000 10.540000 108.190000 11.800000 Q 106.030000 13.060000 104.725000 15.175000 Q 103.420000 17.290000 102.880000 19.945000 Q 102.340000 22.600000 102.340000 25.390000 Z M 89.560000 25.390000 Q 89.560000 19.810000 91.270000 15.310000 Q 92.980000 10.810000 96.130000 7.615000 Q 99.280000 4.420000 103.690000 2.710000 Q 108.100000 1.000000 113.590000 1.000000 Q 119.080000 1.000000 123.535000 2.710000 Q 127.990000 4.420000 131.140000 7.615000 Q 134.290000 10.810000 136.000000 15.310000 Q 137.710000 19.810000 137.710000 25.390000 Q 137.710000 30.970000 136.000000 35.515000 Q 134.290000 40.060000 131.140000 43.255000 Q 127.990000 46.450000 123.535000 48.205000 Q 119.080000 49.960000 113.590000 49.960000 Q 108.100000 49.960000 103.690000 48.205000 Q 99.280000 46.450000 96.130000 43.255000 Q 92.980000 40.060000 91.270000 35.515000 Q 89.560000 30.970000 89.560000 25.390000 Z M 162.190000 48.700000 L 162.190000 62.650000 L 149.410000 62.650000 L 149.410000 48.700000 L 141.670000 48.700000 L 141.670000 40.150000 L 149.410000 40.150000 L 149.410000 12.700000 Q 149.410000 9.190000 150.580000 7.030000 Q 151.750000 4.870000 153.775000 3.700000 Q 155.800000 2.530000 158.455000 2.125000 Q 161.110000 1.720000 164.080000 1.720000 Q 165.970000 1.720000 167.950000 1.810000 Q 169.930000 1.900000 171.550000 2.170000 L 171.550000 12.070000 Q 170.650000 11.890000 169.660000 11.800000 Q 168.670000 11.710000 167.590000 11.710000 Q 164.350000 11.710000 163.270000 12.790000 Q 162.190000 13.870000 162.190000 17.110000 L 162.190000 40.150000 L 171.550000 40.150000 L 171.550000 48.700000 Z" transform="scale(1.000000,1.000000) translate(21.556879,32.042980)" fill="#000000" opacity="1.000000"/>
    <path d="M 18.644 80.651 L 18.644 34.121 L 31.424 34.121 L 31.424 55.091 C 31.424 57.191 31.634 59.141 32.054 60.941 C 32.474 62.741 33.179 64.316 34.169 65.666 C 35.159 67.016 36.464 68.081 38.084 68.861 C 39.704 69.641 41.684 70.031 44.024 70.031 C 44.804 70.031 45.614 69.986 46.454 69.896 C 47.294 69.806 48.014 69.701 48.614 69.581 L 48.614 81.461 C 47.594 81.761 46.664 81.911 45.824 81.911 C 44.204 81.911 42.644 81.671 41.144 81.191 C 39.644 80.711 38.234 80.036 36.914 79.166 C 35.594 78.296 34.424 77.246 33.404 76.016 C 32.384 74.786 31.574 73.451 30.974 72.011 L 30.794 72.011 L 30.794 80.651 Z M 64.994 57.341 C 64.994 59.201 65.174 61.031 65.534 62.831 C 65.894 64.631 66.509 66.221 67.379 67.601 C 68.249 68.981 69.404 70.106 70.844 70.976 C 72.284 71.846 74.084 72.281 76.244 72.281 C 78.404 72.281 80.219 71.846 81.689 70.976 C 83.159 70.106 84.329 68.981 85.199 67.601 C 86.069 66.221 86.684 64.631 87.044 62.831 C 87.404 61.031 87.584 59.201 87.584 57.341 C 87.584 55.481 87.404 53.666 87.044 51.896 C 86.684 50.126 86.069 48.536 85.199 47.126 C 84.329 45.716 83.159 44.591 81.689 43.751 C 80.219 42.911 78.404 42.491 76.244 42.491 C 74.084 42.491 72.284 42.911 70.844 43.751 C 69.404 44.591 68.249 45.716 67.379 47.126 C 66.509 48.536 65.894 50.126 65.534 51.896 C 65.174 53.666 64.994 55.481 64.994 57.341 Z M 52.214 57.341 C 52.214 53.621 52.784 50.261 53.924 47.261 C 55.064 44.261 56.684 41.696 58.784 39.566 C 60.884 37.436 63.404 35.801 66.344 34.661 C 69.284 33.521 72.584 32.951 76.244 32.951 C 79.904 32.951 83.219 33.521 86.189 34.661 C 89.159 35.801 91.694 37.436 93.794 39.566 C 95.894 41.696 97.514 44.261 98.654 47.261 C 99.794 50.261 100.364 53.621 100.364 57.341 C 100.364 61.061 99.794 64.436 98.654 67.466 C 97.514 70.496 95.894 73.076 93.794 75.206 C 91.694 77.336 89.159 78.986 86.189 80.156 C 83.219 81.326 79.904 81.911 76.244 81.911 C 72.584 81.911 69.284 81.326 66.344 80.156 C 63.404 78.986 60.884 77.336 58.784 75.206 C 56.684 73.076 55.064 70.496 53.924 67.466 C 52.784 64.436 52.214 61.061 52.214 57.341 Z M 119.984 57.341 C 119.984 59.201 120.164 61.031 120.524 62.831 C 120.884 64.631 121.499 66.221 122.369 67.601 C 123.239 68.981 124.394 70.106 125.834 70.976 C 127.274 71.846 129.074 72.281 131.234 72.281 C 133.394 72.281 135.209 71.846 136.679 70.976 C 138.149 70.106 139.319 68.981 140.189 67.601 C 141.059 66.221 141.674 64.631 142.034 62.831 C 142.394 61.031 142.574 59.201 142.574 57.341 C 142.574 55.481 142.394 53.666 142.034 51.896 C 141.674 50.126 141.059 48.536 140.189 47.126 C 139.319 45.716 138.149 44.591 136.679 43.751 C 135.209 42.911 133.394 42.491 131.234 42.491 C 129.074 42.491 127.274 42.911 125.834 43.751 C 124.394 44.591 123.239 45.716 122.369 47.126 C 121.499 48.536 120.884 50.126 120.524 51.896 C 120.164 53.666 119.984 55.481 119.984 57.341 Z M 107.204 57.341 C 107.204 53.621 107.774 50.261 108.914 47.261 C 110.054 44.261 111.674 41.696 113.774 39.566 C 115.874 37.436 118.394 35.801 121.334 34.661 C 124.274 33.521 127.574 32.951 131.234 32.951 C 134.894 32.951 138.209 33.521 141.179 34.661 C 144.149 35.801 146.684 37.436 148.784 39.566 C 150.884 41.696 152.504 44.261 153.644 47.261 C 154.784 50.261 155.354 53.621 155.354 57.341 C 155.354 61.061 154.784 64.436 153.644 67.466 C 152.504 70.496 150.884 73.076 148.784 75.206 C 146.684 77.336 144.149 78.986 141.179 80.156 C 138.209 81.326 134.894 81.911 131.234 81.911 C 127.574 81.911 124.274 81.326 121.334 80.156 C 118.394 78.986 115.874 77.336 113.774 75.206 C 111.674 73.076 110.054 70.496 108.914 67.466 C 107.774 64.436 107.204 61.061 107.204 57.341 Z M 179.834 80.651 L 179.834 94.601 L 167.054 94.601 L 167.054 80.651 L 159.314 80.651 L 159.314 72.101 L 167.054 72.101 L 167.054 44.651 C 167.054 42.311 167.444 40.421 168.224 38.981 C 169.004 37.541 170.069 36.431 171.419 35.651 C 172.769 34.871 174.329 34.346 176.099 34.076 C 177.869 33.806 179.744 33.671 181.724 33.671 C 182.984 33.671 184.274 33.701 185.594 33.761 C 186.914 33.821 188.114 33.941 189.194 34.121 L 189.194 44.021 C 188.594 43.901 187.964 43.811 187.304 43.751 C 186.644 43.691 185.954 43.661 185.234 43.661 C 183.074 43.661 181.634 44.021 180.914 44.741 C 180.194 45.461 179.834 46.901 179.834 49.061 L 179.834 72.101 L 189.194 72.101 L 189.194 80.651 Z" fill="#ffffff" opacity="1.000000" style=""/>
  </g>
</svg>