<?xml version="1.0" encoding="UTF-8" standalone="yes"?>
<!DOCTYPE svg PUBLIC "-//W3C//DTD SVG 1.1//EN" "http://www.w3.org/Graphics/SVG/1.1/DTD/svg11.dtd">

<svg width="271" height="99" viewBox="0 0 271 99" xmlns="http://www.w3.org/2000/svg" xmlns:xlink="http://www.w3.org/1999/xlink" version="1.1" baseProfile="full">
    <g transform="scale(1.000000,-1.000000) translate(0,-99)">
        <path d="M 271.450000 30.999900 L 1.000000 31.000000 L 1.000000 0.999900 L 271.450000 0.999900 Z M 10.598600 11.357600 L 10.119400 11.388400 L 9.653500 11.449900 L 9.201000 11.542300 L 8.979800 11.600000 L 8.763500 11.665600 L 8.351000 11.820500 L 7.965200 12.007200 L 7.606100 12.225800 L 7.436500 12.347000 L 7.274600 12.476600 L 6.977100 12.761800 L 6.714400 13.082000 L 6.486600 13.437000 L 6.385800 13.627600 L 6.295300 13.827000 L 6.150700 14.252900 L 6.054200 14.714600 L 6.006000 15.212300 L 6.000000 15.474600 L 7.477500 15.474600 L 7.482000 15.293100 L 7.517900 14.949300 L 7.589800 14.631300 L 7.697500 14.338800 L 7.764900 14.202200 L 7.919800 13.947200 L 8.297400 13.508100 L 8.520100 13.323900 L 8.763800 13.162800 L 9.309700 12.908300 L 9.611800 12.814900 L 9.925800 12.743100 L 10.566100 12.661000 L 10.892400 12.650700 L 11.155600 12.656900 L 11.685100 12.706200 L 11.951400 12.749300 L 12.211500 12.807200 L 12.691700 12.975500 L 12.911800 13.085800 L 13.115000 13.215600 L 13.459700 13.539900 L 13.601300 13.734300 L 13.716300 13.953900 L 13.847600 14.479300 L 13.864000 14.785000 L 13.844000 15.074400 L 13.683900 15.566900 L 13.543900 15.770100 L 13.370500 15.950200 L 12.943600 16.258000 L 12.690200 16.385800 L 12.414600 16.499100 L 11.811300 16.692100 L 11.483500 16.771600 L 10.804200 16.921400 L 10.112600 17.075300 L 9.765200 17.156400 L 9.079800 17.337000 L 8.741700 17.436500 L 8.413900 17.547300 L 7.810500 17.818200 L 7.535000 17.978300 L 7.281600 18.158900 L 6.854700 18.593900 L 6.681300 18.848400 L 6.606200 18.986000 L 6.486200 19.286700 L 6.406200 19.621200 L 6.366100 19.989600 L 6.361100 20.186500 L 6.366800 20.404400 L 6.411900 20.817900 L 6.502200 21.201700 L 6.637700 21.555700 L 6.722300 21.721500 L 6.816300 21.880000 L 7.026700 22.175600 L 7.266800 22.442300 L 7.536700 22.680400 L 7.682800 22.788700 L 7.992600 22.984600 L 8.674000 23.296600 L 9.045400 23.412500 L 9.429700 23.502300 L 10.213600 23.604900 L 10.613300 23.617800 L 11.056600 23.604400 L 11.893900 23.497700 L 12.287900 23.404300 L 12.477900 23.347100 L 12.840100 23.209600 L 13.178700 23.041300 L 13.493700 22.842300 L 13.642400 22.731200 L 13.784200 22.612600 L 14.044900 22.352900 L 14.274700 22.063600 L 14.473800 21.744500 L 14.561800 21.573800 L 14.641200 21.395100 L 14.771500 21.012300 L 14.863800 20.595700 L 14.918200 20.145300 L 14.931200 19.907400 L 13.453600 19.907400 L 13.410600 20.212500 L 13.263900 20.757400 L 13.036100 21.215000 L 12.727200 21.585400 L 12.542400 21.737900 L 12.340600 21.870700 L 11.896300 22.083100 L 11.397600 22.224700 L 10.844600 22.295500 L 10.547600 22.304300 L 10.302400 22.298200 L 9.818100 22.248900 L 9.579000 22.205800 L 9.347600 22.148400 L 8.924900 21.984200 L 8.733500 21.877500 L 8.558000 21.752800 L 8.262500 21.445000 L 8.142500 21.261800 L 8.045500 21.057100 L 7.934700 20.576900 L 7.920800 20.301400 L 7.940800 20.043300 L 8.100900 19.604100 L 8.241000 19.423000 L 8.414400 19.262400 L 8.841200 18.987500 L 9.094700 18.873000 L 9.370200 18.770900 L 9.973500 18.594500 L 10.301400 18.520100 L 10.980700 18.374400 L 11.672300 18.216300 L 12.019600 18.130700 L 12.705000 17.937700 L 13.043100 17.830500 L 13.371000 17.710000 L 13.974300 17.410300 L 14.249800 17.231300 L 14.503300 17.030200 L 14.930100 16.554000 L 15.103600 16.279100 L 15.178600 16.130800 L 15.298600 15.806500 L 15.378700 15.445300 L 15.418700 15.047200 L 15.423700 14.834300 L 15.417200 14.604600 L 15.364800 14.170500 L 15.260200 13.770400 L 15.103200 13.404000 L 15.005000 13.233600 L 14.896700 13.071200 L 14.657600 12.769500 L 14.388700 12.498600 L 14.090100 12.258500 L 13.929700 12.150000 L 13.763100 12.048900 L 13.415200 11.868300 L 13.047900 11.716500 L 12.661000 11.593300 L 12.460300 11.542600 L 12.054500 11.459900 L 11.245900 11.365500 L 10.843200 11.353700 Z M 262.214200 14.473100 L 262.214200 15.244700 L 262.242400 15.576700 L 262.369600 16.163600 L 262.468700 16.418600 L 262.585600 16.654100 L 262.856500 17.085100 L 263.010400 17.280500 L 263.172600 17.465700 L 263.509100 17.814600 L 263.683600 17.978300 L 263.857000 18.140400 L 264.185300 18.477000 L 264.340300 18.651400 L 264.484400 18.832500 L 264.726600 19.222400 L 264.824600 19.431200 L 264.901600 19.656000 L 264.975400 20.173100 L 264.972400 20.465600 L 264.948900 20.685100 L 264.859600 21.087400 L 264.713900 21.440400 L 264.511800 21.744100 L 264.389500 21.877500 L 264.254500 21.996800 L 263.949700 22.187600 L 263.598800 22.314900 L 263.201700 22.378500 L 262.985800 22.386400 L 262.700600 22.373100 L 262.191600 22.266400 L 261.967900 22.173000 L 261.763200 22.057000 L 261.406100 21.769700 L 261.253800 21.598400 L 261.119800 21.409600 L 260.910500 20.982700 L 260.835100 20.744700 L 260.777600 20.493300 L 260.712000 19.959700 L 260.703800 19.677500 L 259.308300 19.677500 L 259.308400 19.885000 L 259.334000 20.289300 L 259.393600 20.679200 L 259.486900 21.054800 L 259.546300 21.237200 L 259.613400 21.414800 L 259.768300 21.752400 L 259.951000 22.066400 L 260.161300 22.356800 L 260.276900 22.493100 L 260.399300 22.622800 L 260.664000 22.859800 L 260.955400 23.067100 L 261.273500 23.244600 L 261.442600 23.322200 L 261.617500 23.391500 L 261.982800 23.502300 L 262.368600 23.576200 L 262.775000 23.613100 L 262.985800 23.617800 L 263.362900 23.603900 L 264.064800 23.493100 L 264.389500 23.396100 L 264.694800 23.273000 L 265.240700 22.952800 L 265.481300 22.755800 L 265.698300 22.534700 L 266.055400 22.021600 L 266.195500 21.729700 L 266.255100 21.575000 L 266.350500 21.248700 L 266.414200 20.899900 L 266.446000 20.528400 L 266.450000 20.334200 L 266.442300 20.086400 L 266.380700 19.630800 L 266.326800 19.423000 L 266.260600 19.226500 L 266.100600 18.861200 L 266.006700 18.692400 L 265.904600 18.531400 L 265.678800 18.227600 L 265.555200 18.085000 L 265.298700 17.810000 L 265.038000 17.543200 L 264.777400 17.294900 L 264.520900 17.042500 L 264.278700 16.779800 L 264.061200 16.500700 L 263.963700 16.354000 L 263.799500 16.042000 L 263.732800 15.876800 L 263.679000 15.702900 L 263.617400 15.321200 L 263.609700 15.113400 L 263.609700 14.473100 Z M 148.242700 21.631200 L 148.242700 23.338700 L 149.638200 23.338700 L 149.638200 21.631200 Z M 29.103600 11.441500 L 28.642900 11.486600 L 28.214000 11.576900 L 27.816900 11.712400 L 27.630200 11.797000 L 27.451400 11.891200 L 27.116900 12.102500 L 26.813200 12.344700 L 26.540300 12.617700 L 26.415300 12.765700 L 26.298000 12.920600 L 26.085600 13.249000 L 25.902900 13.601900 L 25.750000 13.979500 L 25.684700 14.177600 L 25.627000 14.380200 L 25.534700 14.794800 L 25.473100 15.221600 L 25.442300 15.660800 L 25.438500 15.885000 L 25.442200 16.109200 L 25.472000 16.548400 L 25.531500 16.975300 L 25.620700 17.389800 L 25.676500 17.592500 L 25.739900 17.790400 L 25.889700 18.167000 L 26.070300 18.517900 L 26.281700 18.843200 L 26.398900 18.996200 L 26.523800 19.142100 L 26.796800 19.411000 L 27.100500 19.649000 L 27.435000 19.856300 L 27.613800 19.948400 L 27.800200 20.031100 L 28.195200 20.163500 L 28.620000 20.251700 L 29.074600 20.295900 L 29.313000 20.301400 L 29.653700 20.285000 L 30.019000 20.235700 L 30.207800 20.197200 L 30.585400 20.086400 L 30.774200 20.014100 L 30.960500 19.929900 L 31.317500 19.724700 L 31.488400 19.603600 L 31.650000 19.468700 L 31.933200 19.152700 L 32.054800 18.971500 L 32.087600 18.971500 L 32.087600 23.338700 L 33.483100 23.338700 L 33.483100 11.616400 L 32.087600 11.616400 L 32.087600 12.765700 L 32.054800 12.765700 L 31.962500 12.595300 L 31.740800 12.291600 L 31.469900 12.037100 L 31.149800 11.831900 L 30.971200 11.747800 L 30.784200 11.674700 L 30.396400 11.557700 L 29.990000 11.479700 L 29.565200 11.440700 L 29.345900 11.435800 Z M 126.046000 21.631200 L 126.046000 23.338700 L 127.441500 23.338700 L 127.441500 21.631200 Z M 119.433600 11.441500 L 118.972900 11.486600 L 118.544000 11.576900 L 118.146900 11.712400 L 117.960300 11.797000 L 117.781500 11.891200 L 117.447000 12.102500 L 117.143300 12.344700 L 116.870300 12.617700 L 116.745400 12.765700 L 116.628000 12.920600 L 116.415600 13.249000 L 116.233000 13.601900 L 116.080100 13.979500 L 116.014800 14.177600 L 115.957100 14.380200 L 115.864700 14.794800 L 115.803200 15.221600 L 115.772400 15.660800 L 115.768500 15.885000 L 115.772200 16.109200 L 115.802000 16.548400 L 115.861500 16.975300 L 115.950800 17.389800 L 116.006600 17.592500 L 116.069900 17.790400 L 116.219800 18.167000 L 116.400400 18.517900 L 116.611700 18.843200 L 116.729000 18.996200 L 116.853900 19.142100 L 117.126800 19.411000 L 117.430600 19.649000 L 117.765100 19.856300 L 117.943900 19.948400 L 118.130200 20.031100 L 118.525300 20.163500 L 118.950100 20.251700 L 119.404700 20.295900 L 119.643100 20.301400 L 119.983800 20.285000 L 120.349100 20.235700 L 120.537900 20.197200 L 120.915500 20.086400 L 121.104300 20.014100 L 121.290500 19.929900 L 121.647600 19.724700 L 121.818400 19.603600 L 121.980100 19.468700 L 122.263300 19.152700 L 122.384800 18.971500 L 122.417700 18.971500 L 122.417700 23.338700 L 123.813200 23.338700 L 123.813200 11.616400 L 122.417700 11.616400 L 122.417700 12.765700 L 122.384800 12.765700 L 122.292500 12.595300 L 122.070900 12.291600 L 121.800000 12.037100 L 121.479800 11.831900 L 121.301300 11.747800 L 121.114300 11.674700 L 120.726400 11.557700 L 120.320100 11.479700 L 119.895300 11.440700 L 119.675900 11.435800 Z M 235.900600 11.441500 L 235.439900 11.486600 L 235.011000 11.576900 L 234.613900 11.712400 L 234.427300 11.797000 L 234.248500 11.891200 L 233.914000 12.102500 L 233.610200 12.344700 L 233.337300 12.617700 L 233.212400 12.765700 L 233.095000 12.920600 L 232.882600 13.249000 L 232.700000 13.601900 L 232.547100 13.979500 L 232.481800 14.177600 L 232.424100 14.380200 L 232.331700 14.794800 L 232.270100 15.221600 L 232.239400 15.660800 L 232.235500 15.885000 L 232.239200 16.109200 L 232.269000 16.548400 L 232.328500 16.975300 L 232.417800 17.389800 L 232.473600 17.592500 L 232.536900 17.790400 L 232.686700 18.167000 L 232.867300 18.517900 L 233.078700 18.843200 L 233.195900 18.996200 L 233.320900 19.142100 L 233.593800 19.411000 L 233.897500 19.649000 L 234.232100 19.856300 L 234.410900 19.948400 L 234.597200 20.031100 L 234.992300 20.163500 L 235.417100 20.251700 L 235.871600 20.295900 L 236.110100 20.301400 L 236.450800 20.285000 L 236.816000 20.235700 L 237.004800 20.197200 L 237.382500 20.086400 L 237.571300 20.014100 L 237.757500 19.929900 L 238.114600 19.724700 L 238.285400 19.603600 L 238.447000 19.468700 L 238.730200 19.152700 L 238.851800 18.971500 L 238.884700 18.971500 L 238.884700 23.338700 L 240.280200 23.338700 L 240.280200 11.616400 L 238.884700 11.616400 L 238.884700 12.765700 L 238.851800 12.765700 L 238.759500 12.595300 L 238.537800 12.291600 L 238.267000 12.037100 L 237.946800 11.831900 L 237.768300 11.747800 L 237.581300 11.674700 L 237.193400 11.557700 L 236.787100 11.479700 L 236.362300 11.440700 L 236.142900 11.435800 Z M 59.144000 21.631200 L 59.144000 23.338700 L 60.539500 23.338700 L 60.539500 21.631200 Z M 104.194100 11.616400 L 103.932900 11.621000 L 103.469100 11.658000 L 103.266500 11.690300 L 103.082800 11.734900 L 102.770900 11.870400 L 102.642600 11.961200 L 102.531300 12.070000 L 102.354800 12.349100 L 102.289600 12.519400 L 102.239300 12.714400 L 102.181900 13.190500 L 102.174700 13.471600 L 102.174700 18.873000 L 100.729900 18.873000 L 100.729900 20.104400 L 102.174700 20.104400 L 102.174700 22.649100 L 103.570200 22.649100 L 103.570200 20.104400 L 105.261200 20.104400 L 105.261200 18.873000 L 103.570200 18.873000 L 103.570200 13.603000 L 103.580500 13.381300 L 103.611200 13.208900 L 103.670800 13.077600 L 103.767200 12.979100 L 103.904700 12.911400 L 104.087400 12.872400 L 104.323400 12.853900 L 104.620900 12.847800 L 105.261200 12.847800 L 105.261200 11.616400 Z M 220.661100 11.616400 L 220.399900 11.621000 L 219.936100 11.658000 L 219.733500 11.690300 L 219.549800 11.734900 L 219.237800 11.870400 L 219.109600 11.961200 L 218.998300 12.070000 L 218.821800 12.349100 L 218.756600 12.519400 L 218.706300 12.714400 L 218.648900 13.190500 L 218.641700 13.471600 L 218.641700 18.873000 L 217.196900 18.873000 L 217.196900 20.104400 L 218.641700 20.104400 L 218.641700 22.649100 L 220.037200 22.649100 L 220.037200 20.104400 L 221.728200 20.104400 L 221.728200 18.873000 L 220.037200 18.873000 L 220.037200 13.603000 L 220.047400 13.381300 L 220.078200 13.208900 L 220.137700 13.077600 L 220.234200 12.979100 L 220.371700 12.911400 L 220.554300 12.872400 L 220.790300 12.853900 L 221.087900 12.847800 L 221.728200 12.847800 L 221.728200 11.616400 Z M 140.986100 11.616400 L 140.724900 11.621000 L 140.261100 11.658000 L 140.058500 11.690300 L 139.874800 11.734900 L 139.562900 11.870400 L 139.434600 11.961200 L 139.323300 12.070000 L 139.146800 12.349100 L 139.081600 12.519400 L 139.031300 12.714400 L 138.973900 13.190500 L 138.966700 13.471600 L 138.966700 18.873000 L 137.521900 18.873000 L 137.521900 20.104400 L 138.966700 20.104400 L 138.966700 22.649100 L 140.362200 22.649100 L 140.362200 20.104400 L 142.053200 20.104400 L 142.053200 18.873000 L 140.362200 18.873000 L 140.362200 13.603000 L 140.372500 13.381300 L 140.403200 13.208900 L 140.462800 13.077600 L 140.559200 12.979100 L 140.696700 12.911400 L 140.879400 12.872400 L 141.115400 12.853900 L 141.412900 12.847800 L 142.053200 12.847800 L 142.053200 11.616400 Z M 132.970300 11.441000 L 132.495200 11.482000 L 132.054000 11.564100 L 131.646600 11.687200 L 131.455600 11.764200 L 131.272600 11.850400 L 130.928800 12.047400 L 130.614900 12.277200 L 130.330600 12.539900 L 130.199700 12.683600 L 130.076400 12.834900 L 129.853700 13.159200 L 129.662900 13.512200 L 129.503800 13.893900 L 129.436200 14.095500 L 129.376100 14.303000 L 129.276600 14.731900 L 129.204700 15.179300 L 129.160600 15.645200 L 129.148900 15.885000 L 129.153500 16.124600 L 129.190500 16.588400 L 129.264400 17.031700 L 129.375200 17.454500 L 129.444500 17.658100 L 129.522000 17.855900 L 129.699600 18.231500 L 129.906800 18.580300 L 130.143900 18.902500 L 130.273500 19.053600 L 130.410000 19.197300 L 130.701400 19.460000 L 131.017500 19.689800 L 131.358100 19.886800 L 131.537700 19.973000 L 131.722500 20.050000 L 132.105300 20.173100 L 132.505400 20.255200 L 132.923100 20.296300 L 133.138400 20.301400 L 133.415600 20.294100 L 133.933800 20.235600 L 134.403700 20.118600 L 134.825500 19.943100 L 135.018300 19.833500 L 135.200400 19.712500 L 135.536900 19.446800 L 135.836600 19.149200 L 136.099300 18.819800 L 136.216700 18.643200 L 136.325300 18.460500 L 136.516100 18.082900 L 136.672100 17.688900 L 136.793200 17.278500 L 136.840600 17.067100 L 136.914000 16.645400 L 136.983800 15.832700 L 136.980200 15.441700 L 130.626500 15.441700 L 130.628600 15.166200 L 130.694200 14.636800 L 130.757900 14.382800 L 130.843000 14.139600 L 131.081100 13.696300 L 131.234000 13.496300 L 131.409400 13.313100 L 131.828100 13.005300 L 132.071300 12.880600 L 132.337000 12.780000 L 132.936300 12.665100 L 133.269800 12.650700 L 133.486400 12.657200 L 133.889700 12.708500 L 134.252900 12.811100 L 134.576100 12.965000 L 134.722700 13.061200 L 134.858300 13.170500 L 135.093300 13.429000 L 135.280000 13.741000 L 135.418600 14.106300 L 135.469700 14.308900 L 136.848800 14.308900 L 136.768500 13.962900 L 136.544800 13.337000 L 136.237000 12.799300 L 135.845000 12.349800 L 135.617500 12.158200 L 135.371700 11.988900 L 134.834100 11.718000 L 134.234800 11.537400 L 133.574000 11.447100 L 133.220500 11.435800 Z M 253.952000 11.445100 L 253.278900 11.519000 L 252.954600 11.583600 L 252.643700 11.669300 L 252.077300 11.911400 L 251.821800 12.067900 L 251.587800 12.249500 L 251.193800 12.692800 L 251.033800 12.954500 L 250.964000 13.095700 L 250.849100 13.400400 L 250.767000 13.735000 L 250.717700 14.099200 L 250.705400 14.292500 L 252.100900 14.292500 L 252.120400 14.071400 L 252.227100 13.681500 L 252.314300 13.512700 L 252.420500 13.360800 L 252.679100 13.106300 L 252.831500 13.003700 L 252.996700 12.916000 L 253.357900 12.780500 L 253.553900 12.732800 L 253.756500 12.696900 L 254.171100 12.655900 L 254.383000 12.650700 L 254.719500 12.663100 L 255.072500 12.700000 L 255.249500 12.729800 L 255.582000 12.820100 L 255.737400 12.880600 L 255.882600 12.954000 L 256.133000 13.146900 L 256.238200 13.266400 L 256.324300 13.402400 L 256.422900 13.726600 L 256.435200 13.914900 L 256.428800 14.046200 L 256.377400 14.284300 L 256.274800 14.489500 L 256.120900 14.661900 L 256.024700 14.735800 L 255.806700 14.868700 L 255.293600 15.094400 L 254.998600 15.187300 L 254.684100 15.271400 L 254.015100 15.427400 L 253.660600 15.499200 L 253.306100 15.576200 L 252.637000 15.773200 L 252.322500 15.893200 L 252.027500 16.033300 L 251.514500 16.390400 L 251.296400 16.607400 L 251.200200 16.728000 L 251.046300 17.003000 L 250.943700 17.323100 L 250.892400 17.688400 L 250.886000 17.888000 L 250.904000 18.196800 L 251.047600 18.746800 L 251.173300 18.988000 L 251.327200 19.207000 L 251.696600 19.580500 L 251.912100 19.735000 L 252.145000 19.869400 L 252.654000 20.082800 L 252.930000 20.161800 L 253.212700 20.222900 L 253.775000 20.292700 L 254.054600 20.301400 L 254.408600 20.293700 L 255.073500 20.232100 L 255.384400 20.178200 L 255.679400 20.105400 L 256.217100 19.892000 L 256.459800 19.751400 L 256.681900 19.586200 L 257.055400 19.175700 L 257.206800 18.930500 L 257.332000 18.656000 L 257.496200 18.011600 L 257.535200 17.641700 L 256.139600 17.641700 L 256.114000 17.838200 L 256.007300 18.178900 L 255.926200 18.323100 L 255.829800 18.451800 L 255.599900 18.669400 L 255.466500 18.758100 L 255.323400 18.834600 L 255.015600 18.953600 L 254.850900 18.996200 L 254.682100 19.028500 L 254.341400 19.065400 L 254.169500 19.070100 L 253.855500 19.057700 L 253.537400 19.020800 L 253.381000 18.991600 L 253.089600 18.905400 L 252.954600 18.848400 L 252.829400 18.781700 L 252.616000 18.617500 L 252.527800 18.520100 L 252.455900 18.409800 L 252.373800 18.143000 L 252.363600 17.986500 L 252.379500 17.813600 L 252.506700 17.514000 L 252.618100 17.387200 L 252.754000 17.273300 L 253.078300 17.076300 L 253.266600 16.993200 L 253.469700 16.918300 L 253.913000 16.787000 L 254.153100 16.730500 L 254.645600 16.621800 L 255.138200 16.508900 L 255.399300 16.448400 L 255.912400 16.308800 L 256.164300 16.229800 L 256.407500 16.141000 L 256.850700 15.923500 L 257.050800 15.794700 L 257.234500 15.650600 L 257.546400 15.309900 L 257.674700 15.113400 L 257.778900 14.895900 L 257.897900 14.386900 L 257.912800 14.095500 L 257.907800 13.906700 L 257.867700 13.553700 L 257.787700 13.233600 L 257.667600 12.946300 L 257.592600 12.814900 L 257.420200 12.572800 L 257.001600 12.162300 L 256.755300 11.994000 L 256.488500 11.849900 L 255.905700 11.632300 L 255.589700 11.559000 L 255.265900 11.505100 L 254.621500 11.443500 L 254.300900 11.435800 Z M 195.221200 11.440700 L 194.764600 11.479700 L 194.335700 11.557700 L 193.934500 11.674700 L 193.744300 11.747800 L 193.561400 11.829900 L 193.218700 12.018700 L 192.906700 12.240300 L 192.625600 12.494800 L 192.496500 12.634300 L 192.375200 12.781400 L 192.155600 13.096500 L 191.966800 13.439200 L 191.808800 13.809600 L 191.741300 14.005200 L 191.681700 14.206700 L 191.586200 14.624300 L 191.522600 15.061400 L 191.490800 15.518100 L 191.486800 15.753700 L 191.490700 15.989800 L 191.521500 16.450500 L 191.583000 16.895900 L 191.675400 17.325800 L 191.733100 17.535000 L 191.798700 17.738900 L 191.953600 18.126800 L 192.140300 18.488000 L 192.358900 18.822500 L 192.480100 18.979800 L 192.609300 19.129600 L 192.891500 19.404600 L 193.205400 19.646700 L 193.551200 19.856100 L 193.736100 19.948400 L 193.928700 20.031100 L 194.337100 20.163500 L 194.776300 20.251700 L 195.246200 20.295900 L 195.492800 20.301400 L 195.848300 20.290600 L 196.525500 20.204400 L 196.847200 20.129000 L 197.154000 20.031000 L 197.712200 19.764200 L 197.963600 19.595400 L 198.195000 19.403000 L 198.593100 18.947400 L 198.759900 18.684200 L 198.901500 18.396400 L 199.098500 17.743800 L 199.153900 17.379000 L 197.709100 17.379000 L 197.662500 17.574500 L 197.535200 17.931600 L 197.362800 18.243500 L 197.145300 18.510300 L 197.019600 18.626800 L 196.882600 18.730700 L 196.574800 18.896900 L 196.221800 19.007700 L 195.823700 19.063100 L 195.607700 19.070100 L 195.422700 19.065700 L 195.075900 19.030800 L 194.759900 18.961000 L 194.474600 18.856400 L 194.343500 18.791000 L 194.101900 18.640100 L 193.695500 18.270700 L 193.530800 18.052200 L 193.389800 17.813600 L 193.172200 17.284100 L 193.095800 16.993200 L 193.038300 16.691000 L 192.972600 16.071300 L 192.964400 15.753700 L 192.973200 15.460200 L 193.042900 14.885600 L 193.104000 14.604400 L 193.183500 14.333000 L 193.401000 13.836400 L 193.539100 13.611200 L 193.698100 13.404400 L 194.083900 13.055500 L 194.310700 12.913400 L 194.560000 12.798500 L 195.126400 12.667200 L 195.443500 12.650700 L 195.695000 12.659200 L 196.155700 12.726900 L 196.560000 12.862400 L 196.907900 13.065500 L 197.060600 13.192500 L 197.199300 13.334900 L 197.434300 13.661200 L 197.612800 14.042900 L 197.734900 14.480000 L 197.774800 14.719400 L 199.203200 14.719400 L 199.134500 14.336600 L 198.930300 13.638900 L 198.636900 13.031400 L 198.254100 12.514300 L 198.029300 12.289600 L 197.782600 12.089500 L 197.225500 11.769300 L 196.583100 11.555900 L 195.855600 11.449200 L 195.459900 11.435800 Z M 245.792500 11.441000 L 245.317500 11.482000 L 244.876200 11.564100 L 244.468900 11.687200 L 244.277900 11.764200 L 244.094800 11.850400 L 243.751100 12.047400 L 243.437100 12.277200 L 243.152900 12.539900 L 243.021900 12.683600 L 242.898700 12.834900 L 242.676000 13.159200 L 242.485100 13.512200 L 242.326100 13.893900 L 242.258500 14.095500 L 242.198400 14.303000 L 242.098800 14.731900 L 242.027000 15.179300 L 241.982900 15.645200 L 241.971200 15.885000 L 241.975800 16.124600 L 242.012800 16.588400 L 242.086600 17.031700 L 242.197500 17.454500 L 242.266700 17.658100 L 242.344300 17.855900 L 242.521800 18.231500 L 242.729100 18.580300 L 242.966100 18.902500 L 243.095800 19.053600 L 243.232300 19.197300 L 243.523700 19.460000 L 243.839700 19.689800 L 244.180400 19.886800 L 244.360000 19.973000 L 244.544800 20.050000 L 244.927500 20.173100 L 245.327700 20.255200 L 245.745300 20.296300 L 245.960700 20.301400 L 246.237900 20.294100 L 246.756100 20.235600 L 247.226000 20.118600 L 247.647700 19.943100 L 247.840500 19.833500 L 248.022600 19.712500 L 248.359200 19.446800 L 248.658800 19.149200 L 248.921500 18.819800 L 249.039000 18.643200 L 249.147500 18.460500 L 249.338400 18.082900 L 249.494300 17.688900 L 249.615400 17.278500 L 249.662900 17.067100 L 249.736200 16.645400 L 249.806000 15.832700 L 249.802400 15.441700 L 243.448800 15.441700 L 243.450800 15.166200 L 243.516500 14.636800 L 243.580100 14.382800 L 243.665300 14.139600 L 243.903400 13.696300 L 244.056200 13.496300 L 244.231700 13.313100 L 244.650400 13.005300 L 244.893500 12.880600 L 245.159300 12.780000 L 245.758500 12.665100 L 246.092000 12.650700 L 246.308700 12.657200 L 246.711900 12.708500 L 247.075200 12.811100 L 247.398400 12.965000 L 247.545000 13.061200 L 247.680600 13.170500 L 247.915500 13.429000 L 248.102300 13.741000 L 248.240800 14.106300 L 248.292000 14.308900 L 249.671100 14.308900 L 249.590800 13.962900 L 249.367100 13.337000 L 249.059300 12.799300 L 248.667300 12.349800 L 248.439800 12.158200 L 248.194000 11.988900 L 247.656300 11.718000 L 247.057100 11.537400 L 246.396300 11.447100 L 246.042800 11.435800 Z M 46.387400 8.382100 L 46.387400 12.765700 L 46.354600 12.765700 L 46.262200 12.595300 L 46.040600 12.291600 L 45.769700 12.037100 L 45.449600 11.831900 L 45.271000 11.747800 L 45.084000 11.674700 L 44.696200 11.557700 L 44.289800 11.479700 L 43.865000 11.440700 L 43.645700 11.435800 L 43.403400 11.441500 L 42.942700 11.486600 L 42.513800 11.576900 L 42.116700 11.712400 L 41.930000 11.797000 L 41.751200 11.891200 L 41.416700 12.102500 L 41.113000 12.344700 L 40.840100 12.617700 L 40.715100 12.765700 L 40.597800 12.920600 L 40.385400 13.249000 L 40.202700 13.601900 L 40.049800 13.979500 L 39.984500 14.177600 L 39.926800 14.380200 L 39.834500 14.794800 L 39.772900 15.221600 L 39.742100 15.660800 L 39.738300 15.885000 L 39.742000 16.109200 L 39.771700 16.548400 L 39.831300 16.975300 L 39.920500 17.389800 L 39.976300 17.592500 L 40.039700 17.790400 L 40.189500 18.167000 L 40.370100 18.517900 L 40.581500 18.843200 L 40.698700 18.996200 L 40.823600 19.142100 L 41.096600 19.411000 L 41.400300 19.649000 L 41.734800 19.856300 L 41.913600 19.948400 L 42.100000 20.031100 L 42.495000 20.163500 L 42.919800 20.251700 L 43.374400 20.295900 L 43.612800 20.301400 L 43.953500 20.285000 L 44.318800 20.235700 L 44.507600 20.197200 L 44.885200 20.086400 L 45.074000 20.014100 L 45.260300 19.929900 L 45.617300 19.724700 L 45.788200 19.603600 L 45.949800 19.468700 L 46.233000 19.152700 L 46.354600 18.971500 L 46.387400 18.971500 L 46.387400 20.104400 L 47.782900 20.104400 L 47.782900 8.382100 Z M 181.878400 11.445100 L 181.205300 11.519000 L 180.881000 11.583600 L 180.570100 11.669300 L 180.003700 11.911400 L 179.748200 12.067900 L 179.514300 12.249500 L 179.120200 12.692800 L 178.960200 12.954500 L 178.890400 13.095700 L 178.775500 13.400400 L 178.693400 13.735000 L 178.644100 14.099200 L 178.631800 14.292500 L 180.027300 14.292500 L 180.046800 14.071400 L 180.153500 13.681500 L 180.240700 13.512700 L 180.346900 13.360800 L 180.605500 13.106300 L 180.757900 13.003700 L 180.923100 12.916000 L 181.284300 12.780500 L 181.480300 12.732800 L 181.682900 12.696900 L 182.097500 12.655900 L 182.309400 12.650700 L 182.645900 12.663100 L 182.998900 12.700000 L 183.175900 12.729800 L 183.508400 12.820100 L 183.663800 12.880600 L 183.809000 12.954000 L 184.059400 13.146900 L 184.164600 13.266400 L 184.250800 13.402400 L 184.349300 13.726600 L 184.361600 13.914900 L 184.355200 14.046200 L 184.303900 14.284300 L 184.201200 14.489500 L 184.047300 14.661900 L 183.951100 14.735800 L 183.733100 14.868700 L 183.220000 15.094400 L 182.925000 15.187300 L 182.610500 15.271400 L 181.941500 15.427400 L 181.587000 15.499200 L 181.232500 15.576200 L 180.563400 15.773200 L 180.248900 15.893200 L 179.953900 16.033300 L 179.440900 16.390400 L 179.222800 16.607400 L 179.126600 16.728000 L 178.972700 17.003000 L 178.870100 17.323100 L 178.818800 17.688400 L 178.812400 17.888000 L 178.830400 18.196800 L 178.974000 18.746800 L 179.099700 18.988000 L 179.253600 19.207000 L 179.623000 19.580500 L 179.838500 19.735000 L 180.071400 19.869400 L 180.580400 20.082800 L 180.856400 20.161800 L 181.139100 20.222900 L 181.701400 20.292700 L 181.981000 20.301400 L 182.335000 20.293700 L 182.999900 20.232100 L 183.310800 20.178200 L 183.605800 20.105400 L 184.143500 19.892000 L 184.386200 19.751400 L 184.608400 19.586200 L 184.981900 19.175700 L 185.133200 18.930500 L 185.258400 18.656000 L 185.422600 18.011600 L 185.461600 17.641700 L 184.066100 17.641700 L 184.040400 17.838200 L 183.933700 18.178900 L 183.852600 18.323100 L 183.756200 18.451800 L 183.526300 18.669400 L 183.392900 18.758100 L 183.249800 18.834600 L 182.942000 18.953600 L 182.777300 18.996200 L 182.608500 19.028500 L 182.267800 19.065400 L 182.095900 19.070100 L 181.781900 19.057700 L 181.463900 19.020800 L 181.307400 18.991600 L 181.016000 18.905400 L 180.881000 18.848400 L 180.755800 18.781700 L 180.542400 18.617500 L 180.454200 18.520100 L 180.382300 18.409800 L 180.300300 18.143000 L 180.290000 17.986500 L 180.305900 17.813600 L 180.433100 17.514000 L 180.544500 17.387200 L 180.680400 17.273300 L 181.004700 17.076300 L 181.193000 16.993200 L 181.396100 16.918300 L 181.839400 16.787000 L 182.079500 16.730500 L 182.572000 16.621800 L 183.064600 16.508900 L 183.325700 16.448400 L 183.838800 16.308800 L 184.090700 16.229800 L 184.333900 16.141000 L 184.777100 15.923500 L 184.977200 15.794700 L 185.160900 15.650600 L 185.472800 15.309900 L 185.601100 15.113400 L 185.705300 14.895900 L 185.824300 14.386900 L 185.839200 14.095500 L 185.834200 13.906700 L 185.794100 13.553700 L 185.714100 13.233600 L 185.594100 12.946300 L 185.519000 12.814900 L 185.346600 12.572800 L 184.928000 12.162300 L 184.681700 11.994000 L 184.414900 11.849900 L 183.832100 11.632300 L 183.516100 11.559000 L 183.192300 11.505100 L 182.547900 11.443500 L 182.227300 11.435800 Z M 173.164200 11.441100 L 172.692200 11.483200 L 172.248900 11.567300 L 171.834400 11.693500 L 171.637900 11.772400 L 171.448800 11.860600 L 171.093800 12.061800 L 170.769500 12.295700 L 170.476100 12.562500 L 170.340900 12.708200 L 170.213600 12.861200 L 169.983800 13.186500 L 169.786800 13.537400 L 169.622600 13.914000 L 169.552800 14.111900 L 169.491300 14.315100 L 169.392800 14.733700 L 169.327100 15.168800 L 169.294300 15.620300 L 169.290100 15.852200 L 169.294300 16.084200 L 169.327100 16.536700 L 169.392800 16.973900 L 169.491300 17.395600 L 169.552800 17.600700 L 169.622600 17.800500 L 169.786800 18.180200 L 169.983800 18.533100 L 170.213600 18.859400 L 170.340900 19.012600 L 170.476100 19.158400 L 170.769500 19.426200 L 171.093800 19.662200 L 171.448800 19.866400 L 171.637900 19.956600 L 171.834400 20.037400 L 172.248900 20.166700 L 172.692200 20.252900 L 173.164200 20.296000 L 173.411000 20.301400 L 173.661500 20.296000 L 174.138600 20.252900 L 174.584000 20.166700 L 174.997500 20.037400 L 175.192300 19.956600 L 175.379400 19.866400 L 175.731400 19.662200 L 176.053600 19.426200 L 176.346000 19.158400 L 176.481100 19.012600 L 176.608300 18.859400 L 176.838200 18.533100 L 177.035200 18.180200 L 177.199400 17.800500 L 177.269100 17.600700 L 177.330700 17.395600 L 177.429200 16.973900 L 177.494900 16.536700 L 177.527700 16.084200 L 177.531800 15.852200 L 177.527700 15.620300 L 177.494900 15.168800 L 177.429200 14.733700 L 177.330700 14.315100 L 177.269100 14.111900 L 177.199400 13.914000 L 177.035200 13.537400 L 176.838200 13.186500 L 176.608300 12.861200 L 176.481100 12.708200 L 176.346000 12.562500 L 176.053600 12.295700 L 175.731400 12.061800 L 175.379400 11.860600 L 175.192300 11.772400 L 174.997500 11.693500 L 174.584000 11.567300 L 174.138600 11.483200 L 173.661500 11.441100 L 173.411000 11.435800 Z M 164.245800 11.445100 L 163.572700 11.519000 L 163.248400 11.583600 L 162.937500 11.669300 L 162.371100 11.911400 L 162.115600 12.067900 L 161.881700 12.249500 L 161.487600 12.692800 L 161.327600 12.954500 L 161.257800 13.095700 L 161.142900 13.400400 L 161.060800 13.735000 L 161.011500 14.099200 L 160.999200 14.292500 L 162.394700 14.292500 L 162.414200 14.071400 L 162.520900 13.681500 L 162.608200 13.512700 L 162.714400 13.360800 L 162.972900 13.106300 L 163.125300 13.003700 L 163.290500 12.916000 L 163.651700 12.780500 L 163.847700 12.732800 L 164.050300 12.696900 L 164.464900 12.655900 L 164.676800 12.650700 L 165.013300 12.663100 L 165.366300 12.700000 L 165.543300 12.729800 L 165.875800 12.820100 L 166.031200 12.880600 L 166.176400 12.954000 L 166.426800 13.146900 L 166.532000 13.266400 L 166.618200 13.402400 L 166.716700 13.726600 L 166.729000 13.914900 L 166.722600 14.046200 L 166.671300 14.284300 L 166.568700 14.489500 L 166.414700 14.661900 L 166.318500 14.735800 L 166.100500 14.868700 L 165.587400 15.094400 L 165.292400 15.187300 L 164.977900 15.271400 L 164.308900 15.427400 L 163.954400 15.499200 L 163.599900 15.576200 L 162.930900 15.773200 L 162.616400 15.893200 L 162.321400 16.033300 L 161.808300 16.390400 L 161.590300 16.607400 L 161.494100 16.728000 L 161.340100 17.003000 L 161.237500 17.323100 L 161.186200 17.688400 L 161.179800 17.888000 L 161.197800 18.196800 L 161.341400 18.746800 L 161.467100 18.988000 L 161.621000 19.207000 L 161.990400 19.580500 L 162.205900 19.735000 L 162.438800 19.869400 L 162.947800 20.082800 L 163.223800 20.161800 L 163.506500 20.222900 L 164.068800 20.292700 L 164.348400 20.301400 L 164.702400 20.293700 L 165.367300 20.232100 L 165.678300 20.178200 L 165.973300 20.105400 L 166.510900 19.892000 L 166.753600 19.751400 L 166.975800 19.586200 L 167.349300 19.175700 L 167.500600 18.930500 L 167.625800 18.656000 L 167.790000 18.011600 L 167.829000 17.641700 L 166.433500 17.641700 L 166.407800 17.838200 L 166.301100 18.178900 L 166.220000 18.323100 L 166.123600 18.451800 L 165.893700 18.669400 L 165.760300 18.758100 L 165.617200 18.834600 L 165.309400 18.953600 L 165.144700 18.996200 L 164.975900 19.028500 L 164.635200 19.065400 L 164.463400 19.070100 L 164.149400 19.057700 L 163.831300 19.020800 L 163.674800 18.991600 L 163.383400 18.905400 L 163.248400 18.848400 L 163.123300 18.781700 L 162.909800 18.617500 L 162.821600 18.520100 L 162.749800 18.409800 L 162.667700 18.143000 L 162.657400 17.986500 L 162.673300 17.813600 L 162.800500 17.514000 L 162.911900 17.387200 L 163.047800 17.273300 L 163.372100 17.076300 L 163.560400 16.993200 L 163.763500 16.918300 L 164.206800 16.787000 L 164.446900 16.730500 L 164.939500 16.621800 L 165.432000 16.508900 L 165.693100 16.448400 L 166.206200 16.308800 L 166.458100 16.229800 L 166.701300 16.141000 L 167.144600 15.923500 L 167.344700 15.794700 L 167.528300 15.650600 L 167.840300 15.309900 L 167.968500 15.113400 L 168.072700 14.895900 L 168.191700 14.386900 L 168.206600 14.095500 L 168.201600 13.906700 L 168.161600 13.553700 L 168.081500 13.233600 L 167.961500 12.946300 L 167.886400 12.814900 L 167.714100 12.572800 L 167.295400 12.162300 L 167.049100 11.994000 L 166.782300 11.849900 L 166.199500 11.632300 L 165.883500 11.559000 L 165.559700 11.505100 L 164.915400 11.443500 L 164.594700 11.435800 Z M 65.411400 11.445100 L 64.738300 11.519000 L 64.414000 11.583600 L 64.103100 11.669300 L 63.536700 11.911400 L 63.281200 12.067900 L 63.047300 12.249500 L 62.653200 12.692800 L 62.493200 12.954500 L 62.423400 13.095700 L 62.308500 13.400400 L 62.226400 13.735000 L 62.177100 14.099200 L 62.164800 14.292500 L 63.560300 14.292500 L 63.579800 14.071400 L 63.686500 13.681500 L 63.773700 13.512700 L 63.880000 13.360800 L 64.138500 13.106300 L 64.290900 13.003700 L 64.456100 12.916000 L 64.817300 12.780500 L 65.013300 12.732800 L 65.215900 12.696900 L 65.630500 12.655900 L 65.842400 12.650700 L 66.178900 12.663100 L 66.531900 12.700000 L 66.708900 12.729800 L 67.041400 12.820100 L 67.196800 12.880600 L 67.342000 12.954000 L 67.592400 13.146900 L 67.697600 13.266400 L 67.783800 13.402400 L 67.882300 13.726600 L 67.894600 13.914900 L 67.888200 14.046200 L 67.836900 14.284300 L 67.734300 14.489500 L 67.580300 14.661900 L 67.484100 14.735800 L 67.266100 14.868700 L 66.753000 15.094400 L 66.458000 15.187300 L 66.143500 15.271400 L 65.474500 15.427400 L 65.120000 15.499200 L 64.765500 15.576200 L 64.096500 15.773200 L 63.782000 15.893200 L 63.487000 16.033300 L 62.973900 16.390400 L 62.755900 16.607400 L 62.659700 16.728000 L 62.505700 17.003000 L 62.403100 17.323100 L 62.351800 17.688400 L 62.345400 17.888000 L 62.363400 18.196800 L 62.507000 18.746800 L 62.632700 18.988000 L 62.786600 19.207000 L 63.156000 19.580500 L 63.371500 19.735000 L 63.604400 19.869400 L 64.113400 20.082800 L 64.389400 20.161800 L 64.672100 20.222900 L 65.234400 20.292700 L 65.514000 20.301400 L 65.868000 20.293700 L 66.532900 20.232100 L 66.843900 20.178200 L 67.138900 20.105400 L 67.676500 19.892000 L 67.919200 19.751400 L 68.141400 19.586200 L 68.514900 19.175700 L 68.666200 18.930500 L 68.791400 18.656000 L 68.955600 18.011600 L 68.994600 17.641700 L 67.599100 17.641700 L 67.573400 17.838200 L 67.466700 18.178900 L 67.385600 18.323100 L 67.289200 18.451800 L 67.059300 18.669400 L 66.925900 18.758100 L 66.782800 18.834600 L 66.475000 18.953600 L 66.310300 18.996200 L 66.141500 19.028500 L 65.800800 19.065400 L 65.628900 19.070100 L 65.315000 19.057700 L 64.996900 19.020800 L 64.840400 18.991600 L 64.549000 18.905400 L 64.414000 18.848400 L 64.288900 18.781700 L 64.075400 18.617500 L 63.987200 18.520100 L 63.915400 18.409800 L 63.833300 18.143000 L 63.823000 17.986500 L 63.838900 17.813600 L 63.966100 17.514000 L 64.077500 17.387200 L 64.213400 17.273300 L 64.537700 17.076300 L 64.726000 16.993200 L 64.929100 16.918300 L 65.372400 16.787000 L 65.612500 16.730500 L 66.105100 16.621800 L 66.597600 16.508900 L 66.858700 16.448400 L 67.371800 16.308800 L 67.623700 16.229800 L 67.866900 16.141000 L 68.310200 15.923500 L 68.510200 15.794700 L 68.693900 15.650600 L 69.005900 15.309900 L 69.134100 15.113400 L 69.238300 14.895900 L 69.357300 14.386900 L 69.372200 14.095500 L 69.367200 13.906700 L 69.327200 13.553700 L 69.247100 13.233600 L 69.127100 12.946300 L 69.052000 12.814900 L 68.879600 12.572800 L 68.461000 12.162300 L 68.214700 11.994000 L 67.947900 11.849900 L 67.365100 11.632300 L 67.049100 11.559000 L 66.725300 11.505100 L 66.080900 11.443500 L 65.760300 11.435800 Z M 78.754200 11.440700 L 78.297600 11.479700 L 77.868700 11.557700 L 77.467500 11.674700 L 77.277300 11.747800 L 77.094400 11.829900 L 76.751700 12.018700 L 76.439700 12.240300 L 76.158600 12.494800 L 76.029500 12.634300 L 75.908200 12.781400 L 75.688600 13.096500 L 75.499800 13.439200 L 75.341800 13.809600 L 75.274300 14.005200 L 75.214700 14.206700 L 75.119300 14.624300 L 75.055600 15.061400 L 75.023800 15.518100 L 75.019900 15.753700 L 75.023700 15.989800 L 75.054500 16.450500 L 75.116100 16.895900 L 75.208400 17.325800 L 75.266100 17.535000 L 75.331700 17.738900 L 75.486600 18.126800 L 75.673400 18.488000 L 75.891900 18.822500 L 76.013100 18.979800 L 76.142300 19.129600 L 76.424500 19.404600 L 76.738500 19.646700 L 77.084300 19.856100 L 77.269100 19.948400 L 77.461700 20.031100 L 77.870100 20.163500 L 78.309300 20.251700 L 78.779200 20.295900 L 79.025800 20.301400 L 79.381300 20.290600 L 80.058500 20.204400 L 80.380200 20.129000 L 80.687000 20.031000 L 81.245200 19.764200 L 81.496600 19.595400 L 81.728000 19.403000 L 82.126100 18.947400 L 82.292900 18.684200 L 82.434500 18.396400 L 82.631500 17.743800 L 82.686900 17.379000 L 81.242200 17.379000 L 81.195500 17.574500 L 81.068200 17.931600 L 80.895800 18.243500 L 80.678300 18.510300 L 80.552600 18.626800 L 80.415600 18.730700 L 80.107800 18.896900 L 79.754800 19.007700 L 79.356700 19.063100 L 79.140700 19.070100 L 78.955700 19.065700 L 78.608900 19.030800 L 78.292900 18.961000 L 78.007600 18.856400 L 77.876500 18.791000 L 77.634900 18.640100 L 77.228500 18.270700 L 77.063900 18.052200 L 76.922800 17.813600 L 76.705200 17.284100 L 76.628800 16.993200 L 76.571300 16.691000 L 76.505700 16.071300 L 76.497400 15.753700 L 76.506200 15.460200 L 76.575900 14.885600 L 76.637000 14.604400 L 76.716500 14.333000 L 76.934100 13.836400 L 77.072100 13.611200 L 77.231100 13.404400 L 77.616900 13.055500 L 77.843700 12.913400 L 78.093000 12.798500 L 78.659500 12.667200 L 78.976500 12.650700 L 79.228000 12.659200 L 79.688800 12.726900 L 80.093000 12.862400 L 80.440900 13.065500 L 80.593700 13.192500 L 80.732300 13.334900 L 80.967300 13.661200 L 81.145800 14.042900 L 81.267900 14.480000 L 81.307800 14.719400 L 82.736200 14.719400 L 82.667500 14.336600 L 82.463300 13.638900 L 82.169900 13.031400 L 81.787100 12.514300 L 81.562300 12.289600 L 81.315700 12.089500 L 80.758500 11.769300 L 80.116100 11.555900 L 79.388600 11.449200 L 78.992900 11.435800 Z M 212.595900 11.445100 L 211.922700 11.519000 L 211.598500 11.583600 L 211.287600 11.669300 L 210.721200 11.911400 L 210.465700 12.067900 L 210.231700 12.249500 L 209.837700 12.692800 L 209.677600 12.954500 L 209.607900 13.095700 L 209.492900 13.400400 L 209.410800 13.735000 L 209.361600 14.099200 L 209.349300 14.292500 L 210.744800 14.292500 L 210.764300 14.071400 L 210.871000 13.681500 L 210.958200 13.512700 L 211.064400 13.360800 L 211.323000 13.106300 L 211.475400 13.003700 L 211.640600 12.916000 L 212.001800 12.780500 L 212.197700 12.732800 L 212.400400 12.696900 L 212.814900 12.655900 L 213.026800 12.650700 L 213.363400 12.663100 L 213.716400 12.700000 L 213.893400 12.729800 L 214.225800 12.820100 L 214.381300 12.880600 L 214.526500 12.954000 L 214.776900 13.146900 L 214.882000 13.266400 L 214.968200 13.402400 L 215.066700 13.726600 L 215.079000 13.914900 L 215.072600 14.046200 L 215.021300 14.284300 L 214.918700 14.489500 L 214.764800 14.661900 L 214.668600 14.735800 L 214.450600 14.868700 L 213.937500 15.094400 L 213.642500 15.187300 L 213.328000 15.271400 L 212.659000 15.427400 L 212.304500 15.499200 L 211.949900 15.576200 L 211.280900 15.773200 L 210.966400 15.893200 L 210.671400 16.033300 L 210.158400 16.390400 L 209.940300 16.607400 L 209.844100 16.728000 L 209.690200 17.003000 L 209.587600 17.323100 L 209.536300 17.688400 L 209.529900 17.888000 L 209.547800 18.196800 L 209.691500 18.746800 L 209.817200 18.988000 L 209.971100 19.207000 L 210.340500 19.580500 L 210.556000 19.735000 L 210.788900 19.869400 L 211.297800 20.082800 L 211.573900 20.161800 L 211.856600 20.222900 L 212.418900 20.292700 L 212.698500 20.301400 L 213.052500 20.293700 L 213.717400 20.232100 L 214.028300 20.178200 L 214.323300 20.105400 L 214.861000 19.892000 L 215.103700 19.751400 L 215.325800 19.586200 L 215.699300 19.175700 L 215.850700 18.930500 L 215.975900 18.656000 L 216.140000 18.011600 L 216.179000 17.641700 L 214.783500 17.641700 L 214.757900 17.838200 L 214.651200 18.178900 L 214.570100 18.323100 L 214.473600 18.451800 L 214.243800 18.669400 L 214.110400 18.758100 L 213.967300 18.834600 L 213.659400 18.953600 L 213.494700 18.996200 L 213.325900 19.028500 L 212.985300 19.065400 L 212.813400 19.070100 L 212.499400 19.057700 L 212.181300 19.020800 L 212.024800 18.991600 L 211.733400 18.905400 L 211.598500 18.848400 L 211.473300 18.781700 L 211.259900 18.617500 L 211.171600 18.520100 L 211.099800 18.409800 L 211.017700 18.143000 L 211.007500 17.986500 L 211.023400 17.813600 L 211.150600 17.514000 L 211.261900 17.387200 L 211.397900 17.273300 L 211.722100 17.076300 L 211.910400 16.993200 L 212.113600 16.918300 L 212.556900 16.787000 L 212.797000 16.730500 L 213.289500 16.621800 L 213.782000 16.508900 L 214.043200 16.448400 L 214.556200 16.308800 L 214.808200 16.229800 L 215.051300 16.141000 L 215.494600 15.923500 L 215.694700 15.794700 L 215.878400 15.650600 L 216.190300 15.309900 L 216.318600 15.113400 L 216.422700 14.895900 L 216.541800 14.386900 L 216.556600 14.095500 L 216.551600 13.906700 L 216.511600 13.553700 L 216.431600 13.233600 L 216.311500 12.946300 L 216.236500 12.814900 L 216.064100 12.572800 L 215.645500 12.162300 L 215.399200 11.994000 L 215.132400 11.849900 L 214.549600 11.632300 L 214.233500 11.559000 L 213.909800 11.505100 L 213.265400 11.443500 L 212.944700 11.435800 Z M 151.854600 8.382100 L 151.854600 20.104400 L 153.250100 20.104400 L 153.250100 18.955100 L 153.282900 18.955100 L 153.375300 19.125600 L 153.596900 19.430300 L 153.867800 19.686900 L 154.187900 19.895200 L 154.366500 19.981200 L 154.553500 20.056300 L 154.941400 20.176300 L 155.347700 20.256400 L 155.772500 20.296400 L 155.991800 20.301400 L 156.234100 20.295700 L 156.694800 20.250600 L 157.123800 20.160300 L 157.520900 20.024800 L 157.707500 19.940200 L 157.886300 19.845900 L 158.220800 19.633500 L 158.524500 19.389300 L 158.797500 19.113300 L 158.922400 18.963300 L 159.039700 18.806500 L 159.252200 18.475000 L 159.434800 18.120000 L 159.587700 17.741400 L 159.653000 17.543200 L 159.710700 17.340600 L 159.803000 16.926000 L 159.864600 16.499100 L 159.895400 16.060000 L 159.899200 15.835800 L 159.895500 15.611600 L 159.865800 15.172400 L 159.806200 14.745500 L 159.717000 14.331000 L 159.661200 14.128300 L 159.597800 13.930400 L 159.448000 13.553800 L 159.267400 13.202900 L 159.056000 12.877600 L 158.938800 12.724600 L 158.813900 12.578800 L 158.540900 12.311000 L 158.237200 12.075000 L 157.902700 11.870800 L 157.723900 11.780600 L 157.537500 11.699800 L 157.142500 11.570500 L 156.717700 11.484300 L 156.263100 11.441200 L 156.024700 11.435800 L 155.694300 11.452300 L 155.326900 11.501500 L 155.134500 11.539500 L 154.752800 11.646200 L 154.563500 11.714900 L 154.377300 11.795500 L 154.020200 11.996600 L 153.849300 12.117200 L 153.687700 12.252100 L 153.404500 12.568100 L 153.282900 12.749300 L 153.250100 12.749300 L 153.250100 8.382100 Z M 20.443500 11.441000 L 19.968400 11.482000 L 19.527200 11.564100 L 19.119900 11.687200 L 18.928900 11.764200 L 18.745800 11.850400 L 18.402100 12.047400 L 18.088100 12.277200 L 17.803900 12.539900 L 17.672900 12.683600 L 17.549700 12.834900 L 17.327000 13.159200 L 17.136100 13.512200 L 16.977100 13.893900 L 16.909500 14.095500 L 16.849300 14.303000 L 16.749800 14.731900 L 16.678000 15.179300 L 16.633900 15.645200 L 16.622200 15.885000 L 16.626800 16.124600 L 16.663700 16.588400 L 16.737600 17.031700 L 16.848400 17.454500 L 16.917700 17.658100 L 16.995300 17.855900 L 17.172800 18.231500 L 17.380100 18.580300 L 17.617100 18.902500 L 17.746800 19.053600 L 17.883300 19.197300 L 18.174700 19.460000 L 18.490700 19.689800 L 18.831400 19.886800 L 19.011000 19.973000 L 19.195800 20.050000 L 19.578500 20.173100 L 19.978700 20.255200 L 20.396300 20.296300 L 20.611700 20.301400 L 20.888900 20.294100 L 21.407000 20.235600 L 21.877000 20.118600 L 22.298700 19.943100 L 22.491500 19.833500 L 22.673600 19.712500 L 23.010200 19.446800 L 23.309800 19.149200 L 23.572500 18.819800 L 23.690000 18.643200 L 23.798500 18.460500 L 23.989400 18.082900 L 24.145300 17.688900 L 24.266400 17.278500 L 24.313900 17.067100 L 24.387200 16.645400 L 24.457000 15.832700 L 24.453400 15.441700 L 18.099800 15.441700 L 18.101800 15.166200 L 18.167500 14.636800 L 18.231100 14.382800 L 18.316300 14.139600 L 18.554300 13.696300 L 18.707200 13.496300 L 18.882700 13.313100 L 19.301300 13.005300 L 19.544500 12.880600 L 19.810300 12.780000 L 20.409500 12.665100 L 20.743000 12.650700 L 20.959700 12.657200 L 21.362900 12.708500 L 21.726200 12.811100 L 22.049400 12.965000 L 22.196000 13.061200 L 22.331600 13.170500 L 22.566500 13.429000 L 22.753300 13.741000 L 22.891800 14.106300 L 22.943000 14.308900 L 24.322100 14.308900 L 24.241800 13.962900 L 24.018100 13.337000 L 23.710300 12.799300 L 23.318300 12.349800 L 23.090700 12.158200 L 22.845000 11.988900 L 22.307300 11.718000 L 21.708100 11.537400 L 21.047300 11.447100 L 20.693800 11.435800 Z M 226.685800 11.441100 L 226.213800 11.483200 L 225.770500 11.567300 L 225.356000 11.693500 L 225.159500 11.772400 L 224.970400 11.860600 L 224.615400 12.061800 L 224.291200 12.295700 L 223.997700 12.562500 L 223.862500 12.708200 L 223.735300 12.861200 L 223.505400 13.186500 L 223.308400 13.537400 L 223.144200 13.914000 L 223.074500 14.111900 L 223.012900 14.315100 L 222.914400 14.733700 L 222.848700 15.168800 L 222.815900 15.620300 L 222.811800 15.852200 L 222.815900 16.084200 L 222.848700 16.536700 L 222.914400 16.973900 L 223.012900 17.395600 L 223.074500 17.600700 L 223.144200 17.800500 L 223.308400 18.180200 L 223.505400 18.533100 L 223.735300 18.859400 L 223.862500 19.012600 L 223.997700 19.158400 L 224.291200 19.426200 L 224.615400 19.662200 L 224.970400 19.866400 L 225.159500 19.956600 L 225.356000 20.037400 L 225.770500 20.166700 L 226.213800 20.252900 L 226.685800 20.296000 L 226.932600 20.301400 L 227.183100 20.296000 L 227.660200 20.252900 L 228.105600 20.166700 L 228.519100 20.037400 L 228.713900 19.956600 L 228.901100 19.866400 L 229.253000 19.662200 L 229.575200 19.426200 L 229.867600 19.158400 L 230.002700 19.012600 L 230.129900 18.859400 L 230.359800 18.533100 L 230.556800 18.180200 L 230.721000 17.800500 L 230.790800 17.600700 L 230.852300 17.395600 L 230.950800 16.973900 L 231.016500 16.536700 L 231.049300 16.084200 L 231.053400 15.852200 L 231.049300 15.620300 L 231.016500 15.168800 L 230.950800 14.733700 L 230.852300 14.315100 L 230.790800 14.111900 L 230.721000 13.914000 L 230.556800 13.537400 L 230.359800 13.186500 L 230.129900 12.861200 L 230.002700 12.708200 L 229.867600 12.562500 L 229.575200 12.295700 L 229.253000 12.061800 L 228.901100 11.860600 L 228.713900 11.772400 L 228.519100 11.693500 L 228.105600 11.567300 L 227.660200 11.483200 L 227.183100 11.441100 L 226.932600 11.435800 Z M 96.128900 11.445100 L 95.455800 11.519000 L 95.131500 11.583600 L 94.820600 11.669300 L 94.254200 11.911400 L 93.998700 12.067900 L 93.764700 12.249500 L 93.370700 12.692800 L 93.210600 12.954500 L 93.140900 13.095700 L 93.025900 13.400400 L 92.943900 13.735000 L 92.894600 14.099200 L 92.882300 14.292500 L 94.277800 14.292500 L 94.297300 14.071400 L 94.404000 13.681500 L 94.491200 13.512700 L 94.597400 13.360800 L 94.856000 13.106300 L 95.008400 13.003700 L 95.173600 12.916000 L 95.534800 12.780500 L 95.730800 12.732800 L 95.933400 12.696900 L 96.348000 12.655900 L 96.559800 12.650700 L 96.896400 12.663100 L 97.249400 12.700000 L 97.426400 12.729800 L 97.758800 12.820100 L 97.914300 12.880600 L 98.059500 12.954000 L 98.309900 13.146900 L 98.415000 13.266400 L 98.501200 13.402400 L 98.599700 13.726600 L 98.612100 13.914900 L 98.605600 14.046200 L 98.554300 14.284300 L 98.451700 14.489500 L 98.297800 14.661900 L 98.201600 14.735800 L 97.983600 14.868700 L 97.470500 15.094400 L 97.175500 15.187300 L 96.861000 15.271400 L 96.192000 15.427400 L 95.837500 15.499200 L 95.482900 15.576200 L 94.813900 15.773200 L 94.499400 15.893200 L 94.204400 16.033300 L 93.691400 16.390400 L 93.473300 16.607400 L 93.377100 16.728000 L 93.223200 17.003000 L 93.120600 17.323100 L 93.069300 17.688400 L 93.062900 17.888000 L 93.080800 18.196800 L 93.224500 18.746800 L 93.350200 18.988000 L 93.504100 19.207000 L 93.873500 19.580500 L 94.089000 19.735000 L 94.321900 19.869400 L 94.830900 20.082800 L 95.106900 20.161800 L 95.389600 20.222900 L 95.951900 20.292700 L 96.231500 20.301400 L 96.585500 20.293700 L 97.250400 20.232100 L 97.561300 20.178200 L 97.856300 20.105400 L 98.394000 19.892000 L 98.636700 19.751400 L 98.858800 19.586200 L 99.232300 19.175700 L 99.383700 18.930500 L 99.508900 18.656000 L 99.673000 18.011600 L 99.712000 17.641700 L 98.316500 17.641700 L 98.290900 17.838200 L 98.184200 18.178900 L 98.103100 18.323100 L 98.006700 18.451800 L 97.776800 18.669400 L 97.643400 18.758100 L 97.500300 18.834600 L 97.192400 18.953600 L 97.027800 18.996200 L 96.859000 19.028500 L 96.518300 19.065400 L 96.346400 19.070100 L 96.032400 19.057700 L 95.714300 19.020800 L 95.557900 18.991600 L 95.266400 18.905400 L 95.131500 18.848400 L 95.006300 18.781700 L 94.792900 18.617500 L 94.704600 18.520100 L 94.632800 18.409800 L 94.550700 18.143000 L 94.540500 17.986500 L 94.556400 17.813600 L 94.683600 17.514000 L 94.794900 17.387200 L 94.930900 17.273300 L 95.255200 17.076300 L 95.443400 16.993200 L 95.646600 16.918300 L 96.089900 16.787000 L 96.330000 16.730500 L 96.822500 16.621800 L 97.315100 16.508900 L 97.576200 16.448400 L 98.089300 16.308800 L 98.341200 16.229800 L 98.584400 16.141000 L 99.027600 15.923500 L 99.227700 15.794700 L 99.411400 15.650600 L 99.723300 15.309900 L 99.851600 15.113400 L 99.955700 14.895900 L 100.074800 14.386900 L 100.089600 14.095500 L 100.084600 13.906700 L 100.044600 13.553700 L 99.964600 13.233600 L 99.844500 12.946300 L 99.769500 12.814900 L 99.597100 12.572800 L 99.178500 12.162300 L 98.932200 11.994000 L 98.665400 11.849900 L 98.082600 11.632300 L 97.766500 11.559000 L 97.442800 11.505100 L 96.798400 11.443500 L 96.477800 11.435800 Z M 110.218800 11.441100 L 109.746800 11.483200 L 109.303600 11.567300 L 108.889000 11.693500 L 108.692500 11.772400 L 108.503400 11.860600 L 108.148400 12.061800 L 107.824200 12.295700 L 107.530700 12.562500 L 107.395500 12.708200 L 107.268300 12.861200 L 107.038400 13.186500 L 106.841400 13.537400 L 106.677200 13.914000 L 106.607500 14.111900 L 106.545900 14.315100 L 106.447400 14.733700 L 106.381700 15.168800 L 106.348900 15.620300 L 106.344800 15.852200 L 106.348900 16.084200 L 106.381700 16.536700 L 106.447400 16.973900 L 106.545900 17.395600 L 106.607500 17.600700 L 106.677200 17.800500 L 106.841400 18.180200 L 107.038400 18.533100 L 107.268300 18.859400 L 107.395500 19.012600 L 107.530700 19.158400 L 107.824200 19.426200 L 108.148400 19.662200 L 108.503400 19.866400 L 108.692500 19.956600 L 108.889000 20.037400 L 109.303600 20.166700 L 109.746800 20.252900 L 110.218800 20.296000 L 110.465600 20.301400 L 110.716100 20.296000 L 111.193300 20.252900 L 111.638600 20.166700 L 112.052100 20.037400 L 112.246900 19.956600 L 112.434100 19.866400 L 112.786000 19.662200 L 113.108200 19.426200 L 113.400700 19.158400 L 113.535700 19.012600 L 113.663000 18.859400 L 113.892800 18.533100 L 114.089800 18.180200 L 114.254000 17.800500 L 114.323800 17.600700 L 114.385300 17.395600 L 114.483800 16.973900 L 114.549500 16.536700 L 114.582300 16.084200 L 114.586500 15.852200 L 114.582300 15.620300 L 114.549500 15.168800 L 114.483800 14.733700 L 114.385300 14.315100 L 114.323800 14.111900 L 114.254000 13.914000 L 114.089800 13.537400 L 113.892800 13.186500 L 113.663000 12.861200 L 113.535700 12.708200 L 113.400700 12.562500 L 113.108200 12.295700 L 112.786000 12.061800 L 112.434100 11.860600 L 112.246900 11.772400 L 112.052100 11.693500 L 111.638600 11.567300 L 111.193300 11.483200 L 110.716100 11.441100 L 110.465600 11.435800 Z M 52.454800 11.449700 L 51.757000 11.560500 L 51.460500 11.657500 L 51.194700 11.780100 L 50.743200 12.096100 L 50.557500 12.289600 L 50.398000 12.504500 L 50.155800 12.993000 L 50.073200 13.266400 L 50.012100 13.557300 L 49.942400 14.185300 L 49.933600 14.522400 L 49.933600 20.104400 L 51.329200 20.104400 L 51.329200 14.358200 L 51.336300 14.166300 L 51.393800 13.813300 L 51.508700 13.501400 L 51.681100 13.230500 L 51.788800 13.110400 L 51.909200 13.002700 L 52.182100 12.830300 L 52.498100 12.715400 L 52.857300 12.657900 L 53.053000 12.650700 L 53.362400 12.663100 L 53.916500 12.761600 L 54.161200 12.847800 L 54.385400 12.956500 L 54.775300 13.235600 L 54.941000 13.406000 L 55.087300 13.594200 L 55.321200 14.017000 L 55.408900 14.251500 L 55.477200 14.499300 L 55.555200 15.028700 L 55.564900 15.310400 L 55.564900 20.104400 L 56.960400 20.104400 L 56.960400 11.616400 L 55.647000 11.616400 L 55.647000 12.962700 L 55.614200 12.962700 L 55.499500 12.772200 L 55.247100 12.430500 L 54.963900 12.141200 L 54.649900 11.904100 L 54.481300 11.805200 L 54.305100 11.718700 L 53.929600 11.580100 L 53.523200 11.487800 L 53.086100 11.441600 L 52.856000 11.435800 Z M 126.046000 11.616400 L 126.046000 20.104400 L 127.441500 20.104400 L 127.441500 11.616400 Z M 86.817000 11.449700 L 86.119200 11.560500 L 85.822700 11.657500 L 85.556900 11.780100 L 85.105400 12.096100 L 84.919700 12.289600 L 84.760200 12.504500 L 84.518000 12.993000 L 84.435400 13.266400 L 84.374300 13.557300 L 84.304600 14.185300 L 84.295800 14.522400 L 84.295800 20.104400 L 85.691300 20.104400 L 85.691300 14.358200 L 85.698500 14.166300 L 85.756000 13.813300 L 85.870900 13.501400 L 86.043300 13.230500 L 86.151000 13.110400 L 86.271400 13.002700 L 86.544300 12.830300 L 86.860300 12.715400 L 87.219500 12.657900 L 87.415200 12.650700 L 87.724600 12.663100 L 88.278700 12.761600 L 88.523400 12.847800 L 88.747600 12.956500 L 89.137500 13.235600 L 89.303200 13.406000 L 89.449500 13.594200 L 89.683400 14.017000 L 89.771100 14.251500 L 89.839400 14.499300 L 89.917400 15.028700 L 89.927100 15.310400 L 89.927100 20.104400 L 91.322600 20.104400 L 91.322600 11.616400 L 90.009200 11.616400 L 90.009200 12.962700 L 89.976400 12.962700 L 89.861700 12.772200 L 89.609300 12.430500 L 89.326100 12.141200 L 89.012100 11.904100 L 88.843500 11.805200 L 88.667300 11.718700 L 88.291800 11.580100 L 87.885400 11.487800 L 87.448300 11.441600 L 87.218200 11.435800 Z M 148.242700 11.616400 L 148.242700 20.104400 L 149.638200 20.104400 L 149.638200 11.616400 Z M 59.144000 11.616400 L 59.144000 20.104400 L 60.539500 20.104400 L 60.539500 11.616400 Z M 203.284000 11.449700 L 202.586200 11.560500 L 202.289700 11.657500 L 202.023900 11.780100 L 201.572400 12.096100 L 201.386700 12.289600 L 201.227100 12.504500 L 200.985000 12.993000 L 200.902400 13.266400 L 200.841300 13.557300 L 200.771600 14.185300 L 200.762800 14.522400 L 200.762800 20.104400 L 202.158300 20.104400 L 202.158300 14.358200 L 202.165500 14.166300 L 202.223000 13.813300 L 202.337900 13.501400 L 202.510300 13.230500 L 202.618000 13.110400 L 202.738300 13.002700 L 203.011300 12.830300 L 203.327300 12.715400 L 203.686500 12.657900 L 203.882200 12.650700 L 204.191600 12.663100 L 204.745700 12.761600 L 204.990400 12.847800 L 205.214600 12.956500 L 205.604500 13.235600 L 205.770200 13.406000 L 205.916400 13.594200 L 206.150400 14.017000 L 206.238100 14.251500 L 206.306400 14.499300 L 206.384300 15.028700 L 206.394100 15.310400 L 206.394100 20.104400 L 207.789600 20.104400 L 207.789600 11.616400 L 206.476200 11.616400 L 206.476200 12.962700 L 206.443300 12.962700 L 206.328700 12.772200 L 206.076300 12.430500 L 205.793100 12.141200 L 205.479100 11.904100 L 205.310500 11.805200 L 205.134300 11.718700 L 204.758700 11.580100 L 204.352400 11.487800 L 203.915300 11.441600 L 203.685200 11.435800 Z M 120.212600 12.668200 L 120.811800 12.807700 L 121.071400 12.929800 L 121.306400 13.080200 L 121.708600 13.445500 L 121.875900 13.660400 L 122.021100 13.893900 L 122.246800 14.406900 L 122.327400 14.686500 L 122.388400 14.974900 L 122.458200 15.557700 L 122.466900 15.852200 L 122.457700 16.161600 L 122.383800 16.764900 L 122.319200 17.058900 L 122.234500 17.341600 L 122.000600 17.854600 L 121.851300 18.085000 L 121.679400 18.295900 L 121.264900 18.652900 L 121.022200 18.799200 L 120.754400 18.917700 L 120.138700 19.053100 L 119.790900 19.070100 L 119.451200 19.052600 L 118.852000 18.913100 L 118.592400 18.791000 L 118.358400 18.640100 L 117.964400 18.270700 L 117.804300 18.052200 L 117.666800 17.814100 L 117.453400 17.288700 L 117.377500 17.001400 L 117.320000 16.703900 L 117.254300 16.096400 L 117.246100 15.786500 L 117.255900 15.492500 L 117.333800 14.913800 L 117.402100 14.629100 L 117.490300 14.353600 L 117.728400 13.848700 L 117.878200 13.619400 L 118.049600 13.409000 L 118.460000 13.056100 L 118.699100 12.913400 L 118.960200 12.798500 L 119.547200 12.667200 L 119.872900 12.650700 Z M 44.182300 12.668200 L 44.781600 12.807700 L 45.041200 12.929800 L 45.276200 13.080200 L 45.678400 13.445500 L 45.845600 13.660400 L 45.990800 13.893900 L 46.216600 14.406900 L 46.297100 14.686500 L 46.358200 14.974900 L 46.428000 15.557700 L 46.436700 15.852200 L 46.427400 16.161600 L 46.353600 16.764900 L 46.288900 17.058900 L 46.204300 17.341600 L 45.970300 17.854600 L 45.821000 18.085000 L 45.649100 18.295900 L 45.234600 18.652900 L 44.991900 18.799200 L 44.724100 18.917700 L 44.108500 19.053100 L 43.760600 19.070100 L 43.421000 19.052600 L 42.821700 18.913100 L 42.562100 18.791000 L 42.328200 18.640100 L 41.934100 18.270700 L 41.774100 18.052200 L 41.636600 17.814100 L 41.423100 17.288700 L 41.347200 17.001400 L 41.289700 16.703900 L 41.224100 16.096400 L 41.215900 15.786500 L 41.225600 15.492500 L 41.303600 14.913800 L 41.371800 14.629100 L 41.460100 14.353600 L 41.698100 13.848700 L 41.847900 13.619400 L 42.019300 13.409000 L 42.429700 13.056100 L 42.668800 12.913400 L 42.930000 12.798500 L 43.516900 12.667200 L 43.842700 12.650700 Z M 236.679600 12.668200 L 237.278800 12.807700 L 237.538400 12.929800 L 237.773400 13.080200 L 238.175600 13.445500 L 238.342900 13.660400 L 238.488100 13.893900 L 238.713800 14.406900 L 238.794400 14.686500 L 238.855400 14.974900 L 238.925200 15.557700 L 238.933900 15.852200 L 238.924700 16.161600 L 238.850800 16.764900 L 238.786200 17.058900 L 238.701500 17.341600 L 238.467600 17.854600 L 238.318300 18.085000 L 238.146400 18.295900 L 237.731800 18.652900 L 237.489200 18.799200 L 237.221400 18.917700 L 236.605700 19.053100 L 236.257800 19.070100 L 235.918200 19.052600 L 235.319000 18.913100 L 235.059400 18.791000 L 234.825400 18.640100 L 234.431400 18.270700 L 234.271300 18.052200 L 234.133800 17.814100 L 233.920400 17.288700 L 233.844400 17.001400 L 233.787000 16.703900 L 233.721300 16.096400 L 233.713100 15.786500 L 233.722900 15.492500 L 233.800800 14.913800 L 233.869100 14.629100 L 233.957300 14.353600 L 234.195400 13.848700 L 234.345200 13.619400 L 234.516500 13.409000 L 234.927000 13.056100 L 235.166100 12.913400 L 235.427200 12.798500 L 236.014100 12.667200 L 236.339900 12.650700 Z M 110.732900 12.664100 L 111.246000 12.770800 L 111.491700 12.864200 L 111.726200 12.982700 L 112.148900 13.290500 L 112.337200 13.479800 L 112.508100 13.693300 L 112.791300 14.194000 L 112.903600 14.481300 L 112.993400 14.791700 L 113.096000 15.477100 L 113.108900 15.852200 L 113.096000 16.227200 L 112.993400 16.912700 L 112.903600 17.223100 L 112.791300 17.510900 L 112.508100 18.015700 L 112.337200 18.232800 L 112.148900 18.425700 L 111.726200 18.737600 L 111.491700 18.856600 L 111.246000 18.950000 L 110.732900 19.056700 L 110.465600 19.070100 L 110.198300 19.056700 L 109.685300 18.950000 L 109.439500 18.856600 L 109.205000 18.737600 L 108.782300 18.425700 L 108.594000 18.232800 L 108.423200 18.015700 L 108.140000 17.510900 L 108.027600 17.223100 L 107.937800 16.912700 L 107.835200 16.227200 L 107.822400 15.852200 L 107.835200 15.477100 L 107.937800 14.791700 L 108.027600 14.481300 L 108.140000 14.194000 L 108.423200 13.693300 L 108.594000 13.479800 L 108.782300 13.290500 L 109.205000 12.982700 L 109.439500 12.864200 L 109.685300 12.770800 L 110.198300 12.664100 L 110.465600 12.650700 Z M 135.476400 16.916300 L 135.365600 17.384200 L 135.280900 17.608900 L 135.178300 17.822800 L 134.923800 18.204500 L 134.772000 18.372300 L 134.604700 18.524200 L 134.227100 18.778600 L 134.016800 18.881300 L 133.793600 18.963900 L 133.313400 19.058300 L 133.056300 19.070100 L 132.792100 19.058300 L 132.303700 18.963900 L 132.079500 18.881300 L 131.869600 18.778100 L 131.496100 18.519600 L 131.332500 18.364100 L 131.184700 18.193200 L 130.938500 17.811500 L 130.840000 17.600700 L 130.758900 17.379500 L 130.652200 16.915700 L 130.626500 16.673100 L 135.502600 16.673100 Z M 227.199900 12.664100 L 227.713000 12.770800 L 227.958700 12.864200 L 228.193200 12.982700 L 228.615900 13.290500 L 228.804200 13.479800 L 228.975100 13.693300 L 229.258300 14.194000 L 229.370600 14.481300 L 229.460400 14.791700 L 229.563000 15.477100 L 229.575900 15.852200 L 229.563000 16.227200 L 229.460400 16.912700 L 229.370600 17.223100 L 229.258300 17.510900 L 228.975100 18.015700 L 228.804200 18.232800 L 228.615900 18.425700 L 228.193200 18.737600 L 227.958700 18.856600 L 227.713000 18.950000 L 227.199900 19.056700 L 226.932600 19.070100 L 226.665300 19.056700 L 226.152300 18.950000 L 225.906500 18.856600 L 225.672000 18.737600 L 225.249300 18.425700 L 225.061000 18.232800 L 224.890100 18.015700 L 224.606900 17.510900 L 224.494600 17.223100 L 224.404800 16.912700 L 224.302200 16.227200 L 224.289400 15.852200 L 224.302200 15.477100 L 224.404800 14.791700 L 224.494600 14.481300 L 224.606900 14.194000 L 224.890100 13.693300 L 225.061000 13.479800 L 225.249300 13.290500 L 225.672000 12.982700 L 225.906500 12.864200 L 226.152300 12.770800 L 226.665300 12.664100 L 226.932600 12.650700 Z M 29.882500 12.668200 L 30.481800 12.807700 L 30.741400 12.929800 L 30.976400 13.080200 L 31.378600 13.445500 L 31.545900 13.660400 L 31.691000 13.893900 L 31.916800 14.406900 L 31.997300 14.686500 L 32.058400 14.974900 L 32.128200 15.557700 L 32.136900 15.852200 L 32.127700 16.161600 L 32.053800 16.764900 L 31.989100 17.058900 L 31.904500 17.341600 L 31.670500 17.854600 L 31.521200 18.085000 L 31.349400 18.295900 L 30.934800 18.652900 L 30.692100 18.799200 L 30.424300 18.917700 L 29.808700 19.053100 L 29.460800 19.070100 L 29.121200 19.052600 L 28.521900 18.913100 L 28.262300 18.791000 L 28.028400 18.640100 L 27.634300 18.270700 L 27.474300 18.052200 L 27.336800 17.814100 L 27.123300 17.288700 L 27.047400 17.001400 L 26.989900 16.703900 L 26.924300 16.096400 L 26.916100 15.786500 L 26.925800 15.492500 L 27.003800 14.913800 L 27.072000 14.629100 L 27.160300 14.353600 L 27.398300 13.848700 L 27.548100 13.619400 L 27.719500 13.409000 L 28.130000 13.056100 L 28.369000 12.913400 L 28.630200 12.798500 L 29.217100 12.667200 L 29.542900 12.650700 Z M 22.949700 16.916300 L 22.838800 17.384200 L 22.754200 17.608900 L 22.651600 17.822800 L 22.397100 18.204500 L 22.245200 18.372300 L 22.078000 18.524200 L 21.700400 18.778600 L 21.490000 18.881300 L 21.266800 18.963900 L 20.786600 19.058300 L 20.529600 19.070100 L 20.265400 19.058300 L 19.776900 18.963900 L 19.552700 18.881300 L 19.342900 18.778100 L 18.969400 18.519600 L 18.805700 18.364100 L 18.658000 18.193200 L 18.411700 17.811500 L 18.313200 17.600700 L 18.232100 17.379500 L 18.125400 16.915700 L 18.099800 16.673100 L 22.975800 16.673100 Z M 156.053800 12.655100 L 156.385200 12.690000 L 156.686900 12.759800 L 156.958800 12.864400 L 157.083600 12.929800 L 157.314000 13.080700 L 157.703900 13.450100 L 157.863400 13.668600 L 158.000900 13.906700 L 158.214400 14.432100 L 158.290300 14.719400 L 158.347800 15.016900 L 158.413400 15.624400 L 158.421600 15.934300 L 158.411900 16.228300 L 158.333900 16.807000 L 158.265700 17.091700 L 158.177400 17.367200 L 157.939400 17.872100 L 157.789600 18.101400 L 157.618200 18.311800 L 157.207800 18.664700 L 156.968700 18.807400 L 156.707500 18.922300 L 156.120600 19.053600 L 155.794800 19.070100 L 155.455200 19.052600 L 154.855900 18.913100 L 154.596300 18.791000 L 154.361400 18.640600 L 153.959100 18.275300 L 153.791900 18.060400 L 153.646700 17.826900 L 153.420900 17.313900 L 153.340400 17.034300 L 153.279300 16.745900 L 153.209500 16.163100 L 153.200800 15.868600 L 153.210100 15.559200 L 153.283900 14.955900 L 153.348600 14.661900 L 153.433200 14.379200 L 153.667200 13.866200 L 153.816500 13.635800 L 153.988400 13.424900 L 154.402900 13.067900 L 154.645600 12.921600 L 154.913400 12.803100 L 155.529100 12.667700 L 155.876900 12.650700 Z M 173.678300 12.664100 L 174.191300 12.770800 L 174.437100 12.864200 L 174.671600 12.982700 L 175.094300 13.290500 L 175.282600 13.479800 L 175.453400 13.693300 L 175.736700 14.194000 L 175.849000 14.481300 L 175.938800 14.791700 L 176.041400 15.477100 L 176.054200 15.852200 L 176.041400 16.227200 L 175.938800 16.912700 L 175.849000 17.223100 L 175.736700 17.510900 L 175.453400 18.015700 L 175.282600 18.232800 L 175.094300 18.425700 L 174.671600 18.737600 L 174.437100 18.856600 L 174.191300 18.950000 L 173.678300 19.056700 L 173.411000 19.070100 L 173.143700 19.056700 L 172.630600 18.950000 L 172.384900 18.856600 L 172.150400 18.737600 L 171.727700 18.425700 L 171.539400 18.232800 L 171.368500 18.015700 L 171.085300 17.510900 L 170.973000 17.223100 L 170.883200 16.912700 L 170.780600 16.227200 L 170.767700 15.852200 L 170.780600 15.477100 L 170.883200 14.791700 L 170.973000 14.481300 L 171.085300 14.194000 L 171.368500 13.693300 L 171.539400 13.479800 L 171.727700 13.290500 L 172.150400 12.982700 L 172.384900 12.864200 L 172.630600 12.770800 L 173.143700 12.664100 L 173.411000 12.650700 Z M 248.298700 16.916300 L 248.187900 17.384200 L 248.103200 17.608900 L 248.000600 17.822800 L 247.746100 18.204500 L 247.594200 18.372300 L 247.427000 18.524200 L 247.049400 18.778600 L 246.839000 18.881300 L 246.615900 18.963900 L 246.135600 19.058300 L 245.878600 19.070100 L 245.614400 19.058300 L 245.126000 18.963900 L 244.901800 18.881300 L 244.691900 18.778100 L 244.318400 18.519600 L 244.154700 18.364100 L 244.007000 18.193200 L 243.760700 17.811500 L 243.662200 17.600700 L 243.581200 17.379500 L 243.474400 16.915700 L 243.448800 16.673100 L 248.324800 16.673100 Z M 261.984300 11.616400 L 261.984300 13.438800 L 263.806700 13.438800 L 263.806700 11.616400 Z" transform="scale(1.000000,1.000000) translate(-1.000000,-0.170000)" fill="#ffffff" opacity="1.000000"></path>
        <path d="M 1.000000 48.700000 L 1.000000 2.170000 L 13.780000 2.170000 L 13.780000 23.140000 Q 13.780000 26.290000 14.410000 28.990000 Q 15.040000 31.690000 16.525000 33.715000 Q 18.010000 35.740000 20.440000 36.910000 Q 22.870000 38.080000 26.380000 38.080000 Q 27.550000 38.080000 28.810000 37.945000 Q 30.070000 37.810000 30.970000 37.630000 L 30.970000 49.510000 Q 29.440000 49.960000 28.180000 49.960000 Q 25.750000 49.960000 23.500000 49.240000 Q 21.250000 48.520000 19.270000 47.215000 Q 17.290000 45.910000 15.760000 44.065000 Q 14.230000 42.220000 13.330000 40.060000 L 13.150000 40.060000 L 13.150000 48.700000 Z M 47.350000 25.390000 Q 47.350000 28.180000 47.890000 30.880000 Q 48.430000 33.580000 49.735000 35.650000 Q 51.040000 37.720000 53.200000 39.025000 Q 55.360000 40.330000 58.600000 40.330000 Q 61.840000 40.330000 64.045000 39.025000 Q 66.250000 37.720000 67.555000 35.650000 Q 68.860000 33.580000 69.400000 30.880000 Q 69.940000 28.180000 69.940000 25.390000 Q 69.940000 22.600000 69.400000 19.945000 Q 68.860000 17.290000 67.555000 15.175000 Q 66.250000 13.060000 64.045000 11.800000 Q 61.840000 10.540000 58.600000 10.540000 Q 55.360000 10.540000 53.200000 11.800000 Q 51.040000 13.060000 49.735000 15.175000 Q 48.430000 17.290000 47.890000 19.945000 Q 47.350000 22.600000 47.350000 25.390000 Z M 34.570000 25.390000 Q 34.570000 19.810000 36.280000 15.310000 Q 37.990000 10.810000 41.140000 7.615000 Q 44.290000 4.420000 48.700000 2.710000 Q 53.110000 1.000000 58.600000 1.000000 Q 64.090000 1.000000 68.545000 2.710000 Q 73.000000 4.420000 76.150000 7.615000 Q 79.300000 10.810000 81.010000 15.310000 Q 82.720000 19.810000 82.720000 25.390000 Q 82.720000 30.970000 81.010000 35.515000 Q 79.300000 40.060000 76.150000 43.255000 Q 73.000000 46.450000 68.545000 48.205000 Q 64.090000 49.960000 58.600000 49.960000 Q 53.110000 49.960000 48.700000 48.205000 Q 44.290000 46.450000 41.140000 43.255000 Q 37.990000 40.060000 36.280000 35.515000 Q 34.570000 30.970000 34.570000 25.390000 Z M 102.340000 25.390000 Q 102.340000 28.180000 102.880000 30.880000 Q 103.420000 33.580000 104.725000 35.650000 Q 106.030000 37.720000 108.190000 39.025000 Q 110.350000 40.330000 113.590000 40.330000 Q 116.830000 40.330000 119.035000 39.025000 Q 121.240000 37.720000 122.545000 35.650000 Q 123.850000 33.580000 124.390000 30.880000 Q 124.930000 28.180000 124.930000 25.390000 Q 124.930000 22.600000 124.390000 19.945000 Q 123.850000 17.290000 122.545000 15.175000 Q 121.240000 13.060000 119.035000 11.800000 Q 116.830000 10.540000 113.590000 10.540000 Q 110.350000 10.540000 108.190000 11.800000 Q 106.030000 13.060000 104.725000 15.175000 Q 103.420000 17.290000 102.880000 19.945000 Q 102.340000 22.600000 102.340000 25.390000 Z M 89.560000 25.390000 Q 89.560000 19.810000 91.270000 15.310000 Q 92.980000 10.810000 96.130000 7.615000 Q 99.280000 4.420000 103.690000 2.710000 Q 108.100000 1.000000 113.590000 1.000000 Q 119.080000 1.000000 123.535000 2.710000 Q 127.990000 4.420000 131.140000 7.615000 Q 134.290000 10.810000 136.000000 15.310000 Q 137.710000 19.810000 137.710000 25.390000 Q 137.710000 30.970000 136.000000 35.515000 Q 134.290000 40.060000 131.140000 43.255000 Q 127.990000 46.450000 123.535000 48.205000 Q 119.080000 49.960000 113.590000 49.960000 Q 108.100000 49.960000 103.690000 48.205000 Q 99.280000 46.450000 96.130000 43.255000 Q 92.980000 40.060000 91.270000 35.515000 Q 89.560000 30.970000 89.560000 25.390000 Z M 162.190000 48.700000 L 162.190000 62.650000 L 149.410000 62.650000 L 149.410000 48.700000 L 141.670000 48.700000 L 141.670000 40.150000 L 149.410000 40.150000 L 149.410000 12.700000 Q 149.410000 9.190000 150.580000 7.030000 Q 151.750000 4.870000 153.775000 3.700000 Q 155.800000 2.530000 158.455000 2.125000 Q 161.110000 1.720000 164.080000 1.720000 Q 165.970000 1.720000 167.950000 1.810000 Q 169.930000 1.900000 171.550000 2.170000 L 171.550000 12.070000 Q 170.650000 11.890000 169.660000 11.800000 Q 168.670000 11.710000 167.590000 11.710000 Q 164.350000 11.710000 163.270000 12.790000 Q 162.190000 13.870000 162.190000 17.110000 L 162.190000 40.150000 L 171.550000 40.150000 L 171.550000 48.700000 Z M 176.140000 40.960000 L 188.380000 40.960000 Q 188.380000 43.480000 188.875000 46.045000 Q 189.370000 48.610000 190.540000 50.725000 Q 191.710000 52.840000 193.645000 54.145000 Q 195.580000 55.450000 198.370000 55.450000 Q 202.510000 55.450000 205.165000 52.885000 Q 207.820000 50.320000 207.820000 45.730000 Q 207.820000 42.850000 206.515000 40.600000 Q 205.210000 38.350000 203.275000 36.550000 Q 201.340000 34.750000 199.000000 33.265000 Q 196.660000 31.780000 194.590000 30.340000 Q 190.540000 27.550000 186.895000 24.850000 Q 183.250000 22.150000 180.550000 18.955000 Q 177.850000 15.760000 176.275000 11.710000 Q 174.700000 7.660000 174.700000 2.170000 L 220.960000 2.170000 L 220.960000 13.150000 L 191.170000 13.150000 Q 193.510000 16.390000 196.570000 18.820000 Q 199.630000 21.250000 202.870000 23.365000 Q 206.110000 25.480000 209.305000 27.640000 Q 212.500000 29.800000 215.020000 32.455000 Q 217.540000 35.110000 219.070000 38.530000 Q 220.600000 41.950000 220.600000 46.720000 Q 220.600000 51.310000 218.845000 55.000000 Q 217.090000 58.690000 214.120000 61.210000 Q 211.150000 63.730000 207.235000 65.080000 Q 203.320000 66.430000 199.000000 66.430000 Q 193.330000 66.430000 188.965000 64.495000 Q 184.600000 62.560000 181.720000 59.095000 Q 178.840000 55.630000 177.400000 50.995000 Q 175.960000 46.360000 176.140000 40.960000 Z M 250.930000 49.150000 L 250.930000 27.280000 L 234.370000 27.280000 L 250.660000 49.150000 Z M 250.930000 16.750000 L 250.930000 2.170000 L 263.080000 2.170000 L 263.080000 16.750000 L 271.450000 16.750000 L 271.450000 27.280000 L 263.080000 27.280000 L 263.080000 65.170000 L 251.650000 65.170000 L 224.290000 28.450000 L 224.290000 16.750000 Z" transform="scale(1.000000,1.000000) translate(-1.000000,31.830000)" fill="#ffffff" opacity="1.000000"></path>
    </g>
</svg>